<svg xmlns="http://www.w3.org/2000/svg" xmlns:xlink="http://www.w3.org/1999/xlink" contentStyleType="text/css" data-diagram-type="CLASS" height="1189px" preserveAspectRatio="none" style="width:1620px;height:1189px;background:#FFFFFF;" version="1.1" viewBox="0 0 1620 1189" width="1620px" zoomAndPan="magnify"><defs/><g><!--cluster bmw::platform::config_provider--><g class="cluster" data-entity="bmw..platform..config_provider" data-source-line="3" data-uid="ent0002" id="cluster_bmw..platform..config_provider"><path d="M8.5,102 L260.2832,102 A3.75,3.75 0 0 1 262.7832,104.5 L269.7832,124.2969 L1610.5,124.2969 A2.5,2.5 0 0 1 1613,126.7969 L1613,1179.5 A2.5,2.5 0 0 1 1610.5,1182 L8.5,1182 A2.5,2.5 0 0 1 6,1179.5 L6,104.5 A2.5,2.5 0 0 1 8.5,102" fill="none" style="stroke:#000000;stroke-width:1.5;"/><line style="stroke:#000000;stroke-width:1.5;" x1="6" x2="269.7832" y1="124.2969" y2="124.2969"/><text fill="#000000" font-family="sans-serif" font-size="14" font-weight="bold" lengthAdjust="spacing" textLength="250.7832" x="10" y="116.9951">bmw::platform::config_provider</text></g><!--class ConfigProviderFactory--><g class="entity" data-entity="ConfigProviderFactory" data-source-line="4" data-uid="ent0003" id="entity_ConfigProviderFactory"><rect fill="#F1F1F1" height="479.7188" rx="2.5" ry="2.5" style="stroke:#181818;stroke-width:0.5;" width="650.9688" x="786.5" y="137"/><ellipse cx="1029.9653" cy="153" fill="#ADD1B2" rx="11" ry="11" style="stroke:#181818;stroke-width:1;"/><path d="M1032.9341,158.6406 Q1032.356,158.9375 1031.7153,159.0781 Q1031.0747,159.2344 1030.3716,159.2344 Q1027.8716,159.2344 1026.5435,157.5938 Q1025.231,155.9375 1025.231,152.8125 Q1025.231,149.6875 1026.5435,148.0313 Q1027.8716,146.375 1030.3716,146.375 Q1031.0747,146.375 1031.7153,146.5313 Q1032.3716,146.6875 1032.9341,146.9844 L1032.9341,149.7031 Q1032.3091,149.125 1031.7153,148.8594 Q1031.1216,148.5781 1030.4966,148.5781 Q1029.1528,148.5781 1028.4653,149.6563 Q1027.7778,150.7188 1027.7778,152.8125 Q1027.7778,154.9063 1028.4653,155.9844 Q1029.1528,157.0469 1030.4966,157.0469 Q1031.1216,157.0469 1031.7153,156.7813 Q1032.3091,156.5 1032.9341,155.9219 L1032.9341,158.6406 Z " fill="#000000"/><text fill="#000000" font-family="sans-serif" font-size="14" lengthAdjust="spacing" textLength="155.5381" x="1050.4653" y="157.8467">ConfigProviderFactory</text><line style="stroke:#181818;stroke-width:0.5;" x1="787.5" x2="1436.4688" y1="169" y2="169"/><ellipse cx="797.5" cy="231.5391" fill="#84BE84" rx="3" ry="3" style="stroke:#038048;stroke-width:1;"/><text fill="#000000" font-family="sans-serif" font-size="14" lengthAdjust="spacing" textLength="52.2881" x="806.5" y="185.9951">Create(</text><text fill="#000000" font-family="sans-serif" font-size="14" lengthAdjust="spacing" textLength="175.1367" x="824.3008" y="202.292">token : amp::stop_token,</text><text fill="#000000" font-family="sans-serif" font-size="14" lengthAdjust="spacing" textLength="247.9121" x="824.3008" y="218.5889">timeout : std::chrono::milliseconds,</text><text fill="#000000" font-family="sans-serif" font-size="14" lengthAdjust="spacing" textLength="343.0342" x="824.3008" y="234.8857">max_samples_limit : amp::optional&lt;std::size_t&gt;,</text><text fill="#000000" font-family="sans-serif" font-size="14" lengthAdjust="spacing" textLength="464.5293" x="824.3008" y="251.1826">polling_cycle_interval : amp::optional&lt;std::chrono::milliseconds&gt;,</text><text fill="#000000" font-family="sans-serif" font-size="14" lengthAdjust="spacing" textLength="399.0137" x="824.3008" y="267.4795">memory_resource : amp::pmr::memory_resource* const,</text><text fill="#000000" font-family="sans-serif" font-size="14" lengthAdjust="spacing" textLength="607.168" x="824.3008" y="283.7764">callback : IsAvailableNotificationCallback&amp;&amp;) : amp::pmr::unique_ptr&lt;ConfigProvider&gt;</text><ellipse cx="797.5" cy="345.6172" fill="#84BE84" rx="3" ry="3" style="stroke:#038048;stroke-width:1;"/><text fill="#000000" font-family="sans-serif" font-size="14" lengthAdjust="spacing" textLength="52.2881" x="806.5" y="300.0732">Create(</text><text fill="#000000" font-family="sans-serif" font-size="14" lengthAdjust="spacing" textLength="175.1367" x="824.3008" y="316.3701">token : amp::stop_token,</text><text fill="#000000" font-family="sans-serif" font-size="14" lengthAdjust="spacing" textLength="355.8584" x="824.3008" y="332.667">persistency : amp::pmr::unique_ptr&lt;Persistency&gt;,</text><text fill="#000000" font-family="sans-serif" font-size="14" lengthAdjust="spacing" textLength="343.0342" x="824.3008" y="348.9639">max_samples_limit : amp::optional&lt;std::size_t&gt;,</text><text fill="#000000" font-family="sans-serif" font-size="14" lengthAdjust="spacing" textLength="464.5293" x="824.3008" y="365.2607">polling_cycle_interval : amp::optional&lt;std::chrono::milliseconds&gt;,</text><text fill="#000000" font-family="sans-serif" font-size="14" lengthAdjust="spacing" textLength="399.0137" x="824.3008" y="381.5576">memory_resource : amp::pmr::memory_resource* const,</text><text fill="#000000" font-family="sans-serif" font-size="14" lengthAdjust="spacing" textLength="607.168" x="824.3008" y="397.8545">callback : IsAvailableNotificationCallback&amp;&amp;) : amp::pmr::unique_ptr&lt;ConfigProvider&gt;</text><ellipse cx="797.5" cy="443.3984" fill="#84BE84" rx="3" ry="3" style="stroke:#038048;stroke-width:1;"/><text fill="#000000" font-family="sans-serif" font-size="14" lengthAdjust="spacing" textLength="52.2881" x="806.5" y="414.1514">Create(</text><text fill="#000000" font-family="sans-serif" font-size="14" lengthAdjust="spacing" textLength="179.5869" x="824.3008" y="430.4482">token : amp::stop_token ,</text><text fill="#000000" font-family="sans-serif" font-size="14" lengthAdjust="spacing" textLength="252.3623" x="824.3008" y="446.7451">timeout : std::chrono::milliseconds ,</text><text fill="#000000" font-family="sans-serif" font-size="14" lengthAdjust="spacing" textLength="403.4639" x="824.3008" y="463.042">memory_resource : amp::pmr::memory_resource* const ,</text><text fill="#000000" font-family="sans-serif" font-size="14" lengthAdjust="spacing" textLength="607.168" x="824.3008" y="479.3389">callback : IsAvailableNotificationCallback&amp;&amp;) : amp::pmr::unique_ptr&lt;ConfigProvider&gt;</text><ellipse cx="797.5" cy="524.8828" fill="#84BE84" rx="3" ry="3" style="stroke:#038048;stroke-width:1;"/><text fill="#000000" font-family="sans-serif" font-size="14" lengthAdjust="spacing" textLength="52.2881" x="806.5" y="495.6357">Create(</text><text fill="#000000" font-family="sans-serif" font-size="14" lengthAdjust="spacing" textLength="175.1367" x="824.3008" y="511.9326">token : amp::stop_token,</text><text fill="#000000" font-family="sans-serif" font-size="14" lengthAdjust="spacing" textLength="355.8584" x="824.3008" y="528.2295">persistency : amp::pmr::unique_ptr&lt;Persistency&gt;,</text><text fill="#000000" font-family="sans-serif" font-size="14" lengthAdjust="spacing" textLength="399.0137" x="824.3008" y="544.5264">memory_resource : amp::pmr::memory_resource* const,</text><text fill="#000000" font-family="sans-serif" font-size="14" lengthAdjust="spacing" textLength="607.168" x="824.3008" y="560.8232">callback : IsAvailableNotificationCallback&amp;&amp;) : amp::pmr::unique_ptr&lt;ConfigProvider&gt;</text><line style="stroke:#181818;stroke-width:1;" x1="787.5" x2="1436.4688" y1="568.125" y2="568.125"/><rect fill="none" height="6" style="stroke:#C82930;stroke-width:1;" width="6" x="794.5" y="578.7734"/><text fill="#000000" font-family="sans-serif" font-size="14" lengthAdjust="spacing" textLength="189.9365" x="806.5" y="585.1201">logger_ : mw::log::Logger&amp;</text><line style="stroke:#181818;stroke-width:1;" x1="787.5" x2="1436.4688" y1="592.4219" y2="592.4219"/><text fill="#000000" font-family="sans-serif" font-size="14" lengthAdjust="spacing" textLength="489.5693" x="792.5" y="609.417">Responsibility: This class is responsible to create ConfigProvider class</text></g><!--class PersistencyFactory--><g class="entity" data-entity="PersistencyFactory" data-source-line="4" data-uid="ent0004" id="entity_PersistencyFactory"><rect fill="#F1F1F1" height="137.4844" rx="2.5" ry="2.5" style="stroke:#181818;stroke-width:0.5;" width="714.543" x="36.5" y="308.5"/><ellipse cx="323.1855" cy="324.5" fill="#ADD1B2" rx="11" ry="11" style="stroke:#181818;stroke-width:1;"/><path d="M326.1543,330.1406 Q325.5762,330.4375 324.9355,330.5781 Q324.2949,330.7344 323.5918,330.7344 Q321.0918,330.7344 319.7637,329.0938 Q318.4512,327.4375 318.4512,324.3125 Q318.4512,321.1875 319.7637,319.5313 Q321.0918,317.875 323.5918,317.875 Q324.2949,317.875 324.9355,318.0313 Q325.5918,318.1875 326.1543,318.4844 L326.1543,321.2031 Q325.5293,320.625 324.9355,320.3594 Q324.3418,320.0781 323.7168,320.0781 Q322.373,320.0781 321.6855,321.1563 Q320.998,322.2188 320.998,324.3125 Q320.998,326.4063 321.6855,327.4844 Q322.373,328.5469 323.7168,328.5469 Q324.3418,328.5469 324.9355,328.2813 Q325.5293,328 326.1543,327.4219 L326.1543,330.1406 Z " fill="#000000"/><text fill="#000000" font-family="sans-serif" font-size="14" lengthAdjust="spacing" textLength="132.6719" x="343.6855" y="329.3467">PersistencyFactory</text><line style="stroke:#181818;stroke-width:0.5;" x1="37.5" x2="750.043" y1="340.5" y2="340.5"/><ellipse cx="47.5" cy="370.4453" fill="#84BE84" rx="3" ry="3" style="stroke:#038048;stroke-width:1;"/><text fill="#000000" font-family="sans-serif" font-size="14" lengthAdjust="spacing" textLength="52.2881" x="56.5" y="357.4951">Create(</text><text fill="#000000" font-family="sans-serif" font-size="14" lengthAdjust="spacing" textLength="601.0156" x="74.3008" y="373.792">handle : const ara::core::Result&lt;ara::per::SharedHandle&lt;KeyValueStorageType&gt;&gt;&amp;,</text><text fill="#000000" font-family="sans-serif" font-size="14" lengthAdjust="spacing" textLength="670.7422" x="74.3008" y="390.0889">memory_resource : amp::pmr::memory_resource* const) : amp::pmr::unique_ptr&lt;Persistency&gt;</text><line style="stroke:#181818;stroke-width:1;" x1="37.5" x2="750.043" y1="397.3906" y2="397.3906"/><rect fill="none" height="6" style="stroke:#C82930;stroke-width:1;" width="6" x="44.5" y="408.0391"/><text fill="#000000" font-family="sans-serif" font-size="14" lengthAdjust="spacing" textLength="189.9365" x="56.5" y="414.3857">logger_ : mw::log::Logger&amp;</text><line style="stroke:#181818;stroke-width:1;" x1="37.5" x2="750.043" y1="421.6875" y2="421.6875"/><text fill="#000000" font-family="sans-serif" font-size="14" lengthAdjust="spacing" textLength="466.7031" x="42.5" y="438.6826">Responsibility: This class is responsible to create Persistency class</text></g><!--class ConfigProvider--><g class="entity" data-entity="ConfigProvider" data-source-line="4" data-uid="ent0005" id="entity_ConfigProvider"><rect fill="#F1F1F1" height="471.7188" rx="2.5" ry="2.5" style="stroke:#181818;stroke-width:0.5;" width="795.8838" x="801" y="694"/><ellipse cx="1143.1353" cy="710" fill="#A9DCDF" rx="11" ry="11" style="stroke:#181818;stroke-width:1;"/><path d="M1143.2446,705.3438 L1142.0884,710.4219 L1144.4165,710.4219 L1143.2446,705.3438 Z M1141.7603,703.1094 L1144.7446,703.1094 L1148.104,715.5 L1145.6509,715.5 L1144.8853,712.4375 L1141.604,712.4375 L1140.854,715.5 L1138.4165,715.5 L1141.7603,703.1094 Z " fill="#000000"/><text fill="#000000" font-family="sans-serif" font-size="14" font-style="italic" lengthAdjust="spacing" textLength="103.1133" x="1163.6353" y="714.8467">ConfigProvider</text><line style="stroke:#181818;stroke-width:0.5;" x1="802" x2="1595.8838" y1="726" y2="726"/><ellipse cx="812" cy="747.7969" fill="#84BE84" rx="3" ry="3" style="stroke:#038048;stroke-width:1;"/><text fill="#000000" font-family="sans-serif" font-size="14" font-style="italic" lengthAdjust="spacing" textLength="126.8682" x="821" y="742.9951">GetParameterSet(</text><text fill="#000000" font-family="sans-serif" font-size="14" font-style="italic" lengthAdjust="spacing" textLength="598.999" x="838.8008" y="759.292">set_name : const amp::string_view) : Result&lt;std::shared_ptr&lt;const ParameterSet&gt;&gt;</text><ellipse cx="812" cy="788.5391" fill="#84BE84" rx="3" ry="3" style="stroke:#038048;stroke-width:1;"/><text fill="#000000" font-family="sans-serif" font-size="14" font-style="italic" lengthAdjust="spacing" textLength="126.8682" x="821" y="775.5889">GetParameterSet(</text><text fill="#000000" font-family="sans-serif" font-size="14" font-style="italic" lengthAdjust="spacing" textLength="248.5" x="838.8008" y="791.8857">set_name : const amp::string_view,</text><text fill="#000000" font-family="sans-serif" font-size="14" font-style="italic" lengthAdjust="spacing" textLength="752.083" x="838.8008" y="808.1826">timeout : const std::optional&lt;std::chrono::milliseconds&gt;) : Result&lt;std::shared_ptr&lt;const ParameterSet&gt;&gt;</text><ellipse cx="812" cy="837.4297" fill="#84BE84" rx="3" ry="3" style="stroke:#038048;stroke-width:1;"/><text fill="#000000" font-family="sans-serif" font-size="14" font-style="italic" lengthAdjust="spacing" textLength="217.8271" x="821" y="824.4795">GetParameterSetsByNameList(</text><text fill="#000000" font-family="sans-serif" font-size="14" font-style="italic" lengthAdjust="spacing" textLength="412.8291" x="838.8008" y="840.7764">set_names : const amp::pmr::vector&lt;amp::string_view&gt;&amp;,</text><text fill="#000000" font-family="sans-serif" font-size="14" font-style="italic" lengthAdjust="spacing" textLength="542.2129" x="838.8008" y="857.0732">timeout : const std::optional&lt;std::chrono::milliseconds&gt;) : ParameterSetMap</text><ellipse cx="812" cy="870.0234" fill="#84BE84" rx="3" ry="3" style="stroke:#038048;stroke-width:1;"/><text fill="#000000" font-family="sans-serif" font-size="14" font-style="italic" lengthAdjust="spacing" textLength="556.2129" x="821" y="873.3701">OnChangedNcdState(callback : NcdStateNotifierCallbackType&amp;&amp;) : ResultBlank</text><ellipse cx="812" cy="902.6172" fill="#84BE84" rx="3" ry="3" style="stroke:#038048;stroke-width:1;"/><text fill="#000000" font-family="sans-serif" font-size="14" font-style="italic" lengthAdjust="spacing" textLength="184.2969" x="821" y="889.667">OnChangedParameterSet(</text><text fill="#000000" font-family="sans-serif" font-size="14" font-style="italic" lengthAdjust="spacing" textLength="210.7451" x="838.8008" y="905.9639">set_name : const std::string&amp;,</text><text fill="#000000" font-family="sans-serif" font-size="14" font-style="italic" lengthAdjust="spacing" textLength="433.0361" x="838.8008" y="922.2607">callback : OnChangedParameterSetCallback&amp;&amp;) : ResultBlank</text><ellipse cx="812" cy="951.5078" fill="#84BE84" rx="3" ry="3" style="stroke:#038048;stroke-width:1;"/><text fill="#000000" font-family="sans-serif" font-size="14" font-style="italic" lengthAdjust="spacing" textLength="211.0664" x="821" y="938.5576">OnChangedParameterSetCbk(</text><text fill="#000000" font-family="sans-serif" font-size="14" font-style="italic" lengthAdjust="spacing" textLength="196.6973" x="838.8008" y="954.8545">set_name : std::string_view,</text><text fill="#000000" font-family="sans-serif" font-size="14" font-style="italic" lengthAdjust="spacing" textLength="433.0361" x="838.8008" y="971.1514">callback : OnChangedParameterSetCallback&amp;&amp;) : ResultBlank</text><ellipse cx="812" cy="992.25" fill="#84BE84" rx="3" ry="3" style="stroke:#038048;stroke-width:1;"/><text fill="#000000" font-family="sans-serif" font-size="14" font-style="italic" lengthAdjust="spacing" textLength="165.6484" x="821" y="987.4482">GetInitialQualifierState(</text><text fill="#000000" font-family="sans-serif" font-size="14" font-style="italic" lengthAdjust="spacing" textLength="551.4482" x="838.8008" y="1003.7451">timeout : const std::optional&lt;std::chrono::milliseconds&gt;) : InitialQualifierState</text><ellipse cx="812" cy="1032.9922" fill="#84BE84" rx="3" ry="3" style="stroke:#038048;stroke-width:1;"/><text fill="#000000" font-family="sans-serif" font-size="14" font-style="italic" lengthAdjust="spacing" textLength="145.0381" x="821" y="1020.042">WaitUntilConnected(</text><text fill="#000000" font-family="sans-serif" font-size="14" font-style="italic" lengthAdjust="spacing" textLength="290.2813" x="838.8008" y="1036.3389">timeout : const std::chrono::milliseconds,</text><text fill="#000000" font-family="sans-serif" font-size="14" font-style="italic" lengthAdjust="spacing" textLength="310.1943" x="838.8008" y="1052.6357">stop_token : const amp::stop_token&amp;) : bool</text><ellipse cx="812" cy="1065.5859" fill="#84BE84" rx="3" ry="3" style="stroke:#038048;stroke-width:1;"/><text fill="#000000" font-family="sans-serif" font-size="14" font-style="italic" lengthAdjust="spacing" textLength="304.999" x="821" y="1068.9326">CheckParameterSetUpdates() : ResultBlank</text><ellipse cx="812" cy="1081.8828" fill="#84BE84" rx="3" ry="3" style="stroke:#038048;stroke-width:1;"/><text fill="#000000" font-family="sans-serif" font-size="14" font-style="italic" lengthAdjust="spacing" textLength="317.9805" x="821" y="1085.2295">GetCachedParameterSetsCount() : std::size_t</text><ellipse cx="812" cy="1098.1797" fill="#84BE84" rx="3" ry="3" style="stroke:#038048;stroke-width:1;"/><text fill="#000000" font-family="sans-serif" font-size="14" font-style="italic" lengthAdjust="spacing" textLength="177.7207" x="821" y="1101.5264">GetNcdState() : NcdState</text><ellipse cx="812" cy="1122.625" fill="#84BE84" rx="3" ry="3" style="stroke:#038048;stroke-width:1;"/><text fill="#000000" font-family="sans-serif" font-size="14" font-style="italic" lengthAdjust="spacing" textLength="94.5273" x="821" y="1117.8232">GetNcdState(</text><text fill="#000000" font-family="sans-serif" font-size="14" font-style="italic" lengthAdjust="spacing" textLength="480.3271" x="838.8008" y="1134.1201">timeout : const std::optional&lt;std::chrono::milliseconds&gt;) : NcdState</text><line style="stroke:#181818;stroke-width:1;" x1="802" x2="1595.8838" y1="1141.4219" y2="1141.4219"/><text fill="#000000" font-family="sans-serif" font-size="14" lengthAdjust="spacing" textLength="651.6904" x="807" y="1158.417">Responsibility: This class is repsonsible for providing ParameterSet's and InitialQualifierState</text></g><!--class Persistency--><g class="entity" data-entity="Persistency" data-source-line="4" data-uid="ent0006" id="entity_Persistency"><rect fill="#F1F1F1" height="227.2656" rx="2.5" ry="2.5" style="stroke:#181818;stroke-width:0.5;" width="742.8369" x="22.5" y="816.5"/><ellipse cx="349.5449" cy="832.5" fill="#A9DCDF" rx="11" ry="11" style="stroke:#181818;stroke-width:1;"/><path d="M349.6543,827.8438 L348.498,832.9219 L350.8262,832.9219 L349.6543,827.8438 Z M348.1699,825.6094 L351.1543,825.6094 L354.5137,838 L352.0605,838 L351.2949,834.9375 L348.0137,834.9375 L347.2637,838 L344.8262,838 L348.1699,825.6094 Z " fill="#000000"/><text fill="#000000" font-family="sans-serif" font-size="14" font-style="italic" lengthAdjust="spacing" textLength="80.2471" x="370.0449" y="837.3467">Persistency</text><line style="stroke:#181818;stroke-width:0.5;" x1="23.5" x2="764.3369" y1="848.5" y2="848.5"/><ellipse cx="33.5" cy="886.5938" fill="#84BE84" rx="3" ry="3" style="stroke:#038048;stroke-width:1;"/><text fill="#000000" font-family="sans-serif" font-size="14" font-style="italic" lengthAdjust="spacing" textLength="197.4424" x="42.5" y="865.4951">ReadCachedParameterSets(</text><text fill="#000000" font-family="sans-serif" font-size="14" font-style="italic" lengthAdjust="spacing" textLength="298.9424" x="60.3008" y="881.792">cached_parameter_sets : ParameterMap&amp;,</text><text fill="#000000" font-family="sans-serif" font-size="14" font-style="italic" lengthAdjust="spacing" textLength="356.6445" x="60.3008" y="898.0889">memory_resource : amp::pmr::memory_resource*,</text><text fill="#000000" font-family="sans-serif" font-size="14" font-style="italic" lengthAdjust="spacing" textLength="463.7979" x="60.3008" y="914.3857">filesystem : std::unique_ptr&lt;bmw::filesystem::Filesystem&gt;) : void</text><ellipse cx="33.5" cy="959.9297" fill="#84BE84" rx="3" ry="3" style="stroke:#038048;stroke-width:1;"/><text fill="#000000" font-family="sans-serif" font-size="14" font-style="italic" lengthAdjust="spacing" textLength="145.4551" x="42.5" y="930.6826">CacheParameterSet(</text><text fill="#000000" font-family="sans-serif" font-size="14" font-style="italic" lengthAdjust="spacing" textLength="341.3115" x="60.3008" y="946.9795">cached_parameter_sets : const ParameterMap&amp;,</text><text fill="#000000" font-family="sans-serif" font-size="14" font-style="italic" lengthAdjust="spacing" textLength="284.7168" x="60.3008" y="963.2764">param_set_key : const amp::pmr::string,</text><text fill="#000000" font-family="sans-serif" font-size="14" font-style="italic" lengthAdjust="spacing" textLength="431.2656" x="60.3008" y="979.5732">parameter_set : const std::shared_ptr&lt;const ParameterSet&gt;,</text><text fill="#000000" font-family="sans-serif" font-size="14" font-style="italic" lengthAdjust="spacing" textLength="205.6182" x="60.3008" y="995.8701">sync_to_storage : bool) : void</text><ellipse cx="33.5" cy="1008.8203" fill="#84BE84" rx="3" ry="3" style="stroke:#038048;stroke-width:1;"/><text fill="#000000" font-family="sans-serif" font-size="14" font-style="italic" lengthAdjust="spacing" textLength="159.8037" x="42.5" y="1012.167">SyncToStorage() : void</text><line style="stroke:#181818;stroke-width:1;" x1="23.5" x2="764.3369" y1="1019.4688" y2="1019.4688"/><text fill="#000000" font-family="sans-serif" font-size="14" lengthAdjust="spacing" textLength="730.8369" x="28.5" y="1036.4639">Responsibilities: This class is responsible for reading and writing the ParameterSet to persistent storage</text></g><!--class Adaptive_Application--><g class="entity" data-entity="Adaptive_Application" data-source-line="9" data-uid="ent0007" id="entity_Adaptive_Application"><rect fill="#F1F1F1" height="48" rx="2.5" ry="2.5" style="stroke:#181818;stroke-width:0.5;" width="179.4307" x="1022.5" y="7"/><ellipse cx="1037.5" cy="23" fill="#ADD1B2" rx="11" ry="11" style="stroke:#181818;stroke-width:1;"/><path d="M1040.4688,28.6406 Q1039.8906,28.9375 1039.25,29.0781 Q1038.6094,29.2344 1037.9063,29.2344 Q1035.4063,29.2344 1034.0781,27.5938 Q1032.7656,25.9375 1032.7656,22.8125 Q1032.7656,19.6875 1034.0781,18.0313 Q1035.4063,16.375 1037.9063,16.375 Q1038.6094,16.375 1039.25,16.5313 Q1039.9063,16.6875 1040.4688,16.9844 L1040.4688,19.7031 Q1039.8438,19.125 1039.25,18.8594 Q1038.6563,18.5781 1038.0313,18.5781 Q1036.6875,18.5781 1036,19.6563 Q1035.3125,20.7188 1035.3125,22.8125 Q1035.3125,24.9063 1036,25.9844 Q1036.6875,27.0469 1038.0313,27.0469 Q1038.6563,27.0469 1039.25,26.7813 Q1039.8438,26.5 1040.4688,25.9219 L1040.4688,28.6406 Z " fill="#000000"/><text fill="#000000" font-family="sans-serif" font-size="14" lengthAdjust="spacing" textLength="147.4307" x="1051.5" y="27.8467">Adaptive_Application</text><line style="stroke:#181818;stroke-width:0.5;" x1="1023.5" x2="1200.9307" y1="39" y2="39"/><line style="stroke:#181818;stroke-width:0.5;" x1="1023.5" x2="1200.9307" y1="47" y2="47"/></g><!--link Adaptive_Application to PersistencyFactory--><g class="link" data-entity-1="Adaptive_Application" data-entity-2="PersistencyFactory" data-source-line="9" data-uid="lnk8" id="link_Adaptive_Application_PersistencyFactory"><path codeLine="9" d="M1022.38,36.82 C951.17,43.29 850.38,58.46 769,94 C649.75,146.09 537.7017,238.9026 467.0017,304.3926" fill="none" id="Adaptive_Application-to-PersistencyFactory" style="stroke:#181818;stroke-width:1;"/><polygon fill="#181818" points="462.6,308.47,471.9208,305.2885,466.2681,305.0722,466.4844,299.4195,462.6,308.47" style="stroke:#181818;stroke-width:1;"/></g><!--link PersistencyFactory to Persistency--><g class="link" data-entity-1="PersistencyFactory" data-entity-2="Persistency" data-source-line="10" data-uid="lnk9" id="link_PersistencyFactory_Persistency"><path codeLine="10" d="M394,445.56 C394,537.95 394,698.93 394,810.4" fill="none" id="PersistencyFactory-to-Persistency" style="stroke:#181818;stroke-width:1;"/><polygon fill="#181818" points="394,816.4,398,807.4,394,811.4,390,807.4,394,816.4" style="stroke:#181818;stroke-width:1;"/><text fill="#000000" font-family="sans-serif" font-size="13" lengthAdjust="spacing" textLength="41.5518" x="395" y="660.0669">create</text></g><!--link Adaptive_Application to ConfigProviderFactory--><g class="link" data-entity-1="Adaptive_Application" data-entity-2="ConfigProviderFactory" data-source-line="12" data-uid="lnk10" id="link_Adaptive_Application_ConfigProviderFactory"><path codeLine="12" d="M1112,55.1 C1112,74.24 1112,97.62 1112,130.99" fill="none" id="Adaptive_Application-to-ConfigProviderFactory" style="stroke:#181818;stroke-width:1;"/><polygon fill="#181818" points="1112,136.99,1116,127.99,1112,131.99,1108,127.99,1112,136.99" style="stroke:#181818;stroke-width:1;"/></g><!--link ConfigProviderFactory to ConfigProvider--><g class="link" data-entity-1="ConfigProviderFactory" data-entity-2="ConfigProvider" data-source-line="13" data-uid="lnk11" id="link_ConfigProviderFactory_ConfigProvider"><path codeLine="13" d="M1149.78,617.27 C1153.79,642.69 1156.9329,662.5936 1160.9429,687.9536" fill="none" id="ConfigProviderFactory-to-ConfigProvider" style="stroke:#181818;stroke-width:1;"/><polygon fill="#181818" points="1161.88,693.88,1164.4253,684.3657,1161.0991,688.9414,1156.5234,685.6152,1161.88,693.88" style="stroke:#181818;stroke-width:1;"/><text fill="#000000" font-family="sans-serif" font-size="13" lengthAdjust="spacing" textLength="41.5518" x="1156" y="660.0669">create</text></g><!--reverse link Persistency to ConfigProvider--><g class="link" data-entity-1="Persistency" data-entity-2="ConfigProvider" data-source-line="14" data-uid="lnk13" id="link_Persistency_ConfigProvider"><path codeLine="14" d="M771.84,930 C783.54,930 789.25,930 800.95,930" fill="none" id="Persistency-backto-ConfigProvider" style="stroke:#181818;stroke-width:1;stroke-dasharray:7,7;"/><polygon fill="#181818" points="765.84,930,774.84,934,770.84,930,774.84,926,765.84,930" style="stroke:#181818;stroke-width:1;"/></g><!--reverse link Adaptive_Application to ConfigProvider--><g class="link" data-entity-1="Adaptive_Application" data-entity-2="ConfigProvider" data-source-line="15" data-uid="lnk14" id="link_Adaptive_Application_ConfigProvider"><path codeLine="15" d="M1213.5362,36.3147 C1304.1462,42.0247 1423.28,56.04 1455,94 C1604.03,272.38 1533.3,398.14 1455,617 C1445.56,643.39 1432.82,669.15 1418.04,693.83" fill="none" id="Adaptive_Application-backto-ConfigProvider" style="stroke:#181818;stroke-width:1;"/><polygon fill="#181818" points="1201.56,35.56,1207.2966,39.9294,1213.5362,36.3147,1207.7997,31.9453,1201.56,35.56" style="stroke:#181818;stroke-width:1;"/></g><!--SRC=[ZPBDQiCm3CVlVWhdL1ZKkVSmA8F1RYrx0EFPIX6ujh6LZhnzaoRj4jSPlLb_oJzzLkYqRGsazeSBKQkKW5AjlMlm94Fq5pGGwqPfyh7BTJdf8hHdMttSd8V9zpcwM5LC420cJ0HETm_uJ5k23t-EEtN3LxWggZDGNrflBgs9TPU-WLOfUVjE6vb84KZg0gIHzEMGKDbZgomss0E70FOQCBDBytjXSBFtqw0OsniL22yWzo5Or8hGExur_jTjttbXfCzIANh7TOIXqV_vvLiegYj_7ecMCXSM6XABcigbl8tS3ClwfUV4WJOxYnq_tMwZ45RS-HX_1G00]--></g></svg>