<svg xmlns="http://www.w3.org/2000/svg" xmlns:xlink="http://www.w3.org/1999/xlink" contentStyleType="text/css" data-diagram-type="CLASS" height="2091px" preserveAspectRatio="none" style="width:1992px;height:2091px;background:#FFFFFF;" version="1.1" viewBox="0 0 1992 2091" width="1992px" zoomAndPan="magnify"><defs/><g><!--cluster bmw::platform::config_provider--><g class="cluster" data-entity="bmw..platform..config_provider" data-source-line="3" data-uid="ent0002" id="cluster_bmw..platform..config_provider"><path d="M8.5,80 L260.2832,80 A3.75,3.75 0 0 1 262.7832,82.5 L269.7832,102.2969 L1982.5,102.2969 A2.5,2.5 0 0 1 1985,104.7969 L1985,2081.5 A2.5,2.5 0 0 1 1982.5,2084 L8.5,2084 A2.5,2.5 0 0 1 6,2081.5 L6,82.5 A2.5,2.5 0 0 1 8.5,80" fill="none" style="stroke:#000000;stroke-width:1.5;"/><line style="stroke:#000000;stroke-width:1.5;" x1="6" x2="269.7832" y1="102.2969" y2="102.2969"/><text fill="#000000" font-family="sans-serif" font-size="14" font-weight="bold" lengthAdjust="spacing" textLength="250.7832" x="10" y="94.9951">bmw::platform::config_provider</text></g><!--class ConfigProvider--><g class="entity" data-entity="ConfigProvider" data-source-line="4" data-uid="ent0003" id="entity_ConfigProvider"><rect fill="#F1F1F1" height="471.7188" rx="2.5" ry="2.5" style="stroke:#181818;stroke-width:0.5;" width="795.8838" x="1173" y="115"/><ellipse cx="1515.1353" cy="131" fill="#A9DCDF" rx="11" ry="11" style="stroke:#181818;stroke-width:1;"/><path d="M1515.2446,126.3438 L1514.0884,131.4219 L1516.4165,131.4219 L1515.2446,126.3438 Z M1513.7603,124.1094 L1516.7446,124.1094 L1520.104,136.5 L1517.6509,136.5 L1516.8853,133.4375 L1513.604,133.4375 L1512.854,136.5 L1510.4165,136.5 L1513.7603,124.1094 Z " fill="#000000"/><text fill="#000000" font-family="sans-serif" font-size="14" font-style="italic" lengthAdjust="spacing" textLength="103.1133" x="1535.6353" y="135.8467">ConfigProvider</text><line style="stroke:#181818;stroke-width:0.5;" x1="1174" x2="1967.8838" y1="147" y2="147"/><ellipse cx="1184" cy="168.7969" fill="#84BE84" rx="3" ry="3" style="stroke:#038048;stroke-width:1;"/><text fill="#000000" font-family="sans-serif" font-size="14" font-style="italic" lengthAdjust="spacing" textLength="126.8682" x="1193" y="163.9951">GetParameterSet(</text><text fill="#000000" font-family="sans-serif" font-size="14" font-style="italic" lengthAdjust="spacing" textLength="598.999" x="1210.8008" y="180.292">set_name : const amp::string_view) : Result&lt;std::shared_ptr&lt;const ParameterSet&gt;&gt;</text><ellipse cx="1184" cy="209.5391" fill="#84BE84" rx="3" ry="3" style="stroke:#038048;stroke-width:1;"/><text fill="#000000" font-family="sans-serif" font-size="14" font-style="italic" lengthAdjust="spacing" textLength="126.8682" x="1193" y="196.5889">GetParameterSet(</text><text fill="#000000" font-family="sans-serif" font-size="14" font-style="italic" lengthAdjust="spacing" textLength="248.5" x="1210.8008" y="212.8857">set_name : const amp::string_view,</text><text fill="#000000" font-family="sans-serif" font-size="14" font-style="italic" lengthAdjust="spacing" textLength="752.083" x="1210.8008" y="229.1826">timeout : const std::optional&lt;std::chrono::milliseconds&gt;) : Result&lt;std::shared_ptr&lt;const ParameterSet&gt;&gt;</text><ellipse cx="1184" cy="258.4297" fill="#84BE84" rx="3" ry="3" style="stroke:#038048;stroke-width:1;"/><text fill="#000000" font-family="sans-serif" font-size="14" font-style="italic" lengthAdjust="spacing" textLength="217.8271" x="1193" y="245.4795">GetParameterSetsByNameList(</text><text fill="#000000" font-family="sans-serif" font-size="14" font-style="italic" lengthAdjust="spacing" textLength="412.8291" x="1210.8008" y="261.7764">set_names : const amp::pmr::vector&lt;amp::string_view&gt;&amp;,</text><text fill="#000000" font-family="sans-serif" font-size="14" font-style="italic" lengthAdjust="spacing" textLength="542.2129" x="1210.8008" y="278.0732">timeout : const std::optional&lt;std::chrono::milliseconds&gt;) : ParameterSetMap</text><ellipse cx="1184" cy="291.0234" fill="#84BE84" rx="3" ry="3" style="stroke:#038048;stroke-width:1;"/><text fill="#000000" font-family="sans-serif" font-size="14" font-style="italic" lengthAdjust="spacing" textLength="556.2129" x="1193" y="294.3701">OnChangedNcdState(callback : NcdStateNotifierCallbackType&amp;&amp;) : ResultBlank</text><ellipse cx="1184" cy="323.6172" fill="#84BE84" rx="3" ry="3" style="stroke:#038048;stroke-width:1;"/><text fill="#000000" font-family="sans-serif" font-size="14" font-style="italic" lengthAdjust="spacing" textLength="184.2969" x="1193" y="310.667">OnChangedParameterSet(</text><text fill="#000000" font-family="sans-serif" font-size="14" font-style="italic" lengthAdjust="spacing" textLength="210.7451" x="1210.8008" y="326.9639">set_name : const std::string&amp;,</text><text fill="#000000" font-family="sans-serif" font-size="14" font-style="italic" lengthAdjust="spacing" textLength="433.0361" x="1210.8008" y="343.2607">callback : OnChangedParameterSetCallback&amp;&amp;) : ResultBlank</text><ellipse cx="1184" cy="372.5078" fill="#84BE84" rx="3" ry="3" style="stroke:#038048;stroke-width:1;"/><text fill="#000000" font-family="sans-serif" font-size="14" font-style="italic" lengthAdjust="spacing" textLength="211.0664" x="1193" y="359.5576">OnChangedParameterSetCbk(</text><text fill="#000000" font-family="sans-serif" font-size="14" font-style="italic" lengthAdjust="spacing" textLength="196.6973" x="1210.8008" y="375.8545">set_name : std::string_view,</text><text fill="#000000" font-family="sans-serif" font-size="14" font-style="italic" lengthAdjust="spacing" textLength="433.0361" x="1210.8008" y="392.1514">callback : OnChangedParameterSetCallback&amp;&amp;) : ResultBlank</text><ellipse cx="1184" cy="413.25" fill="#84BE84" rx="3" ry="3" style="stroke:#038048;stroke-width:1;"/><text fill="#000000" font-family="sans-serif" font-size="14" font-style="italic" lengthAdjust="spacing" textLength="165.6484" x="1193" y="408.4482">GetInitialQualifierState(</text><text fill="#000000" font-family="sans-serif" font-size="14" font-style="italic" lengthAdjust="spacing" textLength="551.4482" x="1210.8008" y="424.7451">timeout : const std::optional&lt;std::chrono::milliseconds&gt;) : InitialQualifierState</text><ellipse cx="1184" cy="453.9922" fill="#84BE84" rx="3" ry="3" style="stroke:#038048;stroke-width:1;"/><text fill="#000000" font-family="sans-serif" font-size="14" font-style="italic" lengthAdjust="spacing" textLength="145.0381" x="1193" y="441.042">WaitUntilConnected(</text><text fill="#000000" font-family="sans-serif" font-size="14" font-style="italic" lengthAdjust="spacing" textLength="290.2813" x="1210.8008" y="457.3389">timeout : const std::chrono::milliseconds,</text><text fill="#000000" font-family="sans-serif" font-size="14" font-style="italic" lengthAdjust="spacing" textLength="310.1943" x="1210.8008" y="473.6357">stop_token : const amp::stop_token&amp;) : bool</text><ellipse cx="1184" cy="486.5859" fill="#84BE84" rx="3" ry="3" style="stroke:#038048;stroke-width:1;"/><text fill="#000000" font-family="sans-serif" font-size="14" font-style="italic" lengthAdjust="spacing" textLength="304.999" x="1193" y="489.9326">CheckParameterSetUpdates() : ResultBlank</text><ellipse cx="1184" cy="502.8828" fill="#84BE84" rx="3" ry="3" style="stroke:#038048;stroke-width:1;"/><text fill="#000000" font-family="sans-serif" font-size="14" font-style="italic" lengthAdjust="spacing" textLength="317.9805" x="1193" y="506.2295">GetCachedParameterSetsCount() : std::size_t</text><ellipse cx="1184" cy="519.1797" fill="#84BE84" rx="3" ry="3" style="stroke:#038048;stroke-width:1;"/><text fill="#000000" font-family="sans-serif" font-size="14" font-style="italic" lengthAdjust="spacing" textLength="177.7207" x="1193" y="522.5264">GetNcdState() : NcdState</text><ellipse cx="1184" cy="543.625" fill="#84BE84" rx="3" ry="3" style="stroke:#038048;stroke-width:1;"/><text fill="#000000" font-family="sans-serif" font-size="14" font-style="italic" lengthAdjust="spacing" textLength="94.5273" x="1193" y="538.8232">GetNcdState(</text><text fill="#000000" font-family="sans-serif" font-size="14" font-style="italic" lengthAdjust="spacing" textLength="480.3271" x="1210.8008" y="555.1201">timeout : const std::optional&lt;std::chrono::milliseconds&gt;) : NcdState</text><line style="stroke:#181818;stroke-width:1;" x1="1174" x2="1967.8838" y1="562.4219" y2="562.4219"/><text fill="#000000" font-family="sans-serif" font-size="14" lengthAdjust="spacing" textLength="651.6904" x="1179" y="579.417">Responsibility: This class is repsonsible for providing ParameterSet's and InitialQualifierState</text></g><!--class ConfigProviderImpl--><g class="entity" data-entity="ConfigProviderImpl" data-source-line="38" data-uid="ent0004" id="entity_ConfigProviderImpl"><rect fill="#F1F1F1" height="797.6563" rx="2.5" ry="2.5" style="stroke:#181818;stroke-width:0.5;" width="795.8838" x="1173" y="647"/><ellipse cx="1499.8638" cy="663" fill="#ADD1B2" rx="11" ry="11" style="stroke:#181818;stroke-width:1;"/><path d="M1502.8325,668.6406 Q1502.2544,668.9375 1501.6138,669.0781 Q1500.9731,669.2344 1500.27,669.2344 Q1497.77,669.2344 1496.4419,667.5938 Q1495.1294,665.9375 1495.1294,662.8125 Q1495.1294,659.6875 1496.4419,658.0313 Q1497.77,656.375 1500.27,656.375 Q1500.9731,656.375 1501.6138,656.5313 Q1502.27,656.6875 1502.8325,656.9844 L1502.8325,659.7031 Q1502.2075,659.125 1501.6138,658.8594 Q1501.02,658.5781 1500.395,658.5781 Q1499.0513,658.5781 1498.3638,659.6563 Q1497.6763,660.7188 1497.6763,662.8125 Q1497.6763,664.9063 1498.3638,665.9844 Q1499.0513,667.0469 1500.395,667.0469 Q1501.02,667.0469 1501.6138,666.7813 Q1502.2075,666.5 1502.8325,665.9219 L1502.8325,668.6406 Z " fill="#000000"/><text fill="#000000" font-family="sans-serif" font-size="14" lengthAdjust="spacing" textLength="133.6563" x="1520.3638" y="667.8467">ConfigProviderImpl</text><line style="stroke:#181818;stroke-width:0.5;" x1="1174" x2="1967.8838" y1="679" y2="679"/><ellipse cx="1184" cy="700.7969" fill="#84BE84" rx="3" ry="3" style="stroke:#038048;stroke-width:1;"/><text fill="#000000" font-family="sans-serif" font-size="14" lengthAdjust="spacing" textLength="126.8682" x="1193" y="695.9951">GetParameterSet(</text><text fill="#000000" font-family="sans-serif" font-size="14" lengthAdjust="spacing" textLength="598.999" x="1210.8008" y="712.292">set_name : const amp::string_view) : Result&lt;std::shared_ptr&lt;const ParameterSet&gt;&gt;</text><ellipse cx="1184" cy="741.5391" fill="#84BE84" rx="3" ry="3" style="stroke:#038048;stroke-width:1;"/><text fill="#000000" font-family="sans-serif" font-size="14" lengthAdjust="spacing" textLength="126.8682" x="1193" y="728.5889">GetParameterSet(</text><text fill="#000000" font-family="sans-serif" font-size="14" lengthAdjust="spacing" textLength="248.5" x="1210.8008" y="744.8857">set_name : const amp::string_view,</text><text fill="#000000" font-family="sans-serif" font-size="14" lengthAdjust="spacing" textLength="752.083" x="1210.8008" y="761.1826">timeout : const std::optional&lt;std::chrono::milliseconds&gt;) : Result&lt;std::shared_ptr&lt;const ParameterSet&gt;&gt;</text><ellipse cx="1184" cy="790.4297" fill="#84BE84" rx="3" ry="3" style="stroke:#038048;stroke-width:1;"/><text fill="#000000" font-family="sans-serif" font-size="14" lengthAdjust="spacing" textLength="217.8271" x="1193" y="777.4795">GetParameterSetsByNameList(</text><text fill="#000000" font-family="sans-serif" font-size="14" lengthAdjust="spacing" textLength="412.8291" x="1210.8008" y="793.7764">set_names : const amp::pmr::vector&lt;amp::string_view&gt;&amp;,</text><text fill="#000000" font-family="sans-serif" font-size="14" lengthAdjust="spacing" textLength="542.2129" x="1210.8008" y="810.0732">timeout : const std::optional&lt;std::chrono::milliseconds&gt;) : ParameterSetMap</text><ellipse cx="1184" cy="823.0234" fill="#84BE84" rx="3" ry="3" style="stroke:#038048;stroke-width:1;"/><text fill="#000000" font-family="sans-serif" font-size="14" lengthAdjust="spacing" textLength="556.2129" x="1193" y="826.3701">OnChangedNcdState(callback : NcdStateNotifierCallbackType&amp;&amp;) : ResultBlank</text><ellipse cx="1184" cy="855.6172" fill="#84BE84" rx="3" ry="3" style="stroke:#038048;stroke-width:1;"/><text fill="#000000" font-family="sans-serif" font-size="14" lengthAdjust="spacing" textLength="184.2969" x="1193" y="842.667">OnChangedParameterSet(</text><text fill="#000000" font-family="sans-serif" font-size="14" lengthAdjust="spacing" textLength="210.7451" x="1210.8008" y="858.9639">set_name : const std::string&amp;,</text><text fill="#000000" font-family="sans-serif" font-size="14" lengthAdjust="spacing" textLength="433.0361" x="1210.8008" y="875.2607">callback : OnChangedParameterSetCallback&amp;&amp;) : ResultBlank</text><ellipse cx="1184" cy="904.5078" fill="#84BE84" rx="3" ry="3" style="stroke:#038048;stroke-width:1;"/><text fill="#000000" font-family="sans-serif" font-size="14" lengthAdjust="spacing" textLength="211.0664" x="1193" y="891.5576">OnChangedParameterSetCbk(</text><text fill="#000000" font-family="sans-serif" font-size="14" lengthAdjust="spacing" textLength="196.6973" x="1210.8008" y="907.8545">set_name : std::string_view,</text><text fill="#000000" font-family="sans-serif" font-size="14" lengthAdjust="spacing" textLength="433.0361" x="1210.8008" y="924.1514">callback : OnChangedParameterSetCallback&amp;&amp;) : ResultBlank</text><ellipse cx="1184" cy="945.25" fill="#84BE84" rx="3" ry="3" style="stroke:#038048;stroke-width:1;"/><text fill="#000000" font-family="sans-serif" font-size="14" lengthAdjust="spacing" textLength="165.6484" x="1193" y="940.4482">GetInitialQualifierState(</text><text fill="#000000" font-family="sans-serif" font-size="14" lengthAdjust="spacing" textLength="551.4482" x="1210.8008" y="956.7451">timeout : const std::optional&lt;std::chrono::milliseconds&gt;) : InitialQualifierState</text><ellipse cx="1184" cy="969.6953" fill="#84BE84" rx="3" ry="3" style="stroke:#038048;stroke-width:1;"/><text fill="#000000" font-family="sans-serif" font-size="14" lengthAdjust="spacing" textLength="304.999" x="1193" y="973.042">CheckParameterSetUpdates() : ResultBlank</text><ellipse cx="1184" cy="1002.2891" fill="#84BE84" rx="3" ry="3" style="stroke:#038048;stroke-width:1;"/><text fill="#000000" font-family="sans-serif" font-size="14" lengthAdjust="spacing" textLength="145.0381" x="1193" y="989.3389">WaitUntilConnected(</text><text fill="#000000" font-family="sans-serif" font-size="14" lengthAdjust="spacing" textLength="290.2813" x="1210.8008" y="1005.6357">timeout : const std::chrono::milliseconds,</text><text fill="#000000" font-family="sans-serif" font-size="14" lengthAdjust="spacing" textLength="310.1943" x="1210.8008" y="1021.9326">stop_token : const amp::stop_token&amp;) : bool</text><ellipse cx="1184" cy="1034.8828" fill="#84BE84" rx="3" ry="3" style="stroke:#038048;stroke-width:1;"/><text fill="#000000" font-family="sans-serif" font-size="14" lengthAdjust="spacing" textLength="317.9805" x="1193" y="1038.2295">GetCachedParameterSetsCount() : std::size_t</text><ellipse cx="1184" cy="1051.1797" fill="#84BE84" rx="3" ry="3" style="stroke:#038048;stroke-width:1;"/><text fill="#000000" font-family="sans-serif" font-size="14" lengthAdjust="spacing" textLength="245.0547" x="1193" y="1054.5264">IsAwaitingProxyConnection() : bool</text><ellipse cx="1184" cy="1124.5156" fill="#84BE84" rx="3" ry="3" style="stroke:#038048;stroke-width:1;"/><text fill="#000000" font-family="sans-serif" font-size="14" lengthAdjust="spacing" textLength="139.1182" x="1193" y="1070.8232">ConfigProviderImpl(</text><text fill="#000000" font-family="sans-serif" font-size="14" lengthAdjust="spacing" textLength="730.748" x="1210.8008" y="1087.1201">internal_config_provider_future : mw::service::ProxyFuture&lt;std::unique_ptr&lt;IInternalConfigProvider&gt;&gt;,</text><text fill="#000000" font-family="sans-serif" font-size="14" lengthAdjust="spacing" textLength="249.9082" x="1210.8008" y="1103.417">user_stop_token : amp::stop_token,</text><text fill="#000000" font-family="sans-serif" font-size="14" lengthAdjust="spacing" textLength="399.0137" x="1210.8008" y="1119.7139">memory_resource : amp::pmr::memory_resource* const,</text><text fill="#000000" font-family="sans-serif" font-size="14" lengthAdjust="spacing" textLength="343.0342" x="1210.8008" y="1136.0107">max_samples_limit : amp::optional&lt;std::size_t&gt;,</text><text fill="#000000" font-family="sans-serif" font-size="14" lengthAdjust="spacing" textLength="464.5293" x="1210.8008" y="1152.3076">polling_cycle_interval : amp::optional&lt;std::chrono::milliseconds&gt;,</text><text fill="#000000" font-family="sans-serif" font-size="14" lengthAdjust="spacing" textLength="290.7393" x="1210.8008" y="1168.6045">callback : IsAvailableNotificationCallback,</text><text fill="#000000" font-family="sans-serif" font-size="14" lengthAdjust="spacing" textLength="356.8701" x="1210.8008" y="1184.9014">persistency : amp::pmr::unique_ptr&lt;Persistency&gt;)</text><ellipse cx="1184" cy="1197.8516" fill="#84BE84" rx="3" ry="3" style="stroke:#038048;stroke-width:1;"/><text fill="#000000" font-family="sans-serif" font-size="14" lengthAdjust="spacing" textLength="177.7207" x="1193" y="1201.1982">GetNcdState() : NcdState</text><ellipse cx="1184" cy="1214.1484" fill="#84BE84" rx="3" ry="3" style="stroke:#038048;stroke-width:1;"/><text fill="#000000" font-family="sans-serif" font-size="14" lengthAdjust="spacing" textLength="574.8545" x="1193" y="1217.4951">GetNcdState(timeout : const std::optional&lt;std::chrono::milliseconds&gt;) : NcdState</text><line style="stroke:#181818;stroke-width:1;" x1="1174" x2="1967.8838" y1="1224.7969" y2="1224.7969"/><rect fill="none" height="6" style="stroke:#C82930;stroke-width:1;" width="6" x="1181" y="1235.4453"/><text fill="#000000" font-family="sans-serif" font-size="14" lengthAdjust="spacing" textLength="189.9365" x="1193" y="1241.792">logger_ : mw::log::Logger&amp;</text><rect fill="none" height="6" style="stroke:#C82930;stroke-width:1;" width="6" x="1181" y="1251.7422"/><text fill="#000000" font-family="sans-serif" font-size="14" lengthAdjust="spacing" textLength="233.2285" x="1193" y="1258.0889">parameter_sets_ : ParameterMap</text><rect fill="none" height="6" style="stroke:#C82930;stroke-width:1;" width="6" x="1181" y="1268.0391"/><text fill="#000000" font-family="sans-serif" font-size="14" lengthAdjust="spacing" textLength="301.123" x="1193" y="1274.3857">initial_qualifier_state_ : InitialQualifierState</text><rect fill="none" height="6" style="stroke:#C82930;stroke-width:1;" width="6" x="1181" y="1284.3359"/><text fill="#000000" font-family="sans-serif" font-size="14" lengthAdjust="spacing" textLength="401.5635" x="1193" y="1290.6826">memory_resource_ : amp::pmr::memory_resource* const</text><rect fill="none" height="6" style="stroke:#C82930;stroke-width:1;" width="6" x="1181" y="1300.6328"/><text fill="#000000" font-family="sans-serif" font-size="14" lengthAdjust="spacing" textLength="481.2021" x="1193" y="1306.9795">internal_config_provider_ : std::shared_ptr&lt;IInternalConfigProvider&gt;</text><rect fill="none" height="6" style="stroke:#C82930;stroke-width:1;" width="6" x="1181" y="1316.9297"/><text fill="#000000" font-family="sans-serif" font-size="14" lengthAdjust="spacing" textLength="141.5176" x="1193" y="1323.2764">mutex_ : std::mutex</text><rect fill="none" height="6" style="stroke:#C82930;stroke-width:1;" width="6" x="1181" y="1333.2266"/><text fill="#000000" font-family="sans-serif" font-size="14" lengthAdjust="spacing" textLength="533.3535" x="1193" y="1339.5732">internal_config_provider_cv_ : concurrency::InterruptibleConditionalVariable</text><rect fill="none" height="6" style="stroke:#C82930;stroke-width:1;" width="6" x="1181" y="1349.5234"/><text fill="#000000" font-family="sans-serif" font-size="14" lengthAdjust="spacing" textLength="358.4082" x="1193" y="1355.8701">persistency_ : amp::pmr::unique_ptr&lt;Persistency&gt;</text><rect fill="none" height="6" style="stroke:#C82930;stroke-width:1;" width="6" x="1181" y="1365.8203"/><text fill="#000000" font-family="sans-serif" font-size="14" lengthAdjust="spacing" textLength="259.3281" x="1193" y="1372.167">client_handlers_ : ClientHandlersMap</text><rect fill="none" height="6" style="stroke:#C82930;stroke-width:1;" width="6" x="1181" y="1382.1172"/><text fill="#000000" font-family="sans-serif" font-size="14" lengthAdjust="spacing" textLength="345.584" x="1193" y="1388.4639">max_samples_limit_ : amp::optional&lt;std::size_t&gt;</text><rect fill="none" height="6" style="stroke:#C82930;stroke-width:1;" width="6" x="1181" y="1398.4141"/><text fill="#000000" font-family="sans-serif" font-size="14" lengthAdjust="spacing" textLength="467.0791" x="1193" y="1404.7607">polling_cycle_interval_ : amp::optional&lt;std::chrono::milliseconds&gt;</text><rect fill="none" height="6" style="stroke:#C82930;stroke-width:1;" width="6" x="1181" y="1414.7109"/><text fill="#000000" font-family="sans-serif" font-size="14" lengthAdjust="spacing" textLength="395.1445" x="1193" y="1421.0576">proxy_available_thread_ : amp::optional&lt;amp::jthread&gt;</text><rect fill="none" height="6" style="stroke:#C82930;stroke-width:1;" width="6" x="1181" y="1431.0078"/><text fill="#000000" font-family="sans-serif" font-size="14" lengthAdjust="spacing" textLength="371.0137" x="1193" y="1437.3545">stop_callback_ : amp::optional&lt;amp::stop_callback&gt;</text></g><!--class InitialQualifierState--><g class="entity" data-entity="InitialQualifierState" data-source-line="17" data-uid="ent0006" id="entity_InitialQualifierState"><rect fill="#F1F1F1" height="145.7813" rx="2.5" ry="2.5" style="stroke:#181818;stroke-width:0.5;" width="167.2354" x="970.5" y="278"/><ellipse cx="985.5" cy="294" fill="#EB937F" rx="11" ry="11" style="stroke:#181818;stroke-width:1;"/><path d="M989.6094,300 L981.8906,300 L981.8906,287.6094 L989.6094,287.6094 L989.6094,289.7656 L984.3438,289.7656 L984.3438,292.4375 L989.1094,292.4375 L989.1094,294.5938 L984.3438,294.5938 L984.3438,297.8438 L989.6094,297.8438 L989.6094,300 Z " fill="#000000"/><text fill="#000000" font-family="sans-serif" font-size="14" lengthAdjust="spacing" textLength="135.2354" x="999.5" y="298.8467">InitialQualifierState</text><line style="stroke:#181818;stroke-width:0.5;" x1="971.5" x2="1136.7354" y1="310" y2="310"/><text fill="#000000" font-family="sans-serif" font-size="14" lengthAdjust="spacing" textLength="84.3691" x="976.5" y="326.9951">kUndefined,</text><text fill="#000000" font-family="sans-serif" font-size="14" lengthAdjust="spacing" textLength="86.167" x="976.5" y="343.292">kInProgress,</text><text fill="#000000" font-family="sans-serif" font-size="14" lengthAdjust="spacing" textLength="63.7109" x="976.5" y="359.5889">kDefault,</text><text fill="#000000" font-family="sans-serif" font-size="14" lengthAdjust="spacing" textLength="83.6719" x="976.5" y="375.8857">kQualifying,</text><text fill="#000000" font-family="sans-serif" font-size="14" lengthAdjust="spacing" textLength="92.1143" x="976.5" y="392.1826">kUnqualified,</text><text fill="#000000" font-family="sans-serif" font-size="14" lengthAdjust="spacing" textLength="70.6768" x="976.5" y="408.4795">kQualified</text><line style="stroke:#181818;stroke-width:0.5;" x1="971.5" x2="1136.7354" y1="415.7813" y2="415.7813"/></g><!--class ParameterSet--><g class="entity" data-entity="ParameterSet" data-source-line="4" data-uid="ent0007" id="entity_ParameterSet"><rect fill="#F1F1F1" height="333.0469" rx="2.5" ry="2.5" style="stroke:#181818;stroke-width:0.5;" width="913.8584" x="22" y="184.5"/><ellipse cx="426.4517" cy="200.5" fill="#ADD1B2" rx="11" ry="11" style="stroke:#181818;stroke-width:1;"/><path d="M429.4204,206.1406 Q428.8423,206.4375 428.2017,206.5781 Q427.561,206.7344 426.8579,206.7344 Q424.3579,206.7344 423.0298,205.0938 Q421.7173,203.4375 421.7173,200.3125 Q421.7173,197.1875 423.0298,195.5313 Q424.3579,193.875 426.8579,193.875 Q427.561,193.875 428.2017,194.0313 Q428.8579,194.1875 429.4204,194.4844 L429.4204,197.2031 Q428.7954,196.625 428.2017,196.3594 Q427.6079,196.0781 426.9829,196.0781 Q425.6392,196.0781 424.9517,197.1563 Q424.2642,198.2188 424.2642,200.3125 Q424.2642,202.4063 424.9517,203.4844 Q425.6392,204.5469 426.9829,204.5469 Q427.6079,204.5469 428.2017,204.2813 Q428.7954,204 429.4204,203.4219 L429.4204,206.1406 Z " fill="#000000"/><text fill="#000000" font-family="sans-serif" font-size="14" lengthAdjust="spacing" textLength="96.4551" x="446.9517" y="205.3467">ParameterSet</text><line style="stroke:#181818;stroke-width:0.5;" x1="23" x2="934.8584" y1="216.5" y2="216.5"/><ellipse cx="33" cy="238.2969" fill="#84BE84" rx="3" ry="3" style="stroke:#038048;stroke-width:1;"/><text fill="#000000" font-family="sans-serif" font-size="14" lengthAdjust="spacing" textLength="285.2021" x="42" y="233.4951">ParameterSet(set_json : bmw::json::Any,</text><text fill="#000000" font-family="sans-serif" font-size="14" lengthAdjust="spacing" textLength="400.0254" x="64.251" y="249.792">memory_resource : amp::pmr::memory_resource* const)</text><ellipse cx="33" cy="262.7422" fill="#84BE84" rx="3" ry="3" style="stroke:#038048;stroke-width:1;"/><text fill="#000000" font-family="sans-serif" font-size="14" lengthAdjust="spacing" textLength="526.6611" x="42" y="266.0889">ContainsSameContent(target_parameter_set : const ParameterSet&amp;) : bool</text><ellipse cx="33" cy="279.0391" fill="#84BE84" rx="3" ry="3" style="stroke:#038048;stroke-width:1;"/><text fill="#000000" font-family="sans-serif" font-size="14" lengthAdjust="spacing" textLength="604.584" x="42" y="282.3857">GetQualifier() : bmw::Result&lt;bmw::platform::config_daemon::ParameterSetQualifier&gt;</text><ellipse cx="33" cy="295.3359" fill="#84BE84" rx="3" ry="3" style="stroke:#038048;stroke-width:1;"/><text fill="#000000" font-family="sans-serif" font-size="14" lengthAdjust="spacing" textLength="566.6172" x="42" y="298.6826">GetParameterAs(parameter_name : const amp::string_view&amp;) : bmw::Result&lt;T&gt;</text><ellipse cx="33" cy="319.7813" fill="#84BE84" rx="3" ry="3" style="stroke:#038048;stroke-width:1;"/><text fill="#000000" font-family="sans-serif" font-size="14" lengthAdjust="spacing" textLength="120.75" x="42" y="314.9795">GetParameterAs(</text><text fill="#000000" font-family="sans-serif" font-size="14" lengthAdjust="spacing" textLength="668.6572" x="59.8008" y="331.2764">parameter_name : const amp::string_view&amp;) : bmw::Result&lt;Array&lt;typename T::value_type&gt;&gt;</text><ellipse cx="33" cy="352.375" fill="#84BE84" rx="3" ry="3" style="stroke:#038048;stroke-width:1;"/><text fill="#000000" font-family="sans-serif" font-size="14" lengthAdjust="spacing" textLength="120.75" x="42" y="347.5732">GetParameterAs(</text><text fill="#000000" font-family="sans-serif" font-size="14" lengthAdjust="spacing" textLength="870.0576" x="59.8008" y="363.8701">parameter_name : const amp::string_view&amp;) : bmw::Result&lt;TwoDimensionalArray&lt;typename T::value_type::value_type&gt;&gt;</text><ellipse cx="33" cy="376.8203" fill="#84BE84" rx="3" ry="3" style="stroke:#038048;stroke-width:1;"/><text fill="#000000" font-family="sans-serif" font-size="14" lengthAdjust="spacing" textLength="373.1123" x="42" y="380.167">FormatAsKeyValuePairs() : bmw::Result&lt;std::string&gt;</text><ellipse cx="33" cy="393.1172" fill="#84BE84" rx="3" ry="3" style="stroke:#038048;stroke-width:1;"/><text fill="#000000" font-family="sans-serif" font-size="14" lengthAdjust="spacing" textLength="370.9521" x="42" y="396.4639">GetParametersAsString() : bmw::Result&lt;std::string&gt;</text><ellipse cx="33" cy="417.5625" fill="#84BE84" rx="3" ry="3" style="stroke:#038048;stroke-width:1;"/><text fill="#000000" font-family="sans-serif" font-size="14" lengthAdjust="spacing" textLength="176.3467" x="42" y="412.7607">GetParameterAsJsonAny(</text><text fill="#000000" font-family="sans-serif" font-size="14" lengthAdjust="spacing" textLength="688.0234" x="59.8008" y="429.0576">parameter_name : const amp::string_view&amp;) : Result&lt;std::reference_wrapper&lt;const json::Any&gt;&gt;</text><line style="stroke:#181818;stroke-width:1;" x1="23" x2="934.8584" y1="436.3594" y2="436.3594"/><rect fill="none" height="6" style="stroke:#C82930;stroke-width:1;" width="6" x="30" y="447.0078"/><text fill="#000000" font-family="sans-serif" font-size="14" lengthAdjust="spacing" textLength="189.9365" x="42" y="453.3545">logger_ : mw::log::Logger&amp;</text><rect fill="none" height="6" style="stroke:#C82930;stroke-width:1;" width="6" x="30" y="463.3047"/><text fill="#000000" font-family="sans-serif" font-size="14" lengthAdjust="spacing" textLength="185.835" x="42" y="469.6514">set_json_ : bmw::json::Any</text><rect fill="none" height="6" style="stroke:#C82930;stroke-width:1;" width="6" x="30" y="479.6016"/><text fill="#000000" font-family="sans-serif" font-size="14" lengthAdjust="spacing" textLength="401.5635" x="42" y="485.9482">memory_resource_ : amp::pmr::memory_resource* const</text><line style="stroke:#181818;stroke-width:1;" x1="23" x2="934.8584" y1="493.25" y2="493.25"/><text fill="#000000" font-family="sans-serif" font-size="14" lengthAdjust="spacing" textLength="477.0459" x="28" y="510.2451">Responsibility: This class is responsible for storing Parameter's data</text></g><!--class Persistency--><g class="entity" data-entity="Persistency" data-source-line="4" data-uid="ent0008" id="entity_Persistency"><rect fill="#F1F1F1" height="227.2656" rx="2.5" ry="2.5" style="stroke:#181818;stroke-width:0.5;" width="742.8369" x="1199.5" y="1505"/><ellipse cx="1526.5449" cy="1521" fill="#A9DCDF" rx="11" ry="11" style="stroke:#181818;stroke-width:1;"/><path d="M1526.6543,1516.3438 L1525.498,1521.4219 L1527.8262,1521.4219 L1526.6543,1516.3438 Z M1525.1699,1514.1094 L1528.1543,1514.1094 L1531.5137,1526.5 L1529.0605,1526.5 L1528.2949,1523.4375 L1525.0137,1523.4375 L1524.2637,1526.5 L1521.8262,1526.5 L1525.1699,1514.1094 Z " fill="#000000"/><text fill="#000000" font-family="sans-serif" font-size="14" font-style="italic" lengthAdjust="spacing" textLength="80.2471" x="1547.0449" y="1525.8467">Persistency</text><line style="stroke:#181818;stroke-width:0.5;" x1="1200.5" x2="1941.3369" y1="1537" y2="1537"/><ellipse cx="1210.5" cy="1575.0938" fill="#84BE84" rx="3" ry="3" style="stroke:#038048;stroke-width:1;"/><text fill="#000000" font-family="sans-serif" font-size="14" font-style="italic" lengthAdjust="spacing" textLength="197.4424" x="1219.5" y="1553.9951">ReadCachedParameterSets(</text><text fill="#000000" font-family="sans-serif" font-size="14" font-style="italic" lengthAdjust="spacing" textLength="298.9424" x="1237.3008" y="1570.292">cached_parameter_sets : ParameterMap&amp;,</text><text fill="#000000" font-family="sans-serif" font-size="14" font-style="italic" lengthAdjust="spacing" textLength="356.6445" x="1237.3008" y="1586.5889">memory_resource : amp::pmr::memory_resource*,</text><text fill="#000000" font-family="sans-serif" font-size="14" font-style="italic" lengthAdjust="spacing" textLength="463.7979" x="1237.3008" y="1602.8857">filesystem : std::unique_ptr&lt;bmw::filesystem::Filesystem&gt;) : void</text><ellipse cx="1210.5" cy="1648.4297" fill="#84BE84" rx="3" ry="3" style="stroke:#038048;stroke-width:1;"/><text fill="#000000" font-family="sans-serif" font-size="14" font-style="italic" lengthAdjust="spacing" textLength="145.4551" x="1219.5" y="1619.1826">CacheParameterSet(</text><text fill="#000000" font-family="sans-serif" font-size="14" font-style="italic" lengthAdjust="spacing" textLength="341.3115" x="1237.3008" y="1635.4795">cached_parameter_sets : const ParameterMap&amp;,</text><text fill="#000000" font-family="sans-serif" font-size="14" font-style="italic" lengthAdjust="spacing" textLength="284.7168" x="1237.3008" y="1651.7764">param_set_key : const amp::pmr::string,</text><text fill="#000000" font-family="sans-serif" font-size="14" font-style="italic" lengthAdjust="spacing" textLength="431.2656" x="1237.3008" y="1668.0732">parameter_set : const std::shared_ptr&lt;const ParameterSet&gt;,</text><text fill="#000000" font-family="sans-serif" font-size="14" font-style="italic" lengthAdjust="spacing" textLength="205.6182" x="1237.3008" y="1684.3701">sync_to_storage : bool) : void</text><ellipse cx="1210.5" cy="1697.3203" fill="#84BE84" rx="3" ry="3" style="stroke:#038048;stroke-width:1;"/><text fill="#000000" font-family="sans-serif" font-size="14" font-style="italic" lengthAdjust="spacing" textLength="159.8037" x="1219.5" y="1700.667">SyncToStorage() : void</text><line style="stroke:#181818;stroke-width:1;" x1="1200.5" x2="1941.3369" y1="1707.9688" y2="1707.9688"/><text fill="#000000" font-family="sans-serif" font-size="14" lengthAdjust="spacing" textLength="730.8369" x="1205.5" y="1724.9639">Responsibilities: This class is responsible for reading and writing the ParameterSet to persistent storage</text></g><!--class PersistencyImpl--><g class="entity" data-entity="PersistencyImpl" data-source-line="23" data-uid="ent0009" id="entity_PersistencyImpl"><rect fill="#F1F1F1" height="276.1563" rx="2.5" ry="2.5" style="stroke:#181818;stroke-width:0.5;" width="726.5674" x="626.5" y="1792"/><ellipse cx="930.1387" cy="1808" fill="#ADD1B2" rx="11" ry="11" style="stroke:#181818;stroke-width:1;"/><path d="M933.1074,1813.6406 Q932.5293,1813.9375 931.8887,1814.0781 Q931.248,1814.2344 930.5449,1814.2344 Q928.0449,1814.2344 926.7168,1812.5938 Q925.4043,1810.9375 925.4043,1807.8125 Q925.4043,1804.6875 926.7168,1803.0313 Q928.0449,1801.375 930.5449,1801.375 Q931.248,1801.375 931.8887,1801.5313 Q932.5449,1801.6875 933.1074,1801.9844 L933.1074,1804.7031 Q932.4824,1804.125 931.8887,1803.8594 Q931.2949,1803.5781 930.6699,1803.5781 Q929.3262,1803.5781 928.6387,1804.6563 Q927.9512,1805.7188 927.9512,1807.8125 Q927.9512,1809.9063 928.6387,1810.9844 Q929.3262,1812.0469 930.6699,1812.0469 Q931.2949,1812.0469 931.8887,1811.7813 Q932.4824,1811.5 933.1074,1810.9219 L933.1074,1813.6406 Z " fill="#000000"/><text fill="#000000" font-family="sans-serif" font-size="14" lengthAdjust="spacing" textLength="110.79" x="950.6387" y="1812.8467">PersistencyImpl</text><line style="stroke:#181818;stroke-width:0.5;" x1="627.5" x2="1352.0674" y1="1824" y2="1824"/><ellipse cx="637.5" cy="1845.7969" fill="#84BE84" rx="3" ry="3" style="stroke:#038048;stroke-width:1;"/><text fill="#000000" font-family="sans-serif" font-size="14" lengthAdjust="spacing" textLength="294.4375" x="646.5" y="1840.9951">PersistencyImpl&lt;KeyValueStorageType&gt;(</text><text fill="#000000" font-family="sans-serif" font-size="14" lengthAdjust="spacing" textLength="682.7666" x="664.3008" y="1857.292">handle : amp::pmr::unique_ptr&lt;bmw::mw::storage::KeyValueStorage&lt;KeyValueStorageType&gt;&gt;)</text><ellipse cx="637.5" cy="1894.6875" fill="#84BE84" rx="3" ry="3" style="stroke:#038048;stroke-width:1;"/><text fill="#000000" font-family="sans-serif" font-size="14" lengthAdjust="spacing" textLength="197.4424" x="646.5" y="1873.5889">ReadCachedParameterSets(</text><text fill="#000000" font-family="sans-serif" font-size="14" lengthAdjust="spacing" textLength="298.9424" x="664.3008" y="1889.8857">cached_parameter_sets : ParameterMap&amp;,</text><text fill="#000000" font-family="sans-serif" font-size="14" lengthAdjust="spacing" textLength="356.6445" x="664.3008" y="1906.1826">memory_resource : amp::pmr::memory_resource*,</text><text fill="#000000" font-family="sans-serif" font-size="14" lengthAdjust="spacing" textLength="463.7979" x="664.3008" y="1922.4795">filesystem : std::unique_ptr&lt;bmw::filesystem::Filesystem&gt;) : void</text><ellipse cx="637.5" cy="1968.0234" fill="#84BE84" rx="3" ry="3" style="stroke:#038048;stroke-width:1;"/><text fill="#000000" font-family="sans-serif" font-size="14" lengthAdjust="spacing" textLength="145.4551" x="646.5" y="1938.7764">CacheParameterSet(</text><text fill="#000000" font-family="sans-serif" font-size="14" lengthAdjust="spacing" textLength="341.3115" x="664.3008" y="1955.0732">cached_parameter_sets : const ParameterMap&amp;,</text><text fill="#000000" font-family="sans-serif" font-size="14" lengthAdjust="spacing" textLength="284.7168" x="664.3008" y="1971.3701">param_set_key : const amp::pmr::string,</text><text fill="#000000" font-family="sans-serif" font-size="14" lengthAdjust="spacing" textLength="431.2656" x="664.3008" y="1987.667">parameter_set : const std::shared_ptr&lt;const ParameterSet&gt;,</text><text fill="#000000" font-family="sans-serif" font-size="14" lengthAdjust="spacing" textLength="205.6182" x="664.3008" y="2003.9639">sync_to_storage : bool) : void</text><ellipse cx="637.5" cy="2016.9141" fill="#84BE84" rx="3" ry="3" style="stroke:#038048;stroke-width:1;"/><text fill="#000000" font-family="sans-serif" font-size="14" lengthAdjust="spacing" textLength="159.8037" x="646.5" y="2020.2607">SyncToStorage() : void</text><line style="stroke:#181818;stroke-width:1;" x1="627.5" x2="1352.0674" y1="2027.5625" y2="2027.5625"/><rect fill="none" height="6" style="stroke:#C82930;stroke-width:1;" width="6" x="634.5" y="2038.2109"/><text fill="#000000" font-family="sans-serif" font-size="14" lengthAdjust="spacing" textLength="660.2764" x="646.5" y="2044.5576">kvs_ : amp::pmr::unique_ptr&lt;bmw::mw::storage::KeyValueStorage&lt;KeyValueStorageType&gt;&gt;</text><rect fill="none" height="6" style="stroke:#C82930;stroke-width:1;" width="6" x="634.5" y="2054.5078"/><text fill="#000000" font-family="sans-serif" font-size="14" lengthAdjust="spacing" textLength="189.9365" x="646.5" y="2060.8545">logger_ : mw::log::Logger&amp;</text></g><!--class PersistencyEmpty--><g class="entity" data-entity="PersistencyEmpty" data-source-line="48" data-uid="ent0011" id="entity_PersistencyEmpty"><rect fill="#F1F1F1" height="227.2656" rx="2.5" ry="2.5" style="stroke:#181818;stroke-width:0.5;" width="507.5986" x="1389" y="1816.5"/><ellipse cx="1575.8535" cy="1832.5" fill="#ADD1B2" rx="11" ry="11" style="stroke:#181818;stroke-width:1;"/><path d="M1578.8223,1838.1406 Q1578.2441,1838.4375 1577.6035,1838.5781 Q1576.9629,1838.7344 1576.2598,1838.7344 Q1573.7598,1838.7344 1572.4316,1837.0938 Q1571.1191,1835.4375 1571.1191,1832.3125 Q1571.1191,1829.1875 1572.4316,1827.5313 Q1573.7598,1825.875 1576.2598,1825.875 Q1576.9629,1825.875 1577.6035,1826.0313 Q1578.2598,1826.1875 1578.8223,1826.4844 L1578.8223,1829.2031 Q1578.1973,1828.625 1577.6035,1828.3594 Q1577.0098,1828.0781 1576.3848,1828.0781 Q1575.041,1828.0781 1574.3535,1829.1563 Q1573.666,1830.2188 1573.666,1832.3125 Q1573.666,1834.4063 1574.3535,1835.4844 Q1575.041,1836.5469 1576.3848,1836.5469 Q1577.0098,1836.5469 1577.6035,1836.2813 Q1578.1973,1836 1578.8223,1835.4219 L1578.8223,1838.1406 Z " fill="#000000"/><text fill="#000000" font-family="sans-serif" font-size="14" lengthAdjust="spacing" textLength="125.3916" x="1596.3535" y="1837.3467">PersistencyEmpty</text><line style="stroke:#181818;stroke-width:0.5;" x1="1390" x2="1895.5986" y1="1848.5" y2="1848.5"/><ellipse cx="1400" cy="1886.5938" fill="#84BE84" rx="3" ry="3" style="stroke:#038048;stroke-width:1;"/><text fill="#000000" font-family="sans-serif" font-size="14" lengthAdjust="spacing" textLength="197.4424" x="1409" y="1865.4951">ReadCachedParameterSets(</text><text fill="#000000" font-family="sans-serif" font-size="14" lengthAdjust="spacing" textLength="298.9424" x="1426.8008" y="1881.792">cached_parameter_sets : ParameterMap&amp;,</text><text fill="#000000" font-family="sans-serif" font-size="14" lengthAdjust="spacing" textLength="356.6445" x="1426.8008" y="1898.0889">memory_resource : amp::pmr::memory_resource*,</text><text fill="#000000" font-family="sans-serif" font-size="14" lengthAdjust="spacing" textLength="463.7979" x="1426.8008" y="1914.3857">filesystem : std::unique_ptr&lt;bmw::filesystem::Filesystem&gt;) : void</text><ellipse cx="1400" cy="1959.9297" fill="#84BE84" rx="3" ry="3" style="stroke:#038048;stroke-width:1;"/><text fill="#000000" font-family="sans-serif" font-size="14" lengthAdjust="spacing" textLength="145.4551" x="1409" y="1930.6826">CacheParameterSet(</text><text fill="#000000" font-family="sans-serif" font-size="14" lengthAdjust="spacing" textLength="341.3115" x="1426.8008" y="1946.9795">cached_parameter_sets : const ParameterMap&amp;,</text><text fill="#000000" font-family="sans-serif" font-size="14" lengthAdjust="spacing" textLength="284.7168" x="1426.8008" y="1963.2764">param_set_key : const amp::pmr::string,</text><text fill="#000000" font-family="sans-serif" font-size="14" lengthAdjust="spacing" textLength="431.2656" x="1426.8008" y="1979.5732">parameter_set : const std::shared_ptr&lt;const ParameterSet&gt;,</text><text fill="#000000" font-family="sans-serif" font-size="14" lengthAdjust="spacing" textLength="205.6182" x="1426.8008" y="1995.8701">sync_to_storage : bool) : void</text><ellipse cx="1400" cy="2008.8203" fill="#84BE84" rx="3" ry="3" style="stroke:#038048;stroke-width:1;"/><text fill="#000000" font-family="sans-serif" font-size="14" lengthAdjust="spacing" textLength="159.8037" x="1409" y="2012.167">SyncToStorage() : void</text><line style="stroke:#181818;stroke-width:1;" x1="1390" x2="1895.5986" y1="2019.4688" y2="2019.4688"/><rect fill="none" height="6" style="stroke:#C82930;stroke-width:1;" width="6" x="1397" y="2030.1172"/><text fill="#000000" font-family="sans-serif" font-size="14" lengthAdjust="spacing" textLength="189.9365" x="1409" y="2036.4639">logger_ : mw::log::Logger&amp;</text></g><!--class Adaptive_Application--><g class="entity" data-entity="Adaptive_Application" data-source-line="11" data-uid="ent0013" id="entity_Adaptive_Application"><rect fill="#F1F1F1" height="48" rx="2.5" ry="2.5" style="stroke:#181818;stroke-width:0.5;" width="179.4307" x="1481.5" y="7"/><ellipse cx="1496.5" cy="23" fill="#ADD1B2" rx="11" ry="11" style="stroke:#181818;stroke-width:1;"/><path d="M1499.4688,28.6406 Q1498.8906,28.9375 1498.25,29.0781 Q1497.6094,29.2344 1496.9063,29.2344 Q1494.4063,29.2344 1493.0781,27.5938 Q1491.7656,25.9375 1491.7656,22.8125 Q1491.7656,19.6875 1493.0781,18.0313 Q1494.4063,16.375 1496.9063,16.375 Q1497.6094,16.375 1498.25,16.5313 Q1498.9063,16.6875 1499.4688,16.9844 L1499.4688,19.7031 Q1498.8438,19.125 1498.25,18.8594 Q1497.6563,18.5781 1497.0313,18.5781 Q1495.6875,18.5781 1495,19.6563 Q1494.3125,20.7188 1494.3125,22.8125 Q1494.3125,24.9063 1495,25.9844 Q1495.6875,27.0469 1497.0313,27.0469 Q1497.6563,27.0469 1498.25,26.7813 Q1498.8438,26.5 1499.4688,25.9219 L1499.4688,28.6406 Z " fill="#000000"/><text fill="#000000" font-family="sans-serif" font-size="14" lengthAdjust="spacing" textLength="147.4307" x="1510.5" y="27.8467">Adaptive_Application</text><line style="stroke:#181818;stroke-width:0.5;" x1="1482.5" x2="1659.9307" y1="39" y2="39"/><line style="stroke:#181818;stroke-width:0.5;" x1="1482.5" x2="1659.9307" y1="47" y2="47"/></g><!--reverse link ConfigProvider to ConfigProviderImpl--><g class="link" data-entity-1="ConfigProvider" data-entity-2="ConfigProviderImpl" data-source-line="89" data-uid="lnk5" id="link_ConfigProvider_ConfigProviderImpl"><path codeLine="89" d="M1571,605.1 C1571,624.63 1571,626.69 1571,646.98" fill="none" id="ConfigProvider-backto-ConfigProviderImpl" style="stroke:#181818;stroke-width:1;"/><polygon fill="none" points="1571,587.1,1565,605.1,1577,605.1,1571,587.1" style="stroke:#181818;stroke-width:1;"/></g><!--reverse link Persistency to PersistencyImpl--><g class="link" data-entity-1="Persistency" data-entity-2="PersistencyImpl" data-source-line="42" data-uid="lnk10" id="link_Persistency_PersistencyImpl"><path codeLine="42" d="M1343.7146,1740.5749 C1307.2146,1760.0249 1284.8,1771.96 1247.24,1791.97" fill="none" id="Persistency-backto-PersistencyImpl" style="stroke:#181818;stroke-width:1;"/><polygon fill="none" points="1359.6,1732.11,1340.893,1735.2798,1346.5363,1745.8701,1359.6,1732.11" style="stroke:#181818;stroke-width:1;"/></g><!--reverse link Persistency to PersistencyEmpty--><g class="link" data-entity-1="Persistency" data-entity-2="PersistencyEmpty" data-source-line="64" data-uid="lnk12" id="link_Persistency_PersistencyEmpty"><path codeLine="64" d="M1601.2768,1749.6422 C1607.6668,1777.1222 1610.43,1788.99 1616.82,1816.47" fill="none" id="Persistency-backto-PersistencyEmpty" style="stroke:#181818;stroke-width:1;"/><polygon fill="none" points="1597.2,1732.11,1595.4327,1751.0012,1607.1209,1748.2833,1597.2,1732.11" style="stroke:#181818;stroke-width:1;"/></g><!--reverse link Adaptive_Application to ConfigProvider--><g class="link" data-entity-1="Adaptive_Application" data-entity-2="ConfigProvider" data-source-line="11" data-uid="lnk14" id="link_Adaptive_Application_ConfigProvider"><path codeLine="11" d="M1571,67.13 C1571,81.99 1571,90.98 1571,115" fill="none" id="Adaptive_Application-backto-ConfigProvider" style="stroke:#181818;stroke-width:1;"/><polygon fill="#181818" points="1571,55.13,1567,61.13,1571,67.13,1575,61.13,1571,55.13" style="stroke:#181818;stroke-width:1;"/></g><!--reverse link ConfigProviderImpl to Persistency--><g class="link" data-entity-1="ConfigProviderImpl" data-entity-2="Persistency" data-source-line="12" data-uid="lnk15" id="link_ConfigProviderImpl_Persistency"><path codeLine="12" d="M1571,1457.17 C1571,1478.26 1571,1486.38 1571,1504.93" fill="none" id="ConfigProviderImpl-backto-Persistency" style="stroke:#181818;stroke-width:1;"/><polygon fill="#181818" points="1571,1445.17,1567,1451.17,1571,1457.17,1575,1451.17,1571,1445.17" style="stroke:#181818;stroke-width:1;"/></g><!--SRC=[hP512eCm44NtdaAt1UqPf7JXpk81GfgCPI368PbOl7rjjTHQB4Axc__vys3c9sYL2HfyECTPjfVU0_kzQcsD5q6kxL23M-gCGcEImyCi9ozA_aKg6Z8RQLPfuLao2Eu9_4WhB39ASmhIO8tWgdjW1KZIoGOOd1ZaknfXvTEgWACr23YFdi6gVZvFW9Vnu_gNlsn571lYFefoBOcn0v4J6LIIiRNnBjNjrQRnejRFRePa6i_FkW40]--></g></svg>