<svg xmlns="http://www.w3.org/2000/svg" xmlns:xlink="http://www.w3.org/1999/xlink" contentStyleType="text/css" data-diagram-type="SEQUENCE" height="832px" preserveAspectRatio="none" style="width:1392px;height:832px;background:#FFFFFF;" version="1.1" viewBox="0 0 1392 832" width="1392px" zoomAndPan="magnify"><title>ConfigDaemon InternalConfigProviderService GetParameterSet Method</title><defs/><g><text fill="#000000" font-family="sans-serif" font-size="14" font-weight="bold" lengthAdjust="spacing" textLength="565.6191" x="414.5088" y="27.9951">ConfigDaemon InternalConfigProviderService GetParameterSet Method</text><g><title>Persistency</title><rect fill="#FFFFFF" height="14" style="stroke:#181818;stroke-width:1;" width="10" x="62.1235" y="546.7188"/></g><g><title>ConfigProvider</title><rect fill="#FFFFFF" height="624.6875" style="stroke:#181818;stroke-width:1;" width="10" x="526.5034" y="104.7266"/></g><g><title>ParameterSet</title><rect fill="#FFFFFF" height="14" style="stroke:#181818;stroke-width:1;" width="10" x="871.7163" y="765.5469"/></g><g><title>InternalConfigProviderProxy</title><rect fill="#FFFFFF" height="268.1953" style="stroke:#181818;stroke-width:1;" width="10" x="1042.2686" y="189.125"/></g><g><title>ara..com</title><rect fill="#FFFFFF" height="29.1328" style="stroke:#181818;stroke-width:1;" width="10" x="1332.5127" y="218.2578"/></g><rect fill="none" height="617.6875" style="stroke:#000000;stroke-width:1.5;" width="1375.6367" x="10" y="119.7266"/><rect fill="none" height="46.2656" style="stroke:#000000;stroke-width:1.5;" width="699.6465" x="462.9468" y="262.3906"/><rect fill="none" height="46.2656" style="stroke:#000000;stroke-width:1.5;" width="699.6465" x="462.9468" y="322.6563"/><rect fill="none" height="46.2656" style="stroke:#000000;stroke-width:1.5;" width="699.6465" x="462.9468" y="382.9219"/><rect fill="none" height="46.2656" style="stroke:#000000;stroke-width:1.5;" width="485.813" x="114.2471" y="472.3203"/><g><title>Persistency</title><rect fill="#000000" fill-opacity="0.00000" height="723.9531" width="8" x="63.1235" y="73.5938"/><line style="stroke:#181818;stroke-width:0.5;stroke-dasharray:5,5;" x1="67" x2="67" y1="73.5938" y2="797.5469"/></g><g><title>ClientApplication</title><rect fill="#000000" fill-opacity="0.00000" height="723.9531" width="8" x="186.624" y="73.5938"/><line style="stroke:#181818;stroke-width:0.5;stroke-dasharray:5,5;" x1="190.2471" x2="190.2471" y1="73.5938" y2="797.5469"/></g><g><title>ConfigProvider</title><rect fill="#000000" fill-opacity="0.00000" height="723.9531" width="8" x="527.5034" y="73.5938"/><line style="stroke:#181818;stroke-width:0.5;stroke-dasharray:5,5;" x1="530.9468" x2="530.9468" y1="73.5938" y2="797.5469"/></g><g><title>ParameterSet</title><rect fill="#000000" fill-opacity="0.00000" height="113.9141" width="8" x="872.7163" y="683.6328"/><line style="stroke:#181818;stroke-width:0.5;stroke-dasharray:5,5;" x1="876.4888" x2="876.4888" y1="683.6328" y2="797.5469"/></g><g><title>InternalConfigProviderProxy</title><rect fill="#000000" fill-opacity="0.00000" height="723.9531" width="8" x="1043.2686" y="73.5938"/><line style="stroke:#181818;stroke-width:0.5;stroke-dasharray:5,5;" x1="1046.9438" x2="1046.9438" y1="73.5938" y2="797.5469"/></g><g><title>ara..com</title><rect fill="#000000" fill-opacity="0.00000" height="723.9531" width="8" x="1333.5127" y="73.5938"/><line style="stroke:#181818;stroke-width:0.5;stroke-dasharray:5,5;" x1="1337.3887" x2="1337.3887" y1="73.5938" y2="797.5469"/></g><g class="participant participant-head" data-participant="Persistency"><rect fill="#E2E2F0" height="30.2969" rx="2.5" ry="2.5" style="stroke:#181818;stroke-width:0.5;" width="94.2471" x="20" y="42.2969"/><text fill="#000000" font-family="sans-serif" font-size="14" lengthAdjust="spacing" textLength="80.2471" x="27" y="62.292">Persistency</text></g><g class="participant participant-tail" data-participant="Persistency"><rect fill="#E2E2F0" height="30.2969" rx="2.5" ry="2.5" style="stroke:#181818;stroke-width:0.5;" width="94.2471" x="20" y="796.5469"/><text fill="#000000" font-family="sans-serif" font-size="14" lengthAdjust="spacing" textLength="80.2471" x="27" y="816.542">Persistency</text></g><g class="participant participant-head" data-participant="ClientApplication"><rect fill="#E2E2F0" height="30.2969" rx="2.5" ry="2.5" style="stroke:#181818;stroke-width:0.5;" width="132.7539" x="124.2471" y="42.2969"/><text fill="#000000" font-family="sans-serif" font-size="14" lengthAdjust="spacing" textLength="118.7539" x="131.2471" y="62.292">ClientApplication</text></g><g class="participant participant-tail" data-participant="ClientApplication"><rect fill="#E2E2F0" height="30.2969" rx="2.5" ry="2.5" style="stroke:#181818;stroke-width:0.5;" width="132.7539" x="124.2471" y="796.5469"/><text fill="#000000" font-family="sans-serif" font-size="14" lengthAdjust="spacing" textLength="118.7539" x="131.2471" y="816.542">ClientApplication</text></g><g class="participant participant-head" data-participant="ConfigProvider"><rect fill="#E2E2F0" height="30.2969" rx="2.5" ry="2.5" style="stroke:#181818;stroke-width:0.5;" width="117.1133" x="472.9468" y="42.2969"/><text fill="#000000" font-family="sans-serif" font-size="14" lengthAdjust="spacing" textLength="103.1133" x="479.9468" y="62.292">ConfigProvider</text></g><g class="participant participant-tail" data-participant="ConfigProvider"><rect fill="#E2E2F0" height="30.2969" rx="2.5" ry="2.5" style="stroke:#181818;stroke-width:0.5;" width="117.1133" x="472.9468" y="796.5469"/><text fill="#000000" font-family="sans-serif" font-size="14" lengthAdjust="spacing" textLength="103.1133" x="479.9468" y="816.542">ConfigProvider</text></g><g class="participant participant-tail" data-participant="ParameterSet"><rect fill="#E2E2F0" height="30.2969" rx="2.5" ry="2.5" style="stroke:#181818;stroke-width:0.5;" width="110.4551" x="821.4888" y="796.5469"/><text fill="#000000" font-family="sans-serif" font-size="14" lengthAdjust="spacing" textLength="96.4551" x="828.4888" y="816.542">ParameterSet</text></g><g class="participant participant-head" data-participant="InternalConfigProviderProxy"><rect fill="#E2E2F0" height="30.2969" rx="2.5" ry="2.5" style="stroke:#181818;stroke-width:0.5;" width="210.6494" x="941.9438" y="42.2969"/><text fill="#000000" font-family="sans-serif" font-size="14" lengthAdjust="spacing" textLength="196.6494" x="948.9438" y="62.292">InternalConfigProviderProxy</text></g><g class="participant participant-tail" data-participant="InternalConfigProviderProxy"><rect fill="#E2E2F0" height="30.2969" rx="2.5" ry="2.5" style="stroke:#181818;stroke-width:0.5;" width="210.6494" x="941.9438" y="796.5469"/><text fill="#000000" font-family="sans-serif" font-size="14" lengthAdjust="spacing" textLength="196.6494" x="948.9438" y="816.542">InternalConfigProviderProxy</text></g><g class="participant participant-head" data-participant="aracom"><rect fill="#E2E2F0" height="30.2969" rx="2.5" ry="2.5" style="stroke:#181818;stroke-width:0.5;" width="76.248" x="1299.3887" y="42.2969"/><text fill="#000000" font-family="sans-serif" font-size="14" lengthAdjust="spacing" textLength="62.248" x="1306.3887" y="62.292">ara::com</text></g><g class="participant participant-tail" data-participant="aracom"><rect fill="#E2E2F0" height="30.2969" rx="2.5" ry="2.5" style="stroke:#181818;stroke-width:0.5;" width="76.248" x="1299.3887" y="796.5469"/><text fill="#000000" font-family="sans-serif" font-size="14" lengthAdjust="spacing" textLength="62.248" x="1306.3887" y="816.542">ara::com</text></g><g><title>Persistency</title><rect fill="#FFFFFF" height="14" style="stroke:#181818;stroke-width:1;" width="10" x="62.1235" y="546.7188"/></g><g><title>ConfigProvider</title><rect fill="#FFFFFF" height="624.6875" style="stroke:#181818;stroke-width:1;" width="10" x="526.5034" y="104.7266"/></g><g><title>ParameterSet</title><rect fill="#FFFFFF" height="14" style="stroke:#181818;stroke-width:1;" width="10" x="871.7163" y="765.5469"/></g><g><title>InternalConfigProviderProxy</title><rect fill="#FFFFFF" height="268.1953" style="stroke:#181818;stroke-width:1;" width="10" x="1042.2686" y="189.125"/></g><g><title>ara..com</title><rect fill="#FFFFFF" height="29.1328" style="stroke:#181818;stroke-width:1;" width="10" x="1332.5127" y="218.2578"/></g><g class="message" data-participant-1="ClientApplication" data-participant-2="ConfigProvider"><polygon fill="#181818" points="514.5034,100.7266,524.5034,104.7266,514.5034,108.7266,518.5034,104.7266" style="stroke:#181818;stroke-width:1;"/><line style="stroke:#181818;stroke-width:1;" x1="190.624" x2="520.5034" y1="104.7266" y2="104.7266"/><text fill="#000000" font-family="sans-serif" font-size="13" lengthAdjust="spacing" textLength="261.2441" x="227.9417" y="99.6606">GetParameterSet(parameter_set_name)</text></g><path d="M10,119.7266 L74.4429,119.7266 L74.4429,126.8594 L64.4429,136.8594 L10,136.8594 L10,119.7266" fill="#EEEEEE" style="stroke:#000000;stroke-width:1.5;"/><rect fill="none" height="617.6875" style="stroke:#000000;stroke-width:1.5;" width="1375.6367" x="10" y="119.7266"/><text fill="#000000" font-family="sans-serif" font-size="13" font-weight="bold" lengthAdjust="spacing" textLength="19.4429" x="25" y="132.7935">alt</text><text fill="#000000" font-family="sans-serif" font-size="11" font-weight="bold" lengthAdjust="spacing" textLength="156.1377" x="89.4429" y="131.937">[parameterset is cached]</text><g class="message" data-participant-1="ConfigProvider" data-participant-2="ClientApplication"><polygon fill="#181818" points="201.624,153.9922,191.624,157.9922,201.624,161.9922,197.624,157.9922" style="stroke:#181818;stroke-width:1;"/><line style="stroke:#181818;stroke-width:1;stroke-dasharray:2,2;" x1="195.624" x2="525.5034" y1="157.9922" y2="157.9922"/><text fill="#000000" font-family="sans-serif" font-size="13" lengthAdjust="spacing" textLength="94.999" x="311.0642" y="152.9263">parameter_set</text></g><line style="stroke:#000000;stroke-width:1;stroke-dasharray:2,2;" x1="10" x2="1385.6367" y1="166.9922" y2="166.9922"/><g class="message" data-participant-1="ConfigProvider" data-participant-2="InternalConfigProviderProxy"><polygon fill="#181818" points="1030.2686,185.125,1040.2686,189.125,1030.2686,193.125,1034.2686,189.125" style="stroke:#181818;stroke-width:1;"/><line style="stroke:#181818;stroke-width:1;" x1="536.5034" x2="1036.2686" y1="189.125" y2="189.125"/><text fill="#000000" font-family="sans-serif" font-size="13" lengthAdjust="spacing" textLength="261.2441" x="658.7639" y="184.0591">GetParameterSet(parameter_set_name)</text></g><g class="message" data-participant-1="InternalConfigProviderProxy" data-participant-2="aracom"><polygon fill="#181818" points="1320.5127,214.2578,1330.5127,218.2578,1320.5127,222.2578,1324.5127,218.2578" style="stroke:#181818;stroke-width:1;"/><line style="stroke:#181818;stroke-width:1;" x1="1052.2686" x2="1326.5127" y1="218.2578" y2="218.2578"/><text fill="#000000" font-family="sans-serif" font-size="13" lengthAdjust="spacing" textLength="261.2441" x="1061.7686" y="213.1919">GetParameterSet(parameter_set_name)</text></g><g class="message" data-participant-1="aracom" data-participant-2="InternalConfigProviderProxy"><polygon fill="#181818" points="1063.2686,243.3906,1053.2686,247.3906,1063.2686,251.3906,1059.2686,247.3906" style="stroke:#181818;stroke-width:1;"/><line style="stroke:#181818;stroke-width:1;stroke-dasharray:2,2;" x1="1057.2686" x2="1336.5127" y1="247.3906" y2="247.3906"/><text fill="#000000" font-family="sans-serif" font-size="13" lengthAdjust="spacing" textLength="39.4951" x="1175.1431" y="242.3247">future</text></g><path d="M462.9468,262.3906 L527.3896,262.3906 L527.3896,269.5234 L517.3896,279.5234 L462.9468,279.5234 L462.9468,262.3906" fill="#EEEEEE" style="stroke:#000000;stroke-width:1.5;"/><rect fill="none" height="46.2656" style="stroke:#000000;stroke-width:1.5;" width="699.6465" x="462.9468" y="262.3906"/><text fill="#000000" font-family="sans-serif" font-size="13" font-weight="bold" lengthAdjust="spacing" textLength="19.4429" x="477.9468" y="275.4575">alt</text><text fill="#000000" font-family="sans-serif" font-size="11" font-weight="bold" lengthAdjust="spacing" textLength="115.2207" x="542.3896" y="274.6011">[future is timeout]</text><g class="message" data-participant-1="InternalConfigProviderProxy" data-participant-2="ConfigProvider"><polygon fill="#181818" points="547.5034,296.6563,537.5034,300.6563,547.5034,304.6563,543.5034,300.6563" style="stroke:#181818;stroke-width:1;"/><line style="stroke:#181818;stroke-width:1;stroke-dasharray:2,2;" x1="541.5034" x2="1041.2686" y1="300.6563" y2="300.6563"/><text fill="#000000" font-family="sans-serif" font-size="13" lengthAdjust="spacing" textLength="278.9985" x="649.8867" y="295.5903">ConfigProviderError::kProxyAccessTimeout</text></g><path d="M462.9468,322.6563 L527.3896,322.6563 L527.3896,329.7891 L517.3896,339.7891 L462.9468,339.7891 L462.9468,322.6563" fill="#EEEEEE" style="stroke:#000000;stroke-width:1.5;"/><rect fill="none" height="46.2656" style="stroke:#000000;stroke-width:1.5;" width="699.6465" x="462.9468" y="322.6563"/><text fill="#000000" font-family="sans-serif" font-size="13" font-weight="bold" lengthAdjust="spacing" textLength="19.4429" x="477.9468" y="335.7231">alt</text><text fill="#000000" font-family="sans-serif" font-size="11" font-weight="bold" lengthAdjust="spacing" textLength="163.582" x="542.3896" y="334.8667">[future do not have value]</text><g class="message" data-participant-1="InternalConfigProviderProxy" data-participant-2="ConfigProvider"><polygon fill="#181818" points="547.5034,356.9219,537.5034,360.9219,547.5034,364.9219,543.5034,360.9219" style="stroke:#181818;stroke-width:1;"/><line style="stroke:#181818;stroke-width:1;stroke-dasharray:2,2;" x1="541.5034" x2="1041.2686" y1="360.9219" y2="360.9219"/><text fill="#000000" font-family="sans-serif" font-size="13" lengthAdjust="spacing" textLength="299.3936" x="639.6892" y="355.856">ConfigProviderError::kProxyReturnedNoResult</text></g><path d="M462.9468,382.9219 L527.3896,382.9219 L527.3896,390.0547 L517.3896,400.0547 L462.9468,400.0547 L462.9468,382.9219" fill="#EEEEEE" style="stroke:#000000;stroke-width:1.5;"/><rect fill="none" height="46.2656" style="stroke:#000000;stroke-width:1.5;" width="699.6465" x="462.9468" y="382.9219"/><text fill="#000000" font-family="sans-serif" font-size="13" font-weight="bold" lengthAdjust="spacing" textLength="19.4429" x="477.9468" y="395.9888">alt</text><text fill="#000000" font-family="sans-serif" font-size="11" font-weight="bold" lengthAdjust="spacing" textLength="232.3804" x="542.3896" y="395.1323">[service does not find parameter set]</text><g class="message" data-participant-1="InternalConfigProviderProxy" data-participant-2="ConfigProvider"><polygon fill="#181818" points="547.5034,417.1875,537.5034,421.1875,547.5034,425.1875,543.5034,421.1875" style="stroke:#181818;stroke-width:1;"/><line style="stroke:#181818;stroke-width:1;stroke-dasharray:2,2;" x1="541.5034" x2="1041.2686" y1="421.1875" y2="421.1875"/><text fill="#000000" font-family="sans-serif" font-size="13" lengthAdjust="spacing" textLength="296.7402" x="641.0159" y="416.1216">ConfigProviderError::kParameterSetNotFound</text></g><g class="message" data-participant-1="InternalConfigProviderProxy" data-participant-2="ConfigProvider"><polygon fill="#181818" points="547.5034,453.3203,537.5034,457.3203,547.5034,461.3203,543.5034,457.3203" style="stroke:#181818;stroke-width:1;"/><line style="stroke:#181818;stroke-width:1;stroke-dasharray:2,2;" x1="541.5034" x2="1046.2686" y1="457.3203" y2="457.3203"/><text fill="#000000" font-family="sans-serif" font-size="13" lengthAdjust="spacing" textLength="122.7002" x="730.5359" y="452.2544">Result&lt;json::Any&gt;</text></g><path d="M114.2471,472.3203 L178.6899,472.3203 L178.6899,479.4531 L168.6899,489.4531 L114.2471,489.4531 L114.2471,472.3203" fill="#EEEEEE" style="stroke:#000000;stroke-width:1.5;"/><rect fill="none" height="46.2656" style="stroke:#000000;stroke-width:1.5;" width="485.813" x="114.2471" y="472.3203"/><text fill="#000000" font-family="sans-serif" font-size="13" font-weight="bold" lengthAdjust="spacing" textLength="19.4429" x="129.2471" y="485.3872">alt</text><text fill="#000000" font-family="sans-serif" font-size="11" font-weight="bold" lengthAdjust="spacing" textLength="158.458" x="193.6899" y="484.5308">[get ConfigProviderError]</text><g class="message" data-participant-1="ConfigProvider" data-participant-2="ClientApplication"><polygon fill="#181818" points="201.624,506.5859,191.624,510.5859,201.624,514.5859,197.624,510.5859" style="stroke:#181818;stroke-width:1;"/><line style="stroke:#181818;stroke-width:1;stroke-dasharray:2,2;" x1="195.624" x2="525.5034" y1="510.5859" y2="510.5859"/><text fill="#000000" font-family="sans-serif" font-size="13" lengthAdjust="spacing" textLength="127.9497" x="294.5889" y="505.52">ConfigProviderError</text></g><g class="message" data-participant-1="ConfigProvider" data-participant-2="Persistency"><polygon fill="#181818" points="83.1235,542.7188,73.1235,546.7188,83.1235,550.7188,79.1235,546.7188" style="stroke:#181818;stroke-width:1;"/><line style="stroke:#181818;stroke-width:1;" x1="77.1235" x2="525.5034" y1="546.7188" y2="546.7188"/><text fill="#000000" font-family="sans-serif" font-size="13" lengthAdjust="spacing" textLength="129.9937" x="234.3167" y="541.6528">CacheParameterSet</text></g><g class="message" data-participant-1="Persistency" data-participant-2="ConfigProvider"><polygon fill="#181818" points="514.5034,556.7188,524.5034,560.7188,514.5034,564.7188,518.5034,560.7188" style="stroke:#181818;stroke-width:1;"/><line style="stroke:#181818;stroke-width:1;stroke-dasharray:2,2;" x1="67.1235" x2="520.5034" y1="560.7188" y2="560.7188"/></g><g class="message" data-participant-1="ConfigProvider" data-participant-2="ConfigProvider"><line style="stroke:#181818;stroke-width:1;" x1="536.5034" x2="578.5034" y1="589.8516" y2="589.8516"/><line style="stroke:#181818;stroke-width:1;" x1="578.5034" x2="578.5034" y1="589.8516" y2="602.8516"/><line style="stroke:#181818;stroke-width:1;" x1="537.5034" x2="578.5034" y1="602.8516" y2="602.8516"/><polygon fill="#181818" points="547.5034,598.8516,537.5034,602.8516,547.5034,606.8516,543.5034,602.8516" style="stroke:#181818;stroke-width:1;"/><text fill="#000000" font-family="sans-serif" font-size="13" lengthAdjust="spacing" textLength="293.084" x="543.5034" y="584.7856">Sync to In-Memory Cache for future requests</text></g><g class="message" data-participant-1="ConfigProvider" data-participant-2="ConfigProvider"><line style="stroke:#181818;stroke-width:1;" x1="536.5034" x2="578.5034" y1="631.9844" y2="631.9844"/><line style="stroke:#181818;stroke-width:1;" x1="578.5034" x2="578.5034" y1="631.9844" y2="644.9844"/><line style="stroke:#181818;stroke-width:1;" x1="537.5034" x2="578.5034" y1="644.9844" y2="644.9844"/><polygon fill="#181818" points="547.5034,640.9844,537.5034,644.9844,547.5034,648.9844,543.5034,644.9844" style="stroke:#181818;stroke-width:1;"/><text fill="#000000" font-family="sans-serif" font-size="13" lengthAdjust="spacing" textLength="311.2129" x="543.5034" y="626.9185">RegisterUpdateHandlerForParameterSetName()</text></g><g class="message" data-participant-1="ConfigProvider" data-participant-2="ParameterSet"><polygon fill="#181818" points="809.4888,670.1172,819.4888,674.1172,809.4888,678.1172,813.4888,674.1172" style="stroke:#181818;stroke-width:1;"/><line style="stroke:#181818;stroke-width:1;" x1="536.5034" x2="815.4888" y1="674.1172" y2="674.1172"/><text fill="#000000" font-family="sans-serif" font-size="13" lengthAdjust="spacing" textLength="41.5518" x="658.2202" y="669.0513">create</text></g><rect fill="#E2E2F0" height="30.2969" rx="2.5" ry="2.5" style="stroke:#181818;stroke-width:0.5;" width="110.4551" x="821.4888" y="652.9844"/><text fill="#000000" font-family="sans-serif" font-size="14" lengthAdjust="spacing" textLength="96.4551" x="828.4888" y="672.9795">ParameterSet</text><g class="message" data-participant-1="ParameterSet" data-participant-2="ConfigProvider"><polygon fill="#181818" points="547.5034,696.2813,537.5034,700.2813,547.5034,704.2813,543.5034,700.2813" style="stroke:#181818;stroke-width:1;"/><line style="stroke:#181818;stroke-width:1;stroke-dasharray:2,2;" x1="541.5034" x2="875.7163" y1="700.2813" y2="700.2813"/></g><g class="message" data-participant-1="ConfigProvider" data-participant-2="ClientApplication"><polygon fill="#181818" points="201.624,725.4141,191.624,729.4141,201.624,733.4141,197.624,729.4141" style="stroke:#181818;stroke-width:1;"/><line style="stroke:#181818;stroke-width:1;stroke-dasharray:2,2;" x1="195.624" x2="530.5034" y1="729.4141" y2="729.4141"/><text fill="#000000" font-family="sans-serif" font-size="13" lengthAdjust="spacing" textLength="311.8794" x="205.124" y="724.3481">Result&lt;std::shared_ptr&lt;const ParameterSet&gt;&gt;</text></g><g class="message" data-participant-1="ClientApplication" data-participant-2="ParameterSet"><polygon fill="#181818" points="859.7163,761.5469,869.7163,765.5469,859.7163,769.5469,863.7163,765.5469" style="stroke:#181818;stroke-width:1;"/><line style="stroke:#181818;stroke-width:1;" x1="190.624" x2="865.7163" y1="765.5469" y2="765.5469"/><text fill="#000000" font-family="sans-serif" font-size="13" lengthAdjust="spacing" textLength="117.1968" x="472.5718" y="760.481">GetParameterAs()</text></g><g class="message" data-participant-1="ParameterSet" data-participant-2="ClientApplication"><polygon fill="#181818" points="201.624,775.5469,191.624,779.5469,201.624,783.5469,197.624,779.5469" style="stroke:#181818;stroke-width:1;"/><line style="stroke:#181818;stroke-width:1;stroke-dasharray:2,2;" x1="195.624" x2="875.7163" y1="779.5469" y2="779.5469"/></g><!--SRC=[hLJDRjim3BxhAOYU-WE_W50OCBfrwo55a6pdG92OHAijkH8TB6y_AausApRI3AWFjan9tuz8CRvPrwgW6bZYUuTEumnZL1kiQhjn3Je2pIyCWYpL24_UhUtcYyB6EtX94qxLVN0U_CuQ34iCEwiHlY7D4p9IYX7CaBRU2C5qPBLj5MFFCKGRYNdtMVofjinQjMrjjIBhNJwRyUM00yPiObehVt_dp3SC8ANspGse2Fp3Go74I10KvPaEU7YGvwPlszFFAYAj78_lXAe9_iOv33Q2LdgBHfmX5eban2mXGnLOHnIZhUKborThlOJ15FtvNE-yNrvy8Aue9AmxwWBRIeVLZzCnaMtGTtHPrZWpyYpmDGGVf7mxRAYqvfB_SKH6Pp9Iuy5vWgtQ8UnKtU6dSY-GIHoQLx_0sDK3-dYyHSPZF2XOMsV-9HvIuZzBoI1jhvwUVSSY3aB-ao3b3NeZZx-YTr9MRb_sVZP8K_G2-BcowgUs7sIEIt_GLxWuqzvqlxBcC5mowMKADuz8MEwT1l9SpSMCMsBOzqImzk5KG27rrKZn2hG5RfAYyBCrYl2xSgR6yEn3bY0UtTvDMHxssljx2JeWeuWiFZPwNSif2f2dp4OoKiQj2cXMBOL7xLtC6szP7lCorJGpFOVS33j75TdSMFA4827-0000]--></g></svg>