<svg xmlns="http://www.w3.org/2000/svg" xmlns:xlink="http://www.w3.org/1999/xlink" contentStyleType="text/css" data-diagram-type="SEQUENCE" height="1645px" preserveAspectRatio="none" style="width:1359px;height:1645px;background:#FFFFFF;" version="1.1" viewBox="0 0 1359 1645" width="1359px" zoomAndPan="magnify"><title>Client Application Creation - Non-Blocking with Callback Notification</title><defs/><g><text fill="#000000" font-family="sans-serif" font-size="14" font-weight="bold" lengthAdjust="spacing" textLength="540.374" x="405.5583" y="27.9951">Client Application Creation - Non-Blocking with Callback Notification</text><g><title>ProxyThread</title><rect fill="#FFFFFF" height="864.2578" style="stroke:#181818;stroke-width:1;" width="10" x="1212.3291" y="690.25"/></g><rect fill="none" height="160.4688" style="stroke:#000000;stroke-width:1.5;" width="929.5713" x="84" y="1133.9766"/><rect fill="none" height="195.9297" style="stroke:#000000;stroke-width:1.5;" width="1272.019" x="50" y="1351.5781"/><g><title>Client Application</title><rect fill="#000000" fill-opacity="0.00000" height="1445.9141" width="8" x="154.6021" y="118.5938"/><line style="stroke:#181818;stroke-width:0.5;stroke-dasharray:5,5;" x1="158" x2="158" y1="118.5938" y2="1564.5078"/></g><g><title>PersistencyFactory</title><rect fill="#000000" fill-opacity="0.00000" height="1445.9141" width="8" x="348.2598" y="118.5938"/><line style="stroke:#181818;stroke-width:0.5;stroke-dasharray:5,5;" x1="351.9238" x2="351.9238" y1="118.5938" y2="1564.5078"/></g><g><title>ConfigProviderFactory</title><rect fill="#000000" fill-opacity="0.00000" height="1445.9141" width="8" x="579.083" y="118.5938"/><line style="stroke:#181818;stroke-width:0.5;stroke-dasharray:5,5;" x1="582.314" x2="582.314" y1="118.5938" y2="1564.5078"/></g><g><title>ConfigProviderImpl</title><rect fill="#000000" fill-opacity="0.00000" height="1445.9141" width="8" x="891.8354" y="118.5938"/><line style="stroke:#181818;stroke-width:0.5;stroke-dasharray:5,5;" x1="895.0073" x2="895.0073" y1="118.5938" y2="1564.5078"/></g><g><title>ProxyThread</title><rect fill="#000000" fill-opacity="0.00000" height="1445.9141" width="8" x="1213.3291" y="118.5938"/><line style="stroke:#181818;stroke-width:0.5;stroke-dasharray:5,5;" x1="1217.0322" x2="1217.0322" y1="118.5938" y2="1564.5078"/></g><g class="participant participant-head" data-participant="Client"><text fill="#000000" font-family="sans-serif" font-size="14" lengthAdjust="spacing" textLength="123.2041" x="94" y="115.292">Client Application</text><ellipse cx="158.6021" cy="50.7969" fill="#E2E2F0" rx="8" ry="8" style="stroke:#181818;stroke-width:0.5;"/><path d="M158.6021,58.7969 L158.6021,85.7969 M145.6021,66.7969 L171.6021,66.7969 M158.6021,85.7969 L145.6021,100.7969 M158.6021,85.7969 L171.6021,100.7969" fill="none" style="stroke:#181818;stroke-width:0.5;"/></g><g class="participant participant-tail" data-participant="Client"><text fill="#000000" font-family="sans-serif" font-size="14" lengthAdjust="spacing" textLength="123.2041" x="94" y="1576.5029">Client Application</text><ellipse cx="158.6021" cy="1588.3047" fill="#E2E2F0" rx="8" ry="8" style="stroke:#181818;stroke-width:0.5;"/><path d="M158.6021,1596.3047 L158.6021,1623.3047 M145.6021,1604.3047 L171.6021,1604.3047 M158.6021,1623.3047 L145.6021,1638.3047 M158.6021,1623.3047 L171.6021,1638.3047" fill="none" style="stroke:#181818;stroke-width:0.5;"/></g><g class="participant participant-head" data-participant="PFactory"><rect fill="#E2E2F0" height="30.2969" rx="2.5" ry="2.5" style="stroke:#181818;stroke-width:0.5;" width="146.6719" x="278.9238" y="87.2969"/><text fill="#000000" font-family="sans-serif" font-size="14" lengthAdjust="spacing" textLength="132.6719" x="285.9238" y="107.292">PersistencyFactory</text></g><g class="participant participant-tail" data-participant="PFactory"><rect fill="#E2E2F0" height="30.2969" rx="2.5" ry="2.5" style="stroke:#181818;stroke-width:0.5;" width="146.6719" x="278.9238" y="1563.5078"/><text fill="#000000" font-family="sans-serif" font-size="14" lengthAdjust="spacing" textLength="132.6719" x="285.9238" y="1583.5029">PersistencyFactory</text></g><g class="participant participant-head" data-participant="CPFactory"><rect fill="#E2E2F0" height="30.2969" rx="2.5" ry="2.5" style="stroke:#181818;stroke-width:0.5;" width="169.5381" x="498.314" y="87.2969"/><text fill="#000000" font-family="sans-serif" font-size="14" lengthAdjust="spacing" textLength="155.5381" x="505.314" y="107.292">ConfigProviderFactory</text></g><g class="participant participant-tail" data-participant="CPFactory"><rect fill="#E2E2F0" height="30.2969" rx="2.5" ry="2.5" style="stroke:#181818;stroke-width:0.5;" width="169.5381" x="498.314" y="1563.5078"/><text fill="#000000" font-family="sans-serif" font-size="14" lengthAdjust="spacing" textLength="155.5381" x="505.314" y="1583.5029">ConfigProviderFactory</text></g><g class="participant participant-head" data-participant="CPImpl"><rect fill="#E2E2F0" height="30.2969" rx="2.5" ry="2.5" style="stroke:#181818;stroke-width:0.5;" width="147.6563" x="822.0073" y="87.2969"/><text fill="#000000" font-family="sans-serif" font-size="14" lengthAdjust="spacing" textLength="133.6563" x="829.0073" y="107.292">ConfigProviderImpl</text></g><g class="participant participant-tail" data-participant="CPImpl"><rect fill="#E2E2F0" height="30.2969" rx="2.5" ry="2.5" style="stroke:#181818;stroke-width:0.5;" width="147.6563" x="822.0073" y="1563.5078"/><text fill="#000000" font-family="sans-serif" font-size="14" lengthAdjust="spacing" textLength="133.6563" x="829.0073" y="1583.5029">ConfigProviderImpl</text></g><g class="participant participant-head" data-participant="ProxyThread"><rect fill="#E2E2F0" height="30.2969" rx="2.5" ry="2.5" style="stroke:#181818;stroke-width:0.5;" width="102.5938" x="1166.0322" y="87.2969"/><text fill="#000000" font-family="sans-serif" font-size="14" lengthAdjust="spacing" textLength="88.5938" x="1173.0322" y="107.292">ProxyThread</text></g><g class="participant participant-tail" data-participant="ProxyThread"><rect fill="#E2E2F0" height="30.2969" rx="2.5" ry="2.5" style="stroke:#181818;stroke-width:0.5;" width="102.5938" x="1166.0322" y="1563.5078"/><text fill="#000000" font-family="sans-serif" font-size="14" lengthAdjust="spacing" textLength="88.5938" x="1173.0322" y="1583.5029">ProxyThread</text></g><g><title>ProxyThread</title><rect fill="#FFFFFF" height="864.2578" style="stroke:#181818;stroke-width:1;" width="10" x="1212.3291" y="690.25"/></g><rect fill="#EEEEEE" height="3" style="stroke:#EEEEEE;stroke-width:1;" width="1352.4907" x="0" y="149.1602"/><line style="stroke:#000000;stroke-width:1;" x1="0" x2="1352.4907" y1="149.1602" y2="149.1602"/><line style="stroke:#000000;stroke-width:1;" x1="0" x2="1352.4907" y1="152.1602" y2="152.1602"/><rect fill="#EEEEEE" height="23.1328" style="stroke:#000000;stroke-width:2;" width="213.7734" x="569.3586" y="138.5938"/><text fill="#000000" font-family="sans-serif" font-size="13" font-weight="bold" lengthAdjust="spacing" textLength="195.2476" x="575.3586" y="154.6606">Step 1: Create Persistency</text><g class="message" data-participant-1="Client" data-participant-2="PFactory"><polygon fill="#181818" points="340.2598,188.8594,350.2598,192.8594,340.2598,196.8594,344.2598,192.8594" style="stroke:#181818;stroke-width:1;"/><line style="stroke:#181818;stroke-width:1;" x1="158.6021" x2="346.2598" y1="192.8594" y2="192.8594"/><text fill="#000000" font-family="sans-serif" font-size="13" lengthAdjust="spacing" textLength="126.4263" x="165.6021" y="187.7935">Create(kvs_handle)</text></g><g class="message" data-participant-1="PFactory" data-participant-2="PFactory"><line style="stroke:#181818;stroke-width:1;" x1="352.2598" x2="394.2598" y1="221.9922" y2="221.9922"/><line style="stroke:#181818;stroke-width:1;" x1="394.2598" x2="394.2598" y1="221.9922" y2="234.9922"/><line style="stroke:#181818;stroke-width:1;" x1="353.2598" x2="394.2598" y1="234.9922" y2="234.9922"/><polygon fill="#181818" points="363.2598,230.9922,353.2598,234.9922,363.2598,238.9922,359.2598,234.9922" style="stroke:#181818;stroke-width:1;"/><text fill="#000000" font-family="sans-serif" font-size="13" lengthAdjust="spacing" textLength="216.8232" x="359.2598" y="216.9263">new PersistencyImpl(kvs_handle)</text></g><g class="message" data-participant-1="PFactory" data-participant-2="Client"><polygon fill="#181818" points="169.6021,260.125,159.6021,264.125,169.6021,268.125,165.6021,264.125" style="stroke:#181818;stroke-width:1;"/><line style="stroke:#181818;stroke-width:1;stroke-dasharray:2,2;" x1="163.6021" x2="351.2598" y1="264.125" y2="264.125"/><text fill="#000000" font-family="sans-serif" font-size="13" lengthAdjust="spacing" textLength="166.0737" x="175.6021" y="259.0591">unique_ptr&lt;Persistency&gt;</text></g><rect fill="#EEEEEE" height="3" style="stroke:#EEEEEE;stroke-width:1;" width="1352.4907" x="0" y="292.6914"/><line style="stroke:#000000;stroke-width:1;" x1="0" x2="1352.4907" y1="292.6914" y2="292.6914"/><line style="stroke:#000000;stroke-width:1;" x1="0" x2="1352.4907" y1="295.6914" y2="295.6914"/><rect fill="#EEEEEE" height="23.1328" style="stroke:#000000;stroke-width:2;" width="396.1479" x="478.1714" y="282.125"/><text fill="#000000" font-family="sans-serif" font-size="13" font-weight="bold" lengthAdjust="spacing" textLength="377.6221" x="484.1714" y="298.1919">Step 2: Create ConfigProvider (Non-Blocking Mode)</text><path d="M5,320.2578 L5,360.2578 L312,360.2578 L312,330.2578 L302,320.2578 L5,320.2578" fill="#FEFFDD" style="stroke:#181818;stroke-width:0.5;"/><path d="M302,320.2578 L302,330.2578 L312,330.2578 L302,320.2578" fill="#FEFFDD" style="stroke:#181818;stroke-width:0.5;"/><text fill="#000000" font-family="sans-serif" font-size="13" lengthAdjust="spacing" textLength="154.8384" x="11" y="337.3247">Non-blocking approach:</text><text fill="#000000" font-family="sans-serif" font-size="13" lengthAdjust="spacing" textLength="286.4761" x="11" y="352.4575">Register callback for connection notification</text><g class="message" data-participant-1="Client" data-participant-2="CPFactory"><polygon fill="#181818" points="571.083,412.9219,581.083,416.9219,571.083,420.9219,575.083,416.9219" style="stroke:#181818;stroke-width:1;"/><line style="stroke:#181818;stroke-width:1;" x1="158.6021" x2="577.083" y1="416.9219" y2="416.9219"/><text fill="#000000" font-family="sans-serif" font-size="13" lengthAdjust="spacing" textLength="127.6133" x="165.6021" y="381.5903">Create(persistency,</text><text fill="#000000" font-family="sans-serif" font-size="13" lengthAdjust="spacing" textLength="127.2007" x="173.8667" y="396.7231">wait_timeout=0ms,</text><text fill="#000000" font-family="sans-serif" font-size="13" lengthAdjust="spacing" textLength="232.6099" x="173.8667" y="411.856">callback=[&amp;](){ onProxyReady(); })</text></g><g class="message" data-participant-1="CPFactory" data-participant-2="CPFactory"><line style="stroke:#181818;stroke-width:1;" x1="583.083" x2="625.083" y1="446.0547" y2="446.0547"/><line style="stroke:#181818;stroke-width:1;" x1="625.083" x2="625.083" y1="446.0547" y2="459.0547"/><line style="stroke:#181818;stroke-width:1;" x1="584.083" x2="625.083" y1="459.0547" y2="459.0547"/><polygon fill="#181818" points="594.083,455.0547,584.083,459.0547,594.083,463.0547,590.083,459.0547" style="stroke:#181818;stroke-width:1;"/><text fill="#000000" font-family="sans-serif" font-size="13" lengthAdjust="spacing" textLength="298.7524" x="590.083" y="440.9888">Create ProxyFuture for InternalConfigProvider</text></g><g class="message" data-participant-1="CPFactory" data-participant-2="CPImpl"><polygon fill="#181818" points="883.8354,529.5859,893.8354,533.5859,883.8354,537.5859,887.8354,533.5859" style="stroke:#181818;stroke-width:1;"/><line style="stroke:#181818;stroke-width:1;" x1="583.083" x2="889.8354" y1="533.5859" y2="533.5859"/><text fill="#000000" font-family="sans-serif" font-size="13" lengthAdjust="spacing" textLength="160.1831" x="590.083" y="483.1216">new ConfigProviderImpl(</text><text fill="#000000" font-family="sans-serif" font-size="13" lengthAdjust="spacing" textLength="87.0645" x="598.3477" y="498.2544">proxy_future,</text><text fill="#000000" font-family="sans-serif" font-size="13" lengthAdjust="spacing" textLength="79.0601" x="598.3477" y="513.3872">persistency,</text><text fill="#000000" font-family="sans-serif" font-size="13" lengthAdjust="spacing" textLength="58.3032" x="598.3477" y="528.52">callback)</text></g><path d="M826,546.5859 L826,571.5859 L964,571.5859 L964,556.5859 L954,546.5859 L826,546.5859" fill="#FEFFDD" style="stroke:#181818;stroke-width:0.5;"/><path d="M954,546.5859 L954,556.5859 L964,556.5859 L954,546.5859" fill="#FEFFDD" style="stroke:#181818;stroke-width:0.5;"/><text fill="#000000" font-family="sans-serif" font-size="13" lengthAdjust="spacing" textLength="117.4507" x="832" y="563.6528">Constructor starts</text><g class="message" data-participant-1="CPImpl" data-participant-2="CPImpl"><line style="stroke:#181818;stroke-width:1;" x1="895.8354" x2="937.8354" y1="597.8516" y2="597.8516"/><line style="stroke:#181818;stroke-width:1;" x1="937.8354" x2="937.8354" y1="597.8516" y2="610.8516"/><line style="stroke:#181818;stroke-width:1;" x1="896.8354" x2="937.8354" y1="610.8516" y2="610.8516"/><polygon fill="#181818" points="906.8354,606.8516,896.8354,610.8516,906.8354,614.8516,902.8354,610.8516" style="stroke:#181818;stroke-width:1;"/><text fill="#000000" font-family="sans-serif" font-size="13" lengthAdjust="spacing" textLength="291.5859" x="902.8354" y="592.7856">ReadCachedParameterSets from Persistency</text></g><path d="M719,623.8516 L719,648.8516 L1070,648.8516 L1070,633.8516 L1060,623.8516 L719,623.8516" fill="#FEFFDD" style="stroke:#181818;stroke-width:0.5;"/><path d="M1060,623.8516 L1060,633.8516 L1070,633.8516 L1060,623.8516" fill="#FEFFDD" style="stroke:#181818;stroke-width:0.5;"/><text fill="#000000" font-family="sans-serif" font-size="13" lengthAdjust="spacing" textLength="330.9668" x="725" y="640.9185">Cache populated with kUnqualified parameter sets</text><g class="message" data-participant-1="CPImpl" data-participant-2="ProxyThread"><polygon fill="#181818" points="1200.3291,686.25,1210.3291,690.25,1200.3291,694.25,1204.3291,690.25" style="stroke:#181818;stroke-width:1;"/><line style="stroke:#181818;stroke-width:1;" x1="895.8354" x2="1206.3291" y1="690.25" y2="690.25"/><text fill="#000000" font-family="sans-serif" font-size="13" lengthAdjust="spacing" textLength="193.9019" x="902.8354" y="670.0513">Start proxy_available_thread_</text><text fill="#000000" font-family="sans-serif" font-size="13" lengthAdjust="spacing" textLength="84.9443" x="902.8354" y="685.1841">with callback</text></g><path d="M1087,703.25 L1087,728.25 L1347,728.25 L1347,713.25 L1337,703.25 L1087,703.25" fill="#FEFFDD" style="stroke:#181818;stroke-width:0.5;"/><path d="M1337,703.25 L1337,713.25 L1347,713.25 L1337,703.25" fill="#FEFFDD" style="stroke:#181818;stroke-width:0.5;"/><text fill="#000000" font-family="sans-serif" font-size="13" lengthAdjust="spacing" textLength="239.4907" x="1093" y="720.3169">Background thread waiting for proxy</text><g class="message" data-participant-1="CPImpl" data-participant-2="CPFactory"><polygon fill="#181818" points="594.083,750.5156,584.083,754.5156,594.083,758.5156,590.083,754.5156" style="stroke:#181818;stroke-width:1;"/><line style="stroke:#181818;stroke-width:1;stroke-dasharray:2,2;" x1="588.083" x2="894.8354" y1="754.5156" y2="754.5156"/><text fill="#000000" font-family="sans-serif" font-size="13" lengthAdjust="spacing" textLength="154.9526" x="600.083" y="749.4497">ConfigProvider instance</text></g><g class="message" data-participant-1="CPFactory" data-participant-2="Client"><polygon fill="#181818" points="169.6021,779.6484,159.6021,783.6484,169.6021,787.6484,165.6021,783.6484" style="stroke:#181818;stroke-width:1;"/><line style="stroke:#181818;stroke-width:1;stroke-dasharray:2,2;" x1="163.6021" x2="582.083" y1="783.6484" y2="783.6484"/><text fill="#000000" font-family="sans-serif" font-size="13" lengthAdjust="spacing" textLength="187.3066" x="175.6021" y="778.5825">unique_ptr&lt;ConfigProvider&gt;</text></g><path d="M41,796.6484 L41,836.6484 L274,836.6484 L274,806.6484 L264,796.6484 L41,796.6484" fill="#FEFFDD" style="stroke:#181818;stroke-width:0.5;"/><path d="M264,796.6484 L264,806.6484 L274,806.6484 L264,796.6484" fill="#FEFFDD" style="stroke:#181818;stroke-width:0.5;"/><text fill="#000000" font-family="sans-serif" font-size="13" lengthAdjust="spacing" textLength="212.7354" x="47" y="813.7153">Constructor returns immediately</text><text fill="#000000" font-family="sans-serif" font-size="13" lengthAdjust="spacing" textLength="93.8628" x="47" y="828.8481">(non-blocking)</text><rect fill="#EEEEEE" height="3" style="stroke:#EEEEEE;stroke-width:1;" width="1352.4907" x="0" y="862.4805"/><line style="stroke:#000000;stroke-width:1;" x1="0" x2="1352.4907" y1="862.4805" y2="862.4805"/><line style="stroke:#000000;stroke-width:1;" x1="0" x2="1352.4907" y1="865.4805" y2="865.4805"/><rect fill="#EEEEEE" height="23.1328" style="stroke:#000000;stroke-width:2;" width="320.6045" x="515.9431" y="851.9141"/><text fill="#000000" font-family="sans-serif" font-size="13" font-weight="bold" lengthAdjust="spacing" textLength="302.0786" x="521.9431" y="867.981">Step 3: Continue with Other Initialization</text><g class="message" data-participant-1="Client" data-participant-2="Client"><line style="stroke:#181818;stroke-width:1;" x1="158.6021" x2="200.6021" y1="906.1797" y2="906.1797"/><line style="stroke:#181818;stroke-width:1;" x1="200.6021" x2="200.6021" y1="906.1797" y2="919.1797"/><line style="stroke:#181818;stroke-width:1;" x1="159.6021" x2="200.6021" y1="919.1797" y2="919.1797"/><polygon fill="#181818" points="169.6021,915.1797,159.6021,919.1797,169.6021,923.1797,165.6021,919.1797" style="stroke:#181818;stroke-width:1;"/><text fill="#000000" font-family="sans-serif" font-size="13" lengthAdjust="spacing" textLength="177.6201" x="165.6021" y="901.1138">Initialize other components</text></g><g class="message" data-participant-1="Client" data-participant-2="Client"><line style="stroke:#181818;stroke-width:1;" x1="158.6021" x2="200.6021" y1="948.3125" y2="948.3125"/><line style="stroke:#181818;stroke-width:1;" x1="200.6021" x2="200.6021" y1="948.3125" y2="961.3125"/><line style="stroke:#181818;stroke-width:1;" x1="159.6021" x2="200.6021" y1="961.3125" y2="961.3125"/><polygon fill="#181818" points="169.6021,957.3125,159.6021,961.3125,169.6021,965.3125,165.6021,961.3125" style="stroke:#181818;stroke-width:1;"/><text fill="#000000" font-family="sans-serif" font-size="13" lengthAdjust="spacing" textLength="179.6577" x="165.6021" y="943.2466">Perform other startup tasks</text></g><path d="M22,974.3125 L22,999.3125 L294,999.3125 L294,984.3125 L284,974.3125 L22,974.3125" fill="#FEFFDD" style="stroke:#181818;stroke-width:0.5;"/><path d="M284,974.3125 L284,984.3125 L294,984.3125 L284,974.3125" fill="#FEFFDD" style="stroke:#181818;stroke-width:0.5;"/><text fill="#000000" font-family="sans-serif" font-size="13" lengthAdjust="spacing" textLength="251.7988" x="28" y="991.3794">Application continues without blocking</text><rect fill="#EEEEEE" height="3" style="stroke:#EEEEEE;stroke-width:1;" width="1352.4907" x="0" y="1025.0117"/><line style="stroke:#000000;stroke-width:1;" x1="0" x2="1352.4907" y1="1025.0117" y2="1025.0117"/><line style="stroke:#000000;stroke-width:1;" x1="0" x2="1352.4907" y1="1028.0117" y2="1028.0117"/><rect fill="#EEEEEE" height="23.1328" style="stroke:#000000;stroke-width:2;" width="283.4771" x="534.5068" y="1014.4453"/><text fill="#000000" font-family="sans-serif" font-size="13" font-weight="bold" lengthAdjust="spacing" textLength="264.9512" x="540.5068" y="1030.5122">Step 4: Early Access to Cached Data</text><path d="M35,1052.5781 L35,1092.5781 L281,1092.5781 L281,1062.5781 L271,1052.5781 L35,1052.5781" fill="#FEFFDD" style="stroke:#181818;stroke-width:0.5;"/><path d="M271,1052.5781 L271,1062.5781 L281,1062.5781 L271,1052.5781" fill="#FEFFDD" style="stroke:#181818;stroke-width:0.5;"/><text fill="#000000" font-family="sans-serif" font-size="13" lengthAdjust="spacing" textLength="195.6855" x="41" y="1069.645">ConfigProvider already usable</text><text fill="#000000" font-family="sans-serif" font-size="13" lengthAdjust="spacing" textLength="225.1958" x="41" y="1084.7778">with cached data from Persistency</text><g class="message" data-participant-1="Client" data-participant-2="CPImpl"><polygon fill="#181818" points="883.8354,1114.9766,893.8354,1118.9766,883.8354,1122.9766,887.8354,1118.9766" style="stroke:#181818;stroke-width:1;"/><line style="stroke:#181818;stroke-width:1;" x1="158.6021" x2="889.8354" y1="1118.9766" y2="1118.9766"/><text fill="#000000" font-family="sans-serif" font-size="13" lengthAdjust="spacing" textLength="225.2275" x="165.6021" y="1113.9106">GetParameterSet("CachedConfig")</text></g><path d="M84,1133.9766 L148.4429,1133.9766 L148.4429,1141.1094 L138.4429,1151.1094 L84,1151.1094 L84,1133.9766" fill="#EEEEEE" style="stroke:#000000;stroke-width:1.5;"/><rect fill="none" height="160.4688" style="stroke:#000000;stroke-width:1.5;" width="929.5713" x="84" y="1133.9766"/><text fill="#000000" font-family="sans-serif" font-size="13" font-weight="bold" lengthAdjust="spacing" textLength="19.4429" x="99" y="1147.0435">alt</text><text fill="#000000" font-family="sans-serif" font-size="11" font-weight="bold" lengthAdjust="spacing" textLength="180.5601" x="163.4429" y="1146.187">[In cache (from Persistency)]</text><path d="M787,1156.1094 L787,1181.1094 L1003,1181.1094 L1003,1166.1094 L993,1156.1094 L787,1156.1094" fill="#FEFFDD" style="stroke:#181818;stroke-width:0.5;"/><path d="M993,1156.1094 L993,1166.1094 L1003,1166.1094 L993,1156.1094" fill="#FEFFDD" style="stroke:#181818;stroke-width:0.5;"/><text fill="#000000" font-family="sans-serif" font-size="13" lengthAdjust="spacing" textLength="195.5713" x="793" y="1173.1763">Cache hit - serve immediately</text><g class="message" data-participant-1="CPImpl" data-participant-2="Client"><polygon fill="#181818" points="169.6021,1203.375,159.6021,1207.375,169.6021,1211.375,165.6021,1207.375" style="stroke:#181818;stroke-width:1;"/><line style="stroke:#181818;stroke-width:1;stroke-dasharray:2,2;" x1="163.6021" x2="894.8354" y1="1207.375" y2="1207.375"/><text fill="#000000" font-family="sans-serif" font-size="13" lengthAdjust="spacing" textLength="276.7959" x="175.6021" y="1202.3091">shared_ptr&lt;ParameterSet&gt; (kUnqualified)</text></g><line style="stroke:#000000;stroke-width:1;stroke-dasharray:2,2;" x1="84" x2="1013.5713" y1="1216.375" y2="1216.375"/><text fill="#000000" font-family="sans-serif" font-size="11" font-weight="bold" lengthAdjust="spacing" textLength="87.0923" x="89" y="1226.5854">[Not in cache]</text><path d="M821,1235.1797 L821,1260.1797 L970,1260.1797 L970,1245.1797 L960,1235.1797 L821,1235.1797" fill="#FEFFDD" style="stroke:#181818;stroke-width:0.5;"/><path d="M960,1235.1797 L960,1245.1797 L970,1245.1797 L960,1235.1797" fill="#FEFFDD" style="stroke:#181818;stroke-width:0.5;"/><text fill="#000000" font-family="sans-serif" font-size="13" lengthAdjust="spacing" textLength="128.2544" x="827" y="1252.2466">Proxy not ready yet</text><g class="message" data-participant-1="CPImpl" data-participant-2="Client"><polygon fill="#181818" points="169.6021,1282.4453,159.6021,1286.4453,169.6021,1290.4453,165.6021,1286.4453" style="stroke:#181818;stroke-width:1;"/><line style="stroke:#181818;stroke-width:1;stroke-dasharray:2,2;" x1="163.6021" x2="894.8354" y1="1286.4453" y2="1286.4453"/><text fill="#000000" font-family="sans-serif" font-size="13" lengthAdjust="spacing" textLength="148.4844" x="175.6021" y="1281.3794">Error: kProxyNotReady</text></g><rect fill="#EEEEEE" height="3" style="stroke:#EEEEEE;stroke-width:1;" width="1352.4907" x="0" y="1322.0117"/><line style="stroke:#000000;stroke-width:1;" x1="0" x2="1352.4907" y1="1322.0117" y2="1322.0117"/><line style="stroke:#000000;stroke-width:1;" x1="0" x2="1352.4907" y1="1325.0117" y2="1325.0117"/><rect fill="#EEEEEE" height="23.1328" style="stroke:#000000;stroke-width:2;" width="308.0425" x="522.2241" y="1311.4453"/><text fill="#000000" font-family="sans-serif" font-size="13" font-weight="bold" lengthAdjust="spacing" textLength="289.5166" x="528.2241" y="1327.5122">Step 5: Proxy Connection (Background)</text><path d="M50,1351.5781 L119.4893,1351.5781 L119.4893,1358.7109 L109.4893,1368.7109 L50,1368.7109 L50,1351.5781" fill="#EEEEEE" style="stroke:#000000;stroke-width:1.5;"/><rect fill="none" height="195.9297" style="stroke:#000000;stroke-width:1.5;" width="1272.019" x="50" y="1351.5781"/><text fill="#000000" font-family="sans-serif" font-size="13" font-weight="bold" lengthAdjust="spacing" textLength="24.4893" x="65" y="1364.645">par</text><text fill="#000000" font-family="sans-serif" font-size="11" font-weight="bold" lengthAdjust="spacing" textLength="187.811" x="134.4893" y="1363.7886">[Background Proxy Discovery]</text><path d="M1122,1373.7109 L1122,1398.7109 L1312,1398.7109 L1312,1383.7109 L1302,1373.7109 L1122,1373.7109" fill="#FEFFDD" style="stroke:#181818;stroke-width:0.5;"/><path d="M1302,1373.7109 L1302,1383.7109 L1312,1383.7109 L1302,1373.7109" fill="#FEFFDD" style="stroke:#181818;stroke-width:0.5;"/><text fill="#000000" font-family="sans-serif" font-size="13" lengthAdjust="spacing" textLength="169.019" x="1128" y="1390.7778">Service discovery process</text><g class="message" data-participant-1="ProxyThread" data-participant-2="CPImpl"><polygon fill="#181818" points="906.8354,1420.9766,896.8354,1424.9766,906.8354,1428.9766,902.8354,1424.9766" style="stroke:#181818;stroke-width:1;"/><line style="stroke:#181818;stroke-width:1;" x1="900.8354" x2="1211.3291" y1="1424.9766" y2="1424.9766"/><text fill="#000000" font-family="sans-serif" font-size="13" lengthAdjust="spacing" textLength="292.4937" x="912.8354" y="1419.9106">SetupInternalConfigProvider(proxy, callback)</text></g><path d="M813,1437.9766 L813,1462.9766 L977,1462.9766 L977,1447.9766 L967,1437.9766 L813,1437.9766" fill="#FEFFDD" style="stroke:#181818;stroke-width:0.5;"/><path d="M967,1437.9766 L967,1447.9766 L977,1447.9766 L967,1437.9766" fill="#FEFFDD" style="stroke:#181818;stroke-width:0.5;"/><text fill="#000000" font-family="sans-serif" font-size="13" lengthAdjust="spacing" textLength="143.0381" x="819" y="1455.0435">Initial synchronization</text><g class="message" data-participant-1="CPImpl" data-participant-2="Client"><polygon fill="#181818" points="169.6021,1485.2422,159.6021,1489.2422,169.6021,1493.2422,165.6021,1489.2422" style="stroke:#181818;stroke-width:1;"/><line style="stroke:#181818;stroke-width:1;" x1="163.6021" x2="894.8354" y1="1489.2422" y2="1489.2422"/><text fill="#000000" font-family="sans-serif" font-size="13" lengthAdjust="spacing" textLength="165.5469" x="175.6021" y="1484.1763">callback: onProxyReady()</text></g><path d="M60,1502.2422 L60,1542.2422 L257,1542.2422 L257,1512.2422 L247,1502.2422 L60,1502.2422" fill="#FEFFDD" style="stroke:#181818;stroke-width:0.5;"/><path d="M247,1502.2422 L247,1512.2422 L257,1512.2422 L247,1502.2422" fill="#FEFFDD" style="stroke:#181818;stroke-width:0.5;"/><text fill="#000000" font-family="sans-serif" font-size="13" lengthAdjust="spacing" textLength="176.1602" x="66" y="1519.3091">Async notification received</text><text fill="#000000" font-family="sans-serif" font-size="13" lengthAdjust="spacing" textLength="154.2036" x="66" y="1534.4419">Proxy is now connected</text><!--SRC=[ZLPRZ-8s57xFhx1uw2RIZjJh2oqZxS9GhTHkwJ3RFfGgCivXi31srdQOqgh_lSUN42U4KNaAyVdEzJkVOxaLGEQ2WxJaNLqBpgZbIfAvXl1mHpugUVTUA7RWyfcySBidSoh4bh837bc-Yv0ieymgJIRNtYQ4cXWagwcsdF6Qeiba1TfmOq6oyzAZpzvq5V_qZUTAxlZpIgiJhq2dzlF_0_Xmh4MqTe-3HBJww_oqnwAha47tFtj3hasNZMqqTARX_z1q3Vh46IouOUe4CTdr8ijcCxAsK9Elfg7HG99EaDaios8Jx-ulpMXDyyF9b7igAm55rXxs3IMyf0vTkJTG20kHfgIH_7C3PMtr3mdslalswqko_SQIlCUGdrK5XQz1AhHrXLzYECDjQqZhMYlAzjEDV8Hd5qyJrZ9hXqnYIafWdeMoHxIkEVEhxjHTxcytaf0Nocrf-H5KOsTV7er_sOQP_V75dtdn3r7IJ_4HnttEY-_9lqKsJrjx5IQTki_rWyJq9HNzrWozk4c4yLnpCtU9rSvjkVD-VQR3SjhCYrvxesDqQgnk_1eQYqmqMJXAexiYvzXsg5PKqoDWtckmXkoqEgQi6VFlOAHMTIEm1rKGWyCd-RcX0iU3R-hM9J7eCql29nirHJvXSh5OUg9SqAs0qlhJSYEztxPI9olyTEbvNCekkPxZzmXurggH5GdU_FmTszoGVC0kgS5W-wJcs4eg6QGZ7D-MFl1-ZFVfO3JWSAKX_7Y4YcDTuhoHkKmse-XsxXkFnG8Q2Dt-nUx1iGsBmfx_7JIwBnXjq8iH9kDHJ1rh9V7CZ5ZZvB55nsZgsTFKn59pC2C5fLS5YmaQdo6k6MaBwUhuTaeUg1PdyeunC8PO5SXKaGMrz8PQ32P2XHlecJJ6iUN24k-bSbwk6DmJYa3X7y6cjCyd8OqGQb9aL5XiN71Byg778YFukxKOUuwXaFZw1EbqFIRbN2pFxAc6AWXkaj8zoTELAZ8G1jnDYvGCUTr8mY-2Uqz2dyvWRuL-q5hfAJbu2BhsmfU1hBg9VTSwd7Sgd7Vh5HGUrprTkG2uN7S- -fjqGIz249JJZoCtLjMbLGUGHOg8ueg8zM9AbXpzZujiNEi0NIzQn1gePdk_zy5-GU68HPXmAG-Qs9UdO4AgjX8Nml4s2JAi9DI-StqOgsAeW8b-Z5U5EkBS39hNpXfvqjJZmDotusrwKupp9Ue3CMV9zbh9g2On- -kBuqcVrytMCCstyAH-eiP-gYjt3wJiVJWXmVBYffCbMBQFaLFSRrIWWYnntru1_wwvXPlW9tNPLEiNyXLF_Znw-ZMkciPRoRu6QhzIsizVirIw3TbhmaTyCgyuyjTV2WYDN2aXK3KVKKAvT8dqrhVRtdQoqy5tot3EhLQx0VU-e50W6F0JL9k09zpW-KlxmGLLTZDr_yMFW4YzaddkbNKaNybEPT2H2aRlxVy0]--></g></svg>