<svg xmlns="http://www.w3.org/2000/svg" xmlns:xlink="http://www.w3.org/1999/xlink" contentStyleType="text/css" data-diagram-type="SEQUENCE" height="1196px" preserveAspectRatio="none" style="width:1549px;height:1196px;background:#FFFFFF;" version="1.1" viewBox="0 0 1549 1196" width="1549px" zoomAndPan="magnify"><title>Client Application Creation - Blocking Wait for Proxy Connection</title><defs/><g><text fill="#000000" font-family="sans-serif" font-size="14" font-weight="bold" lengthAdjust="spacing" textLength="507.4385" x="517.1611" y="27.9951">Client Application Creation - Blocking Wait for Proxy Connection</text><g><title>ProxyThread</title><rect fill="#FFFFFF" height="353.4609" style="stroke:#181818;stroke-width:1;" width="10" x="1227.5654" y="664.8516"/></g><rect fill="none" height="123.5313" style="stroke:#000000;stroke-width:1.5;" width="468.8623" x="825" y="866.6484"/><g><title>Client Application</title><rect fill="#000000" fill-opacity="0.00000" height="997.1172" width="8" x="144.6021" y="118.5938"/><line style="stroke:#181818;stroke-width:0.5;stroke-dasharray:5,5;" x1="148" x2="148" y1="118.5938" y2="1115.7109"/></g><g><title>PersistencyFactory</title><rect fill="#000000" fill-opacity="0.00000" height="997.1172" width="8" x="334.6758" y="118.5938"/><line style="stroke:#181818;stroke-width:0.5;stroke-dasharray:5,5;" x1="338.3398" x2="338.3398" y1="118.5938" y2="1115.7109"/></g><g><title>ConfigProviderFactory</title><rect fill="#000000" fill-opacity="0.00000" height="997.1172" width="8" x="565.499" y="118.5938"/><line style="stroke:#181818;stroke-width:0.5;stroke-dasharray:5,5;" x1="568.73" x2="568.73" y1="118.5938" y2="1115.7109"/></g><g><title>ConfigProviderImpl</title><rect fill="#000000" fill-opacity="0.00000" height="997.1172" width="8" x="922.9795" y="118.5938"/><line style="stroke:#181818;stroke-width:0.5;stroke-dasharray:5,5;" x1="926.1514" x2="926.1514" y1="118.5938" y2="1115.7109"/></g><g><title>ProxyThread</title><rect fill="#000000" fill-opacity="0.00000" height="997.1172" width="8" x="1228.5654" y="118.5938"/><line style="stroke:#181818;stroke-width:0.5;stroke-dasharray:5,5;" x1="1232.2686" x2="1232.2686" y1="118.5938" y2="1115.7109"/></g><g><title>ProxyFuture</title><rect fill="#000000" fill-opacity="0.00000" height="997.1172" width="8" x="1339.3579" y="118.5938"/><line style="stroke:#181818;stroke-width:0.5;stroke-dasharray:5,5;" x1="1342.8623" x2="1342.8623" y1="118.5938" y2="1115.7109"/></g><g><title>ServiceDiscovery</title><rect fill="#000000" fill-opacity="0.00000" height="997.1172" width="8" x="1466.3071" y="118.5938"/><line style="stroke:#181818;stroke-width:0.5;stroke-dasharray:5,5;" x1="1469.8535" x2="1469.8535" y1="118.5938" y2="1115.7109"/></g><g class="participant participant-head" data-participant="Client"><text fill="#000000" font-family="sans-serif" font-size="14" lengthAdjust="spacing" textLength="123.2041" x="84" y="115.292">Client Application</text><ellipse cx="148.6021" cy="50.7969" fill="#E2E2F0" rx="8" ry="8" style="stroke:#181818;stroke-width:0.5;"/><path d="M148.6021,58.7969 L148.6021,85.7969 M135.6021,66.7969 L161.6021,66.7969 M148.6021,85.7969 L135.6021,100.7969 M148.6021,85.7969 L161.6021,100.7969" fill="none" style="stroke:#181818;stroke-width:0.5;"/></g><g class="participant participant-tail" data-participant="Client"><text fill="#000000" font-family="sans-serif" font-size="14" lengthAdjust="spacing" textLength="123.2041" x="84" y="1127.7061">Client Application</text><ellipse cx="148.6021" cy="1139.5078" fill="#E2E2F0" rx="8" ry="8" style="stroke:#181818;stroke-width:0.5;"/><path d="M148.6021,1147.5078 L148.6021,1174.5078 M135.6021,1155.5078 L161.6021,1155.5078 M148.6021,1174.5078 L135.6021,1189.5078 M148.6021,1174.5078 L161.6021,1189.5078" fill="none" style="stroke:#181818;stroke-width:0.5;"/></g><g class="participant participant-head" data-participant="PFactory"><rect fill="#E2E2F0" height="30.2969" rx="2.5" ry="2.5" style="stroke:#181818;stroke-width:0.5;" width="146.6719" x="265.3398" y="87.2969"/><text fill="#000000" font-family="sans-serif" font-size="14" lengthAdjust="spacing" textLength="132.6719" x="272.3398" y="107.292">PersistencyFactory</text></g><g class="participant participant-tail" data-participant="PFactory"><rect fill="#E2E2F0" height="30.2969" rx="2.5" ry="2.5" style="stroke:#181818;stroke-width:0.5;" width="146.6719" x="265.3398" y="1114.7109"/><text fill="#000000" font-family="sans-serif" font-size="14" lengthAdjust="spacing" textLength="132.6719" x="272.3398" y="1134.7061">PersistencyFactory</text></g><g class="participant participant-head" data-participant="CPFactory"><rect fill="#E2E2F0" height="30.2969" rx="2.5" ry="2.5" style="stroke:#181818;stroke-width:0.5;" width="169.5381" x="484.73" y="87.2969"/><text fill="#000000" font-family="sans-serif" font-size="14" lengthAdjust="spacing" textLength="155.5381" x="491.73" y="107.292">ConfigProviderFactory</text></g><g class="participant participant-tail" data-participant="CPFactory"><rect fill="#E2E2F0" height="30.2969" rx="2.5" ry="2.5" style="stroke:#181818;stroke-width:0.5;" width="169.5381" x="484.73" y="1114.7109"/><text fill="#000000" font-family="sans-serif" font-size="14" lengthAdjust="spacing" textLength="155.5381" x="491.73" y="1134.7061">ConfigProviderFactory</text></g><g class="participant participant-head" data-participant="CPImpl"><rect fill="#E2E2F0" height="30.2969" rx="2.5" ry="2.5" style="stroke:#181818;stroke-width:0.5;" width="147.6563" x="853.1514" y="87.2969"/><text fill="#000000" font-family="sans-serif" font-size="14" lengthAdjust="spacing" textLength="133.6563" x="860.1514" y="107.292">ConfigProviderImpl</text></g><g class="participant participant-tail" data-participant="CPImpl"><rect fill="#E2E2F0" height="30.2969" rx="2.5" ry="2.5" style="stroke:#181818;stroke-width:0.5;" width="147.6563" x="853.1514" y="1114.7109"/><text fill="#000000" font-family="sans-serif" font-size="14" lengthAdjust="spacing" textLength="133.6563" x="860.1514" y="1134.7061">ConfigProviderImpl</text></g><g class="participant participant-head" data-participant="ProxyThread"><rect fill="#E2E2F0" height="30.2969" rx="2.5" ry="2.5" style="stroke:#181818;stroke-width:0.5;" width="102.5938" x="1181.2686" y="87.2969"/><text fill="#000000" font-family="sans-serif" font-size="14" lengthAdjust="spacing" textLength="88.5938" x="1188.2686" y="107.292">ProxyThread</text></g><g class="participant participant-tail" data-participant="ProxyThread"><rect fill="#E2E2F0" height="30.2969" rx="2.5" ry="2.5" style="stroke:#181818;stroke-width:0.5;" width="102.5938" x="1181.2686" y="1114.7109"/><text fill="#000000" font-family="sans-serif" font-size="14" lengthAdjust="spacing" textLength="88.5938" x="1188.2686" y="1134.7061">ProxyThread</text></g><g class="participant participant-head" data-participant="ProxyFuture"><rect fill="#E2E2F0" height="30.2969" rx="2.5" ry="2.5" style="stroke:#181818;stroke-width:0.5;" width="98.9912" x="1293.8623" y="87.2969"/><text fill="#000000" font-family="sans-serif" font-size="14" lengthAdjust="spacing" textLength="84.9912" x="1300.8623" y="107.292">ProxyFuture</text></g><g class="participant participant-tail" data-participant="ProxyFuture"><rect fill="#E2E2F0" height="30.2969" rx="2.5" ry="2.5" style="stroke:#181818;stroke-width:0.5;" width="98.9912" x="1293.8623" y="1114.7109"/><text fill="#000000" font-family="sans-serif" font-size="14" lengthAdjust="spacing" textLength="84.9912" x="1300.8623" y="1134.7061">ProxyFuture</text></g><g class="participant participant-head" data-participant="SD"><rect fill="#E2E2F0" height="30.2969" rx="2.5" ry="2.5" style="stroke:#181818;stroke-width:0.5;" width="134.9072" x="1402.8535" y="87.2969"/><text fill="#000000" font-family="sans-serif" font-size="14" lengthAdjust="spacing" textLength="120.9072" x="1409.8535" y="107.292">ServiceDiscovery</text></g><g class="participant participant-tail" data-participant="SD"><rect fill="#E2E2F0" height="30.2969" rx="2.5" ry="2.5" style="stroke:#181818;stroke-width:0.5;" width="134.9072" x="1402.8535" y="1114.7109"/><text fill="#000000" font-family="sans-serif" font-size="14" lengthAdjust="spacing" textLength="120.9072" x="1409.8535" y="1134.7061">ServiceDiscovery</text></g><g><title>ProxyThread</title><rect fill="#FFFFFF" height="353.4609" style="stroke:#181818;stroke-width:1;" width="10" x="1227.5654" y="664.8516"/></g><rect fill="#EEEEEE" height="3" style="stroke:#EEEEEE;stroke-width:1;" width="1542.7607" x="0" y="149.1602"/><line style="stroke:#000000;stroke-width:1;" x1="0" x2="1542.7607" y1="149.1602" y2="149.1602"/><line style="stroke:#000000;stroke-width:1;" x1="0" x2="1542.7607" y1="152.1602" y2="152.1602"/><rect fill="#EEEEEE" height="23.1328" style="stroke:#000000;stroke-width:2;" width="213.7734" x="664.4937" y="138.5938"/><text fill="#000000" font-family="sans-serif" font-size="13" font-weight="bold" lengthAdjust="spacing" textLength="195.2476" x="670.4937" y="154.6606">Step 1: Create Persistency</text><g class="message" data-participant-1="Client" data-participant-2="PFactory"><polygon fill="#181818" points="326.6758,188.8594,336.6758,192.8594,326.6758,196.8594,330.6758,192.8594" style="stroke:#181818;stroke-width:1;"/><line style="stroke:#181818;stroke-width:1;" x1="148.6021" x2="332.6758" y1="192.8594" y2="192.8594"/><text fill="#000000" font-family="sans-serif" font-size="13" lengthAdjust="spacing" textLength="126.4263" x="155.6021" y="187.7935">Create(kvs_handle)</text></g><g class="message" data-participant-1="PFactory" data-participant-2="PFactory"><line style="stroke:#181818;stroke-width:1;" x1="338.6758" x2="380.6758" y1="221.9922" y2="221.9922"/><line style="stroke:#181818;stroke-width:1;" x1="380.6758" x2="380.6758" y1="221.9922" y2="234.9922"/><line style="stroke:#181818;stroke-width:1;" x1="339.6758" x2="380.6758" y1="234.9922" y2="234.9922"/><polygon fill="#181818" points="349.6758,230.9922,339.6758,234.9922,349.6758,238.9922,345.6758,234.9922" style="stroke:#181818;stroke-width:1;"/><text fill="#000000" font-family="sans-serif" font-size="13" lengthAdjust="spacing" textLength="216.8232" x="345.6758" y="216.9263">new PersistencyImpl(kvs_handle)</text></g><g class="message" data-participant-1="PFactory" data-participant-2="Client"><polygon fill="#181818" points="159.6021,260.125,149.6021,264.125,159.6021,268.125,155.6021,264.125" style="stroke:#181818;stroke-width:1;"/><line style="stroke:#181818;stroke-width:1;stroke-dasharray:2,2;" x1="153.6021" x2="337.6758" y1="264.125" y2="264.125"/><text fill="#000000" font-family="sans-serif" font-size="13" lengthAdjust="spacing" textLength="166.0737" x="165.6021" y="259.0591">unique_ptr&lt;Persistency&gt;</text></g><rect fill="#EEEEEE" height="3" style="stroke:#EEEEEE;stroke-width:1;" width="1542.7607" x="0" y="292.6914"/><line style="stroke:#000000;stroke-width:1;" x1="0" x2="1542.7607" y1="292.6914" y2="292.6914"/><line style="stroke:#000000;stroke-width:1;" x1="0" x2="1542.7607" y1="295.6914" y2="295.6914"/><rect fill="#EEEEEE" height="23.1328" style="stroke:#000000;stroke-width:2;" width="361.6865" x="590.5371" y="282.125"/><text fill="#000000" font-family="sans-serif" font-size="13" font-weight="bold" lengthAdjust="spacing" textLength="343.1606" x="596.5371" y="298.1919">Step 2: Create ConfigProvider (Blocking Mode)</text><path d="M5,320.2578 L5,360.2578 L292,360.2578 L292,330.2578 L282,320.2578 L5,320.2578" fill="#FEFFDD" style="stroke:#181818;stroke-width:0.5;"/><path d="M282,320.2578 L282,330.2578 L292,330.2578 L282,320.2578" fill="#FEFFDD" style="stroke:#181818;stroke-width:0.5;"/><text fill="#000000" font-family="sans-serif" font-size="13" lengthAdjust="spacing" textLength="124.8965" x="11" y="337.3247">Blocking approach:</text><text fill="#000000" font-family="sans-serif" font-size="13" lengthAdjust="spacing" textLength="266.4429" x="11" y="352.4575">Factory will wait until proxy is connected</text><g class="message" data-participant-1="Client" data-participant-2="CPFactory"><polygon fill="#181818" points="557.499,382.6563,567.499,386.6563,557.499,390.6563,561.499,386.6563" style="stroke:#181818;stroke-width:1;"/><line style="stroke:#181818;stroke-width:1;" x1="148.6021" x2="563.499" y1="386.6563" y2="386.6563"/><text fill="#000000" font-family="sans-serif" font-size="13" lengthAdjust="spacing" textLength="284.6987" x="155.6021" y="381.5903">Create(persistency, wait_timeout=5000ms)</text></g><path d="M421,399.6563 L421,424.6563 L716,424.6563 L716,409.6563 L706,399.6563 L421,399.6563" fill="#FEFFDD" style="stroke:#181818;stroke-width:0.5;"/><path d="M706,399.6563 L706,409.6563 L716,409.6563 L706,399.6563" fill="#FEFFDD" style="stroke:#181818;stroke-width:0.5;"/><text fill="#000000" font-family="sans-serif" font-size="13" lengthAdjust="spacing" textLength="274.9932" x="427" y="416.7231">Factory blocks until timeout or connection</text><g class="message" data-participant-1="CPFactory" data-participant-2="CPFactory"><line style="stroke:#181818;stroke-width:1;" x1="569.499" x2="611.499" y1="450.9219" y2="450.9219"/><line style="stroke:#181818;stroke-width:1;" x1="611.499" x2="611.499" y1="450.9219" y2="463.9219"/><line style="stroke:#181818;stroke-width:1;" x1="570.499" x2="611.499" y1="463.9219" y2="463.9219"/><polygon fill="#181818" points="580.499,459.9219,570.499,463.9219,580.499,467.9219,576.499,463.9219" style="stroke:#181818;stroke-width:1;"/><text fill="#000000" font-family="sans-serif" font-size="13" lengthAdjust="spacing" textLength="298.7524" x="576.499" y="445.856">Create ProxyFuture for InternalConfigProvider</text></g><g class="message" data-participant-1="CPFactory" data-participant-2="CPImpl"><polygon fill="#181818" points="914.9795,519.3203,924.9795,523.3203,914.9795,527.3203,918.9795,523.3203" style="stroke:#181818;stroke-width:1;"/><line style="stroke:#181818;stroke-width:1;" x1="569.499" x2="920.9795" y1="523.3203" y2="523.3203"/><text fill="#000000" font-family="sans-serif" font-size="13" lengthAdjust="spacing" textLength="160.1831" x="576.499" y="487.9888">new ConfigProviderImpl(</text><text fill="#000000" font-family="sans-serif" font-size="13" lengthAdjust="spacing" textLength="87.0645" x="584.7637" y="503.1216">proxy_future,</text><text fill="#000000" font-family="sans-serif" font-size="13" lengthAdjust="spacing" textLength="79.9995" x="584.7637" y="518.2544">persistency)</text></g><path d="M857,536.3203 L857,561.3203 L995,561.3203 L995,546.3203 L985,536.3203 L857,536.3203" fill="#FEFFDD" style="stroke:#181818;stroke-width:0.5;"/><path d="M985,536.3203 L985,546.3203 L995,546.3203 L985,536.3203" fill="#FEFFDD" style="stroke:#181818;stroke-width:0.5;"/><text fill="#000000" font-family="sans-serif" font-size="13" lengthAdjust="spacing" textLength="117.4507" x="863" y="553.3872">Constructor starts</text><g class="message" data-participant-1="CPImpl" data-participant-2="CPImpl"><line style="stroke:#181818;stroke-width:1;" x1="926.9795" x2="968.9795" y1="587.5859" y2="587.5859"/><line style="stroke:#181818;stroke-width:1;" x1="968.9795" x2="968.9795" y1="587.5859" y2="600.5859"/><line style="stroke:#181818;stroke-width:1;" x1="927.9795" x2="968.9795" y1="600.5859" y2="600.5859"/><polygon fill="#181818" points="937.9795,596.5859,927.9795,600.5859,937.9795,604.5859,933.9795,600.5859" style="stroke:#181818;stroke-width:1;"/><text fill="#000000" font-family="sans-serif" font-size="13" lengthAdjust="spacing" textLength="291.5859" x="933.9795" y="582.52">ReadCachedParameterSets from Persistency</text></g><path d="M750,613.5859 L750,638.5859 L1101,638.5859 L1101,623.5859 L1091,613.5859 L750,613.5859" fill="#FEFFDD" style="stroke:#181818;stroke-width:0.5;"/><path d="M1091,613.5859 L1091,623.5859 L1101,623.5859 L1091,613.5859" fill="#FEFFDD" style="stroke:#181818;stroke-width:0.5;"/><text fill="#000000" font-family="sans-serif" font-size="13" lengthAdjust="spacing" textLength="330.9668" x="756" y="630.6528">Cache populated with kUnqualified parameter sets</text><g class="message" data-participant-1="CPImpl" data-participant-2="ProxyThread"><polygon fill="#181818" points="1215.5654,660.8516,1225.5654,664.8516,1215.5654,668.8516,1219.5654,664.8516" style="stroke:#181818;stroke-width:1;"/><line style="stroke:#181818;stroke-width:1;" x1="926.9795" x2="1221.5654" y1="664.8516" y2="664.8516"/><text fill="#000000" font-family="sans-serif" font-size="13" lengthAdjust="spacing" textLength="193.9019" x="933.9795" y="659.7856">Start proxy_available_thread_</text></g><path d="M1102,677.8516 L1102,702.8516 L1362,702.8516 L1362,687.8516 L1352,677.8516 L1102,677.8516" fill="#FEFFDD" style="stroke:#181818;stroke-width:0.5;"/><path d="M1352,677.8516 L1352,687.8516 L1362,687.8516 L1352,677.8516" fill="#FEFFDD" style="stroke:#181818;stroke-width:0.5;"/><text fill="#000000" font-family="sans-serif" font-size="13" lengthAdjust="spacing" textLength="239.4907" x="1108" y="694.9185">Background thread waiting for proxy</text><g class="message" data-participant-1="CPImpl" data-participant-2="CPFactory"><polygon fill="#181818" points="580.499,725.1172,570.499,729.1172,580.499,733.1172,576.499,729.1172" style="stroke:#181818;stroke-width:1;"/><line style="stroke:#181818;stroke-width:1;stroke-dasharray:2,2;" x1="574.499" x2="925.9795" y1="729.1172" y2="729.1172"/><text fill="#000000" font-family="sans-serif" font-size="13" lengthAdjust="spacing" textLength="154.9526" x="586.499" y="724.0513">ConfigProvider instance</text></g><rect fill="#EEEEEE" height="3" style="stroke:#EEEEEE;stroke-width:1;" width="1542.7607" x="0" y="757.6836"/><line style="stroke:#000000;stroke-width:1;" x1="0" x2="1542.7607" y1="757.6836" y2="757.6836"/><line style="stroke:#000000;stroke-width:1;" x1="0" x2="1542.7607" y1="760.6836" y2="760.6836"/><rect fill="#EEEEEE" height="23.1328" style="stroke:#000000;stroke-width:2;" width="350.9082" x="595.9263" y="747.1172"/><text fill="#000000" font-family="sans-serif" font-size="13" font-weight="bold" lengthAdjust="spacing" textLength="332.3823" x="601.9263" y="763.1841">Step 3: Factory Blocks Until Proxy Connected</text><g class="message" data-participant-1="CPFactory" data-participant-2="CPImpl"><polygon fill="#181818" points="914.9795,797.3828,924.9795,801.3828,914.9795,805.3828,918.9795,801.3828" style="stroke:#181818;stroke-width:1;"/><line style="stroke:#181818;stroke-width:1;" x1="569.499" x2="920.9795" y1="801.3828" y2="801.3828"/><text fill="#000000" font-family="sans-serif" font-size="13" lengthAdjust="spacing" textLength="333.4805" x="576.499" y="796.3169">WaitUntilConnected(timeout=5000ms, stop_token)</text></g><path d="M492,814.3828 L492,854.3828 L1003,854.3828 L1003,824.3828 L993,814.3828 L492,814.3828" fill="#FEFFDD" style="stroke:#181818;stroke-width:0.5;"/><path d="M993,814.3828 L993,824.3828 L1003,824.3828 L993,814.3828" fill="#FEFFDD" style="stroke:#181818;stroke-width:0.5;"/><text fill="#000000" font-family="sans-serif" font-size="13" lengthAdjust="spacing" textLength="127.791" x="620.0688" y="831.4497">Factory blocks here</text><text fill="#000000" font-family="sans-serif" font-size="13" lengthAdjust="spacing" textLength="245.9399" x="620.0688" y="846.5825">Waits on internal_config_provider_cv_</text><path d="M825,866.6484 L894.4893,866.6484 L894.4893,873.7813 L884.4893,883.7813 L825,883.7813 L825,866.6484" fill="#EEEEEE" style="stroke:#000000;stroke-width:1.5;"/><rect fill="none" height="123.5313" style="stroke:#000000;stroke-width:1.5;" width="468.8623" x="825" y="866.6484"/><text fill="#000000" font-family="sans-serif" font-size="13" font-weight="bold" lengthAdjust="spacing" textLength="24.4893" x="840" y="879.7153">par</text><text fill="#000000" font-family="sans-serif" font-size="11" font-weight="bold" lengthAdjust="spacing" textLength="187.811" x="909.4893" y="878.8589">[Background Proxy Discovery]</text><g class="message" data-participant-1="ProxyThread" data-participant-2="CPImpl"><polygon fill="#181818" points="937.9795,900.9141,927.9795,904.9141,937.9795,908.9141,933.9795,904.9141" style="stroke:#181818;stroke-width:1;"/><line style="stroke:#181818;stroke-width:1;" x1="931.9795" x2="1226.5654" y1="904.9141" y2="904.9141"/><text fill="#000000" font-family="sans-serif" font-size="13" lengthAdjust="spacing" textLength="230.9976" x="943.9795" y="899.8481">SetupInternalConfigProvider(proxy)</text></g><g class="message" data-participant-1="CPImpl" data-participant-2="CPImpl"><line style="stroke:#181818;stroke-width:1;" x1="926.9795" x2="968.9795" y1="934.0469" y2="934.0469"/><line style="stroke:#181818;stroke-width:1;" x1="968.9795" x2="968.9795" y1="934.0469" y2="947.0469"/><line style="stroke:#181818;stroke-width:1;" x1="927.9795" x2="968.9795" y1="947.0469" y2="947.0469"/><polygon fill="#181818" points="937.9795,943.0469,927.9795,947.0469,937.9795,951.0469,933.9795,947.0469" style="stroke:#181818;stroke-width:1;"/><text fill="#000000" font-family="sans-serif" font-size="13" lengthAdjust="spacing" textLength="227.9697" x="933.9795" y="928.981">Notify internal_config_provider_cv_</text></g><path d="M835,960.0469 L835,985.0469 L1018,985.0469 L1018,970.0469 L1008,960.0469 L835,960.0469" fill="#FEFFDD" style="stroke:#181818;stroke-width:0.5;"/><path d="M1008,960.0469 L1008,970.0469 L1018,970.0469 L1008,960.0469" fill="#FEFFDD" style="stroke:#181818;stroke-width:0.5;"/><text fill="#000000" font-family="sans-serif" font-size="13" lengthAdjust="spacing" textLength="162.3159" x="841" y="977.1138">Wakes up waiting thread</text><g class="message" data-participant-1="CPImpl" data-participant-2="CPFactory"><polygon fill="#181818" points="580.499,1014.3125,570.499,1018.3125,580.499,1022.3125,576.499,1018.3125" style="stroke:#181818;stroke-width:1;"/><line style="stroke:#181818;stroke-width:1;stroke-dasharray:2,2;" x1="574.499" x2="925.9795" y1="1018.3125" y2="1018.3125"/><text fill="#000000" font-family="sans-serif" font-size="13" lengthAdjust="spacing" textLength="109.0273" x="586.499" y="1013.2466">true (connected)</text></g><g class="message" data-participant-1="CPFactory" data-participant-2="Client"><polygon fill="#181818" points="159.6021,1043.4453,149.6021,1047.4453,159.6021,1051.4453,155.6021,1047.4453" style="stroke:#181818;stroke-width:1;"/><line style="stroke:#181818;stroke-width:1;stroke-dasharray:2,2;" x1="153.6021" x2="568.499" y1="1047.4453" y2="1047.4453"/><text fill="#000000" font-family="sans-serif" font-size="13" lengthAdjust="spacing" textLength="187.3066" x="165.6021" y="1042.3794">unique_ptr&lt;ConfigProvider&gt;</text></g><path d="M22,1060.4453 L22,1100.4453 L273,1100.4453 L273,1070.4453 L263,1060.4453 L22,1060.4453" fill="#FEFFDD" style="stroke:#181818;stroke-width:0.5;"/><path d="M263,1060.4453 L263,1070.4453 L273,1070.4453 L263,1060.4453" fill="#FEFFDD" style="stroke:#181818;stroke-width:0.5;"/><text fill="#000000" font-family="sans-serif" font-size="13" lengthAdjust="spacing" textLength="230.3374" x="28" y="1077.5122">Receives connected ConfigProvider</text><text fill="#000000" font-family="sans-serif" font-size="13" lengthAdjust="spacing" textLength="141.5781" x="28" y="1092.645">Proxy is ready for use</text><!--SRC=[ZLNBRkCs5DthAuXinWOoGDgY6wCUeB7h8a0xSEEasGGGQEew9aoJ799IwdxzN3uaKRPYZ5UoTC-vhyD3nvq0iX0Sf2E_QoqueuuhIHO6uiDdSYyKEt3vHbueTsId35aRzT-9B9IKm7nGKL3cyFtD9T4DeJRn5veQnndN54Dkrc0ijmuaEwq2-XH2r-dFC1XJxVWRfcru1IQFN_m8uE6eHOhsZsU5-6QUzjXl5Ile_uy4hcfN6-W3u_zXu0PCmnaikMMgWLJePbaKypdPED3afrcSBv1i2cG-BueqmCzVka6qePD3OyizbPM0QT5-70PAUCy9VQiVe10MCyr8BVct6ahjp6yPzajVxCzTiSEXaaadZBzL1TDGlrGOvvlk-BiWghLHbErdhxAjuvqBGTwzgchfk20ww8fRmgAqeCedihWOYUuBlWqyfUD7KBMR_tftTtUqqxoU7jsct_hIRCgTa0Hbp39XB_9HNrIGQo2SZ0Vfm4WgXgCwP_6RYUkwrEdaLP8uY78NU6_3YxxJwM3AYGjvh3DrE8NMeHXj4J_b2HzHqWlS05HhQkWHiDGDE4jsHXrpuOpnUnZHIjS2swvmSsvF3i_oMqq5tt5yerjAOf6poD9d1sg6aiBYKd-qeLpGhO3IXQ-bjn7UT7DDXx2lPi1qJzdXpQXQLYJ2WmAyqlmYGeQ-YhFb3ONCSNPKCkWr_qilalieakSWae7nOTFXo8xjrbjbW7Inaw4qRt5DIfTE7K2EolIsupgJwnuCl4gVm1BqPvuKLxBGLAbJLoLhoiBxKZweM7zdJ0N1twTyhDs-egPdv4zmaxpI395aZuZD4glao3yk_xIC2DqiMyG6g67xiAqOlwHmn8vijCyKtuycOi8tKhKjU6u6rcRivot4fdT-06FbdoiqCyJnTj0RFStPrDfjuOcgzJXm4kOmBIuwQx4F4WLC1R4doVP6IVv_k4DJ_EM1VZAdJRsrpF0jFAc_g7NFklBdCp_VVpJedvFfXoGhS6oVCkUuVwcemQxG6ww0Nmnty27uINMkueA3N64AtnFJFybL3Bg5kmPwX3VFRXPKY2tAtAwKQLCEXl0Ld-mLec1BEI0ESgs4G4Tvn7FBfIya45p2loh7TwVhPz4ZBrV-GW-0Lv3kp2jwMG6o-iYzqEU1JBehSbfKCEgRkJEDN_ZdkhwylH-10MyWkv7FpFDLhjjBsoSzXUDSMoY-0m00]--></g></svg>