<svg xmlns="http://www.w3.org/2000/svg" xmlns:xlink="http://www.w3.org/1999/xlink" contentStyleType="text/css" data-diagram-type="SEQUENCE" height="1807px" preserveAspectRatio="none" style="width:813px;height:1807px;background:#FFFFFF;" version="1.1" viewBox="0 0 813 1807" width="813px" zoomAndPan="magnify"><title>ConfigProvider ParameterSet Retrieval</title><defs/><g><text fill="#000000" font-family="sans-serif" font-size="14" font-weight="bold" lengthAdjust="spacing" textLength="308.6904" x="253.4392" y="27.9951">ConfigProvider ParameterSet Retrieval</text><g><title>ParameterSet</title><rect fill="#FFFFFF" height="1449.9531" style="stroke:#181818;stroke-width:1;" width="10" x="417.2192" y="258.5234"/></g><rect fill="none" height="1406.8203" style="stroke:#000000;stroke-width:1.5;" width="681.9385" x="124.6304" y="273.5234"/><rect fill="none" height="158.3359" style="stroke:#000000;stroke-width:1.5;" width="510.2832" x="218.0283" y="381.9219"/><rect fill="none" height="330.6719" style="stroke:#000000;stroke-width:1.5;" width="625.5679" x="151.001" y="653.3281"/><rect fill="none" height="158.3359" style="stroke:#000000;stroke-width:1.5;" width="605.5679" x="161.001" y="761.7266"/><rect fill="none" height="576.2734" style="stroke:#000000;stroke-width:1.5;" width="661.9385" x="134.6304" y="1097.0703"/><rect fill="none" height="403.9375" style="stroke:#000000;stroke-width:1.5;" width="641.9385" x="144.6304" y="1205.4688"/><rect fill="none" height="273.7344" style="stroke:#000000;stroke-width:1.5;" width="625.5679" x="151.001" y="1229.6016"/><rect fill="none" height="158.3359" style="stroke:#000000;stroke-width:1.5;" width="605.5679" x="161.001" y="1338"/><g><title>UserApp</title><rect fill="#000000" fill-opacity="0.00000" height="1607.8828" width="8" x="130.6304" y="118.5938"/><line style="stroke:#181818;stroke-width:0.5;stroke-dasharray:5,5;" x1="134" x2="134" y1="118.5938" y2="1726.4766"/></g><g><title>ParameterSet</title><rect fill="#000000" fill-opacity="0.00000" height="1607.8828" width="8" x="418.2192" y="118.5938"/><line style="stroke:#181818;stroke-width:0.5;stroke-dasharray:5,5;" x1="421.9917" x2="421.9917" y1="118.5938" y2="1726.4766"/></g><g class="participant participant-head" data-participant="UserApp"><text fill="#000000" font-family="sans-serif" font-size="14" lengthAdjust="spacing" textLength="59.2607" x="102" y="115.292">UserApp</text><ellipse cx="134.6304" cy="50.7969" fill="#E2E2F0" rx="8" ry="8" style="stroke:#181818;stroke-width:0.5;"/><path d="M134.6304,58.7969 L134.6304,85.7969 M121.6304,66.7969 L147.6304,66.7969 M134.6304,85.7969 L121.6304,100.7969 M134.6304,85.7969 L147.6304,100.7969" fill="none" style="stroke:#181818;stroke-width:0.5;"/></g><g class="participant participant-tail" data-participant="UserApp"><text fill="#000000" font-family="sans-serif" font-size="14" lengthAdjust="spacing" textLength="59.2607" x="102" y="1738.4717">UserApp</text><ellipse cx="134.6304" cy="1750.2734" fill="#E2E2F0" rx="8" ry="8" style="stroke:#181818;stroke-width:0.5;"/><path d="M134.6304,1758.2734 L134.6304,1785.2734 M121.6304,1766.2734 L147.6304,1766.2734 M134.6304,1785.2734 L121.6304,1800.2734 M134.6304,1785.2734 L147.6304,1800.2734" fill="none" style="stroke:#181818;stroke-width:0.5;"/></g><g class="participant participant-head" data-participant="PS"><rect fill="#E2E2F0" height="30.2969" rx="2.5" ry="2.5" style="stroke:#181818;stroke-width:0.5;" width="110.4551" x="366.9917" y="87.2969"/><text fill="#000000" font-family="sans-serif" font-size="14" lengthAdjust="spacing" textLength="96.4551" x="373.9917" y="107.292">ParameterSet</text></g><g class="participant participant-tail" data-participant="PS"><rect fill="#E2E2F0" height="30.2969" rx="2.5" ry="2.5" style="stroke:#181818;stroke-width:0.5;" width="110.4551" x="366.9917" y="1725.4766"/><text fill="#000000" font-family="sans-serif" font-size="14" lengthAdjust="spacing" textLength="96.4551" x="373.9917" y="1745.4717">ParameterSet</text></g><g><title>ParameterSet</title><rect fill="#FFFFFF" height="1449.9531" style="stroke:#181818;stroke-width:1;" width="10" x="417.2192" y="258.5234"/></g><rect fill="#E6F2FF" height="98" style="stroke:#181818;stroke-width:0.5;" width="547" x="5" y="133.5938"/><text fill="#000000" font-family="sans-serif" font-size="13" lengthAdjust="spacing" textLength="150.2554" x="9" y="149.6606">Template T categories:</text><text fill="#000000" font-family="sans-serif" font-size="13" lengthAdjust="spacing" textLength="235.5488" x="9" y="164.7935">- PrimitiveType (int, bool, float, etc.)</text><text fill="#000000" font-family="sans-serif" font-size="13" lengthAdjust="spacing" textLength="288.2598" x="9" y="179.9263">- Array = amp::pmr::vector&lt;PrimitiveType&gt;</text><text fill="#000000" font-family="sans-serif" font-size="13" lengthAdjust="spacing" textLength="539.4111" x="9" y="195.0591">- TwoDimensionalArray = amp::pmr::vector&lt; amp::pmr::vector&lt;PrimitiveType&gt; &gt;</text><text fill="#000000" font-family="sans-serif" font-size="13" lengthAdjust="spacing" textLength="337.4731" x="9" y="210.1919">Error paths return Unexpected(ConfigProviderError)</text><text fill="#000000" font-family="sans-serif" font-size="13" lengthAdjust="spacing" textLength="433.3037" x="9" y="225.3247">Floating point conversion may fallback via int -&gt; float/double cast.</text><g class="message" data-participant-1="UserApp" data-participant-2="PS"><polygon fill="#181818" points="405.2192,254.5234,415.2192,258.5234,405.2192,262.5234,409.2192,258.5234" style="stroke:#181818;stroke-width:1;"/><line style="stroke:#181818;stroke-width:1;" x1="134.6304" x2="411.2192" y1="258.5234" y2="258.5234"/><text fill="#000000" font-family="sans-serif" font-size="13" lengthAdjust="spacing" textLength="258.9209" x="146.4644" y="253.4575">GetParameterAs&lt;T&gt;(parameter_name)</text></g><path d="M124.6304,273.5234 L189.0732,273.5234 L189.0732,280.6563 L179.0732,290.6563 L124.6304,290.6563 L124.6304,273.5234" fill="#EEEEEE" style="stroke:#000000;stroke-width:1.5;"/><rect fill="none" height="1406.8203" style="stroke:#000000;stroke-width:1.5;" width="681.9385" x="124.6304" y="273.5234"/><text fill="#000000" font-family="sans-serif" font-size="13" font-weight="bold" lengthAdjust="spacing" textLength="19.4429" x="139.6304" y="286.5903">alt</text><text fill="#000000" font-family="sans-serif" font-size="11" font-weight="bold" lengthAdjust="spacing" textLength="121.6929" x="204.0732" y="285.7339">[T is PrimitiveType]</text><g class="message" data-participant-1="PS" data-participant-2="PS"><line style="stroke:#181818;stroke-width:1;" x1="427.2192" x2="469.2192" y1="311.7891" y2="311.7891"/><line style="stroke:#181818;stroke-width:1;" x1="469.2192" x2="469.2192" y1="311.7891" y2="324.7891"/><line style="stroke:#181818;stroke-width:1;" x1="428.2192" x2="469.2192" y1="324.7891" y2="324.7891"/><polygon fill="#181818" points="438.2192,320.7891,428.2192,324.7891,438.2192,328.7891,434.2192,324.7891" style="stroke:#181818;stroke-width:1;"/><text fill="#000000" font-family="sans-serif" font-size="13" lengthAdjust="spacing" textLength="205.6895" x="434.2192" y="306.7231">GetParameterAsJsonAny(name)</text></g><g class="message" data-participant-1="PS" data-participant-2="PS"><line style="stroke:#181818;stroke-width:1;stroke-dasharray:2,2;" x1="375.2192" x2="416.2192" y1="353.9219" y2="353.9219"/><line style="stroke:#181818;stroke-width:1;stroke-dasharray:2,2;" x1="375.2192" x2="375.2192" y1="353.9219" y2="366.9219"/><line style="stroke:#181818;stroke-width:1;stroke-dasharray:2,2;" x1="375.2192" x2="415.2192" y1="366.9219" y2="366.9219"/><polygon fill="#181818" points="405.2192,362.9219,415.2192,366.9219,405.2192,370.9219,409.2192,366.9219" style="stroke:#181818;stroke-width:1;"/><text fill="#000000" font-family="sans-serif" font-size="13" lengthAdjust="spacing" textLength="144.752" x="265.4673" y="348.856">Result&lt;ref json::Any&gt;</text></g><path d="M218.0283,381.9219 L282.4712,381.9219 L282.4712,389.0547 L272.4712,399.0547 L218.0283,399.0547 L218.0283,381.9219" fill="#EEEEEE" style="stroke:#000000;stroke-width:1.5;"/><rect fill="none" height="158.3359" style="stroke:#000000;stroke-width:1.5;" width="510.2832" x="218.0283" y="381.9219"/><text fill="#000000" font-family="sans-serif" font-size="13" font-weight="bold" lengthAdjust="spacing" textLength="19.4429" x="233.0283" y="394.9888">alt</text><text fill="#000000" font-family="sans-serif" font-size="11" font-weight="bold" lengthAdjust="spacing" textLength="119.8774" x="297.4712" y="394.1323">[json::Any success]</text><g class="message" data-participant-1="PS" data-participant-2="PS"><line style="stroke:#181818;stroke-width:1;" x1="427.2192" x2="469.2192" y1="420.1875" y2="420.1875"/><line style="stroke:#181818;stroke-width:1;" x1="469.2192" x2="469.2192" y1="420.1875" y2="433.1875"/><line style="stroke:#181818;stroke-width:1;" x1="428.2192" x2="469.2192" y1="433.1875" y2="433.1875"/><polygon fill="#181818" points="438.2192,429.1875,428.2192,433.1875,438.2192,437.1875,434.2192,433.1875" style="stroke:#181818;stroke-width:1;"/><text fill="#000000" font-family="sans-serif" font-size="13" lengthAdjust="spacing" textLength="272.0923" x="434.2192" y="415.1216">ConvertJsonAnyToType&lt;PrimitiveType&gt;()</text></g><g class="message" data-participant-1="PS" data-participant-2="PS"><line style="stroke:#181818;stroke-width:1;stroke-dasharray:2,2;" x1="375.2192" x2="416.2192" y1="462.3203" y2="462.3203"/><line style="stroke:#181818;stroke-width:1;stroke-dasharray:2,2;" x1="375.2192" x2="375.2192" y1="462.3203" y2="475.3203"/><line style="stroke:#181818;stroke-width:1;stroke-dasharray:2,2;" x1="375.2192" x2="415.2192" y1="475.3203" y2="475.3203"/><polygon fill="#181818" points="405.2192,471.3203,415.2192,475.3203,405.2192,479.3203,409.2192,475.3203" style="stroke:#181818;stroke-width:1;"/><text fill="#000000" font-family="sans-serif" font-size="13" lengthAdjust="spacing" textLength="180.1909" x="230.0283" y="457.2544">PrimitiveType | Unexpected</text></g><line style="stroke:#000000;stroke-width:1;stroke-dasharray:2,2;" x1="218.0283" x2="728.3115" y1="484.3203" y2="484.3203"/><text fill="#000000" font-family="sans-serif" font-size="11" font-weight="bold" lengthAdjust="spacing" textLength="41.3467" x="223.0283" y="494.5308">[error]</text><g class="message" data-participant-1="PS" data-participant-2="PS"><line style="stroke:#181818;stroke-width:1;stroke-dasharray:2,2;" x1="375.2192" x2="416.2192" y1="519.2578" y2="519.2578"/><line style="stroke:#181818;stroke-width:1;stroke-dasharray:2,2;" x1="375.2192" x2="375.2192" y1="519.2578" y2="532.2578"/><line style="stroke:#181818;stroke-width:1;stroke-dasharray:2,2;" x1="375.2192" x2="415.2192" y1="532.2578" y2="532.2578"/><polygon fill="#181818" points="405.2192,528.2578,415.2192,532.2578,405.2192,536.2578,409.2192,532.2578" style="stroke:#181818;stroke-width:1;"/><text fill="#000000" font-family="sans-serif" font-size="13" lengthAdjust="spacing" textLength="120.3198" x="289.8994" y="514.1919">Unexpected(error)</text></g><line style="stroke:#000000;stroke-width:1;stroke-dasharray:2,2;" x1="124.6304" x2="806.5688" y1="548.2578" y2="548.2578"/><text fill="#000000" font-family="sans-serif" font-size="11" font-weight="bold" lengthAdjust="spacing" textLength="69.4912" x="129.6304" y="558.4683">[T is Array]</text><g class="message" data-participant-1="PS" data-participant-2="PS"><line style="stroke:#181818;stroke-width:1;" x1="427.2192" x2="469.2192" y1="583.1953" y2="583.1953"/><line style="stroke:#181818;stroke-width:1;" x1="469.2192" x2="469.2192" y1="583.1953" y2="596.1953"/><line style="stroke:#181818;stroke-width:1;" x1="428.2192" x2="469.2192" y1="596.1953" y2="596.1953"/><polygon fill="#181818" points="438.2192,592.1953,428.2192,596.1953,438.2192,600.1953,434.2192,596.1953" style="stroke:#181818;stroke-width:1;"/><text fill="#000000" font-family="sans-serif" font-size="13" lengthAdjust="spacing" textLength="205.6895" x="434.2192" y="578.1294">GetParameterAsJsonAny(name)</text></g><g class="message" data-participant-1="PS" data-participant-2="PS"><line style="stroke:#181818;stroke-width:1;stroke-dasharray:2,2;" x1="375.2192" x2="416.2192" y1="625.3281" y2="625.3281"/><line style="stroke:#181818;stroke-width:1;stroke-dasharray:2,2;" x1="375.2192" x2="375.2192" y1="625.3281" y2="638.3281"/><line style="stroke:#181818;stroke-width:1;stroke-dasharray:2,2;" x1="375.2192" x2="415.2192" y1="638.3281" y2="638.3281"/><polygon fill="#181818" points="405.2192,634.3281,415.2192,638.3281,405.2192,642.3281,409.2192,638.3281" style="stroke:#181818;stroke-width:1;"/><text fill="#000000" font-family="sans-serif" font-size="13" lengthAdjust="spacing" textLength="144.752" x="265.4673" y="620.2622">Result&lt;ref json::Any&gt;</text></g><path d="M151.001,653.3281 L215.4438,653.3281 L215.4438,660.4609 L205.4438,670.4609 L151.001,670.4609 L151.001,653.3281" fill="#EEEEEE" style="stroke:#000000;stroke-width:1.5;"/><rect fill="none" height="330.6719" style="stroke:#000000;stroke-width:1.5;" width="625.5679" x="151.001" y="653.3281"/><text fill="#000000" font-family="sans-serif" font-size="13" font-weight="bold" lengthAdjust="spacing" textLength="19.4429" x="166.001" y="666.395">alt</text><text fill="#000000" font-family="sans-serif" font-size="11" font-weight="bold" lengthAdjust="spacing" textLength="119.8774" x="230.4438" y="665.5386">[json::Any success]</text><g class="message" data-participant-1="PS" data-participant-2="PS"><line style="stroke:#181818;stroke-width:1;" x1="427.2192" x2="469.2192" y1="691.5938" y2="691.5938"/><line style="stroke:#181818;stroke-width:1;" x1="469.2192" x2="469.2192" y1="691.5938" y2="704.5938"/><line style="stroke:#181818;stroke-width:1;" x1="428.2192" x2="469.2192" y1="704.5938" y2="704.5938"/><polygon fill="#181818" points="438.2192,700.5938,428.2192,704.5938,438.2192,708.5938,434.2192,704.5938" style="stroke:#181818;stroke-width:1;"/><text fill="#000000" font-family="sans-serif" font-size="13" lengthAdjust="spacing" textLength="145.2979" x="434.2192" y="686.5278">value.As&lt;json::List&gt;()</text></g><g class="message" data-participant-1="PS" data-participant-2="PS"><line style="stroke:#181818;stroke-width:1;stroke-dasharray:2,2;" x1="375.2192" x2="416.2192" y1="733.7266" y2="733.7266"/><line style="stroke:#181818;stroke-width:1;stroke-dasharray:2,2;" x1="375.2192" x2="375.2192" y1="733.7266" y2="746.7266"/><line style="stroke:#181818;stroke-width:1;stroke-dasharray:2,2;" x1="375.2192" x2="415.2192" y1="746.7266" y2="746.7266"/><polygon fill="#181818" points="405.2192,742.7266,415.2192,746.7266,405.2192,750.7266,409.2192,746.7266" style="stroke:#181818;stroke-width:1;"/><text fill="#000000" font-family="sans-serif" font-size="13" lengthAdjust="spacing" textLength="120.5991" x="289.6201" y="728.6606">Result&lt;json::List&gt;</text></g><path d="M161.001,761.7266 L225.4438,761.7266 L225.4438,768.8594 L215.4438,778.8594 L161.001,778.8594 L161.001,761.7266" fill="#EEEEEE" style="stroke:#000000;stroke-width:1.5;"/><rect fill="none" height="158.3359" style="stroke:#000000;stroke-width:1.5;" width="605.5679" x="161.001" y="761.7266"/><text fill="#000000" font-family="sans-serif" font-size="13" font-weight="bold" lengthAdjust="spacing" textLength="19.4429" x="176.001" y="774.7935">alt</text><text fill="#000000" font-family="sans-serif" font-size="11" font-weight="bold" lengthAdjust="spacing" textLength="81.2056" x="240.4438" y="773.937">[list success]</text><g class="message" data-participant-1="PS" data-participant-2="PS"><line style="stroke:#181818;stroke-width:1;" x1="427.2192" x2="469.2192" y1="799.9922" y2="799.9922"/><line style="stroke:#181818;stroke-width:1;" x1="469.2192" x2="469.2192" y1="799.9922" y2="812.9922"/><line style="stroke:#181818;stroke-width:1;" x1="428.2192" x2="469.2192" y1="812.9922" y2="812.9922"/><polygon fill="#181818" points="438.2192,808.9922,428.2192,812.9922,438.2192,816.9922,434.2192,812.9922" style="stroke:#181818;stroke-width:1;"/><text fill="#000000" font-family="sans-serif" font-size="13" lengthAdjust="spacing" textLength="310.3496" x="434.2192" y="794.9263">ConvertJsonListToAmpVector&lt;PrimitiveType&gt;()</text></g><g class="message" data-participant-1="PS" data-participant-2="PS"><line style="stroke:#181818;stroke-width:1;stroke-dasharray:2,2;" x1="375.2192" x2="416.2192" y1="842.125" y2="842.125"/><line style="stroke:#181818;stroke-width:1;stroke-dasharray:2,2;" x1="375.2192" x2="375.2192" y1="842.125" y2="855.125"/><line style="stroke:#181818;stroke-width:1;stroke-dasharray:2,2;" x1="375.2192" x2="415.2192" y1="855.125" y2="855.125"/><polygon fill="#181818" points="405.2192,851.125,415.2192,855.125,405.2192,859.125,409.2192,855.125" style="stroke:#181818;stroke-width:1;"/><text fill="#000000" font-family="sans-serif" font-size="13" lengthAdjust="spacing" textLength="237.2183" x="173.001" y="837.0591">Array&lt;PrimitiveType&gt; | Unexpected</text></g><line style="stroke:#000000;stroke-width:1;stroke-dasharray:2,2;" x1="161.001" x2="766.5688" y1="864.125" y2="864.125"/><text fill="#000000" font-family="sans-serif" font-size="11" font-weight="bold" lengthAdjust="spacing" textLength="64.5229" x="166.001" y="874.3354">[list error]</text><g class="message" data-participant-1="PS" data-participant-2="PS"><line style="stroke:#181818;stroke-width:1;stroke-dasharray:2,2;" x1="375.2192" x2="416.2192" y1="899.0625" y2="899.0625"/><line style="stroke:#181818;stroke-width:1;stroke-dasharray:2,2;" x1="375.2192" x2="375.2192" y1="899.0625" y2="912.0625"/><line style="stroke:#181818;stroke-width:1;stroke-dasharray:2,2;" x1="375.2192" x2="415.2192" y1="912.0625" y2="912.0625"/><polygon fill="#181818" points="405.2192,908.0625,415.2192,912.0625,405.2192,916.0625,409.2192,912.0625" style="stroke:#181818;stroke-width:1;"/><text fill="#000000" font-family="sans-serif" font-size="13" lengthAdjust="spacing" textLength="206.2607" x="203.9585" y="893.9966">Unexpected(ValueCastingError)</text></g><line style="stroke:#000000;stroke-width:1;stroke-dasharray:2,2;" x1="151.001" x2="776.5688" y1="928.0625" y2="928.0625"/><text fill="#000000" font-family="sans-serif" font-size="11" font-weight="bold" lengthAdjust="spacing" textLength="70.8823" x="156.001" y="938.2729">[json error]</text><g class="message" data-participant-1="PS" data-participant-2="PS"><line style="stroke:#181818;stroke-width:1;stroke-dasharray:2,2;" x1="375.2192" x2="416.2192" y1="963" y2="963"/><line style="stroke:#181818;stroke-width:1;stroke-dasharray:2,2;" x1="375.2192" x2="375.2192" y1="963" y2="976"/><line style="stroke:#181818;stroke-width:1;stroke-dasharray:2,2;" x1="375.2192" x2="415.2192" y1="976" y2="976"/><polygon fill="#181818" points="405.2192,972,415.2192,976,405.2192,980,409.2192,976" style="stroke:#181818;stroke-width:1;"/><text fill="#000000" font-family="sans-serif" font-size="13" lengthAdjust="spacing" textLength="120.3198" x="289.8994" y="957.9341">Unexpected(error)</text></g><line style="stroke:#000000;stroke-width:1;stroke-dasharray:2,2;" x1="124.6304" x2="806.5688" y1="992" y2="992"/><text fill="#000000" font-family="sans-serif" font-size="11" font-weight="bold" lengthAdjust="spacing" textLength="171.2681" x="129.6304" y="1002.2104">[T is TwoDimensionalArray]</text><g class="message" data-participant-1="PS" data-participant-2="PS"><line style="stroke:#181818;stroke-width:1;" x1="427.2192" x2="469.2192" y1="1026.9375" y2="1026.9375"/><line style="stroke:#181818;stroke-width:1;" x1="469.2192" x2="469.2192" y1="1026.9375" y2="1039.9375"/><line style="stroke:#181818;stroke-width:1;" x1="428.2192" x2="469.2192" y1="1039.9375" y2="1039.9375"/><polygon fill="#181818" points="438.2192,1035.9375,428.2192,1039.9375,438.2192,1043.9375,434.2192,1039.9375" style="stroke:#181818;stroke-width:1;"/><text fill="#000000" font-family="sans-serif" font-size="13" lengthAdjust="spacing" textLength="205.6895" x="434.2192" y="1021.8716">GetParameterAsJsonAny(name)</text></g><g class="message" data-participant-1="PS" data-participant-2="PS"><line style="stroke:#181818;stroke-width:1;stroke-dasharray:2,2;" x1="375.2192" x2="416.2192" y1="1069.0703" y2="1069.0703"/><line style="stroke:#181818;stroke-width:1;stroke-dasharray:2,2;" x1="375.2192" x2="375.2192" y1="1069.0703" y2="1082.0703"/><line style="stroke:#181818;stroke-width:1;stroke-dasharray:2,2;" x1="375.2192" x2="415.2192" y1="1082.0703" y2="1082.0703"/><polygon fill="#181818" points="405.2192,1078.0703,415.2192,1082.0703,405.2192,1086.0703,409.2192,1082.0703" style="stroke:#181818;stroke-width:1;"/><text fill="#000000" font-family="sans-serif" font-size="13" lengthAdjust="spacing" textLength="144.752" x="265.4673" y="1064.0044">Result&lt;ref json::Any&gt;</text></g><path d="M134.6304,1097.0703 L199.0732,1097.0703 L199.0732,1104.2031 L189.0732,1114.2031 L134.6304,1114.2031 L134.6304,1097.0703" fill="#EEEEEE" style="stroke:#000000;stroke-width:1.5;"/><rect fill="none" height="576.2734" style="stroke:#000000;stroke-width:1.5;" width="661.9385" x="134.6304" y="1097.0703"/><text fill="#000000" font-family="sans-serif" font-size="13" font-weight="bold" lengthAdjust="spacing" textLength="19.4429" x="149.6304" y="1110.1372">alt</text><text fill="#000000" font-family="sans-serif" font-size="11" font-weight="bold" lengthAdjust="spacing" textLength="119.8774" x="214.0732" y="1109.2808">[json::Any success]</text><g class="message" data-participant-1="PS" data-participant-2="PS"><line style="stroke:#181818;stroke-width:1;" x1="427.2192" x2="469.2192" y1="1135.3359" y2="1135.3359"/><line style="stroke:#181818;stroke-width:1;" x1="469.2192" x2="469.2192" y1="1135.3359" y2="1148.3359"/><line style="stroke:#181818;stroke-width:1;" x1="428.2192" x2="469.2192" y1="1148.3359" y2="1148.3359"/><polygon fill="#181818" points="438.2192,1144.3359,428.2192,1148.3359,438.2192,1152.3359,434.2192,1148.3359" style="stroke:#181818;stroke-width:1;"/><text fill="#000000" font-family="sans-serif" font-size="13" lengthAdjust="spacing" textLength="144.4219" x="434.2192" y="1130.27">outer.As&lt;json::List&gt;()</text></g><g class="message" data-participant-1="PS" data-participant-2="PS"><line style="stroke:#181818;stroke-width:1;stroke-dasharray:2,2;" x1="375.2192" x2="416.2192" y1="1177.4688" y2="1177.4688"/><line style="stroke:#181818;stroke-width:1;stroke-dasharray:2,2;" x1="375.2192" x2="375.2192" y1="1177.4688" y2="1190.4688"/><line style="stroke:#181818;stroke-width:1;stroke-dasharray:2,2;" x1="375.2192" x2="415.2192" y1="1190.4688" y2="1190.4688"/><polygon fill="#181818" points="405.2192,1186.4688,415.2192,1190.4688,405.2192,1194.4688,409.2192,1190.4688" style="stroke:#181818;stroke-width:1;"/><text fill="#000000" font-family="sans-serif" font-size="13" lengthAdjust="spacing" textLength="120.5991" x="289.6201" y="1172.4028">Result&lt;json::List&gt;</text></g><path d="M144.6304,1205.4688 L209.0732,1205.4688 L209.0732,1212.6016 L199.0732,1222.6016 L144.6304,1222.6016 L144.6304,1205.4688" fill="#EEEEEE" style="stroke:#000000;stroke-width:1.5;"/><rect fill="none" height="403.9375" style="stroke:#000000;stroke-width:1.5;" width="641.9385" x="144.6304" y="1205.4688"/><text fill="#000000" font-family="sans-serif" font-size="13" font-weight="bold" lengthAdjust="spacing" textLength="19.4429" x="159.6304" y="1218.5356">alt</text><text fill="#000000" font-family="sans-serif" font-size="11" font-weight="bold" lengthAdjust="spacing" textLength="118.5669" x="224.0732" y="1217.6792">[outer list success]</text><path d="M151.001,1229.6016 L227.625,1229.6016 L227.625,1236.7344 L217.625,1246.7344 L151.001,1246.7344 L151.001,1229.6016" fill="#EEEEEE" style="stroke:#000000;stroke-width:1.5;"/><rect fill="none" height="273.7344" style="stroke:#000000;stroke-width:1.5;" width="625.5679" x="151.001" y="1229.6016"/><text fill="#000000" font-family="sans-serif" font-size="13" font-weight="bold" lengthAdjust="spacing" textLength="31.624" x="166.001" y="1242.6685">loop</text><text fill="#000000" font-family="sans-serif" font-size="11" font-weight="bold" lengthAdjust="spacing" textLength="131.1836" x="242.625" y="1241.812">[each outer element]</text><g class="message" data-participant-1="PS" data-participant-2="PS"><line style="stroke:#181818;stroke-width:1;" x1="427.2192" x2="469.2192" y1="1267.8672" y2="1267.8672"/><line style="stroke:#181818;stroke-width:1;" x1="469.2192" x2="469.2192" y1="1267.8672" y2="1280.8672"/><line style="stroke:#181818;stroke-width:1;" x1="428.2192" x2="469.2192" y1="1280.8672" y2="1280.8672"/><polygon fill="#181818" points="438.2192,1276.8672,428.2192,1280.8672,438.2192,1284.8672,434.2192,1280.8672" style="stroke:#181818;stroke-width:1;"/><text fill="#000000" font-family="sans-serif" font-size="13" lengthAdjust="spacing" textLength="143.2222" x="434.2192" y="1262.8013">inner.As&lt;json::List&gt;()</text></g><g class="message" data-participant-1="PS" data-participant-2="PS"><line style="stroke:#181818;stroke-width:1;stroke-dasharray:2,2;" x1="375.2192" x2="416.2192" y1="1310" y2="1310"/><line style="stroke:#181818;stroke-width:1;stroke-dasharray:2,2;" x1="375.2192" x2="375.2192" y1="1310" y2="1323"/><line style="stroke:#181818;stroke-width:1;stroke-dasharray:2,2;" x1="375.2192" x2="415.2192" y1="1323" y2="1323"/><polygon fill="#181818" points="405.2192,1319,415.2192,1323,405.2192,1327,409.2192,1323" style="stroke:#181818;stroke-width:1;"/><text fill="#000000" font-family="sans-serif" font-size="13" lengthAdjust="spacing" textLength="120.5991" x="289.6201" y="1304.9341">Result&lt;json::List&gt;</text></g><path d="M161.001,1338 L225.4438,1338 L225.4438,1345.1328 L215.4438,1355.1328 L161.001,1355.1328 L161.001,1338" fill="#EEEEEE" style="stroke:#000000;stroke-width:1.5;"/><rect fill="none" height="158.3359" style="stroke:#000000;stroke-width:1.5;" width="605.5679" x="161.001" y="1338"/><text fill="#000000" font-family="sans-serif" font-size="13" font-weight="bold" lengthAdjust="spacing" textLength="19.4429" x="176.001" y="1351.0669">alt</text><text fill="#000000" font-family="sans-serif" font-size="11" font-weight="bold" lengthAdjust="spacing" textLength="117.353" x="240.4438" y="1350.2104">[inner list success]</text><g class="message" data-participant-1="PS" data-participant-2="PS"><line style="stroke:#181818;stroke-width:1;" x1="427.2192" x2="469.2192" y1="1376.2656" y2="1376.2656"/><line style="stroke:#181818;stroke-width:1;" x1="469.2192" x2="469.2192" y1="1376.2656" y2="1389.2656"/><line style="stroke:#181818;stroke-width:1;" x1="428.2192" x2="469.2192" y1="1389.2656" y2="1389.2656"/><polygon fill="#181818" points="438.2192,1385.2656,428.2192,1389.2656,438.2192,1393.2656,434.2192,1389.2656" style="stroke:#181818;stroke-width:1;"/><text fill="#000000" font-family="sans-serif" font-size="13" lengthAdjust="spacing" textLength="310.3496" x="434.2192" y="1371.1997">ConvertJsonListToAmpVector&lt;PrimitiveType&gt;()</text></g><g class="message" data-participant-1="PS" data-participant-2="PS"><line style="stroke:#181818;stroke-width:1;stroke-dasharray:2,2;" x1="375.2192" x2="416.2192" y1="1418.3984" y2="1418.3984"/><line style="stroke:#181818;stroke-width:1;stroke-dasharray:2,2;" x1="375.2192" x2="375.2192" y1="1418.3984" y2="1431.3984"/><line style="stroke:#181818;stroke-width:1;stroke-dasharray:2,2;" x1="375.2192" x2="415.2192" y1="1431.3984" y2="1431.3984"/><polygon fill="#181818" points="405.2192,1427.3984,415.2192,1431.3984,405.2192,1435.3984,409.2192,1431.3984" style="stroke:#181818;stroke-width:1;"/><text fill="#000000" font-family="sans-serif" font-size="13" lengthAdjust="spacing" textLength="237.2183" x="173.001" y="1413.3325">Array&lt;PrimitiveType&gt; | Unexpected</text></g><line style="stroke:#000000;stroke-width:1;stroke-dasharray:2,2;" x1="161.001" x2="766.5688" y1="1440.3984" y2="1440.3984"/><text fill="#000000" font-family="sans-serif" font-size="11" font-weight="bold" lengthAdjust="spacing" textLength="100.6704" x="166.001" y="1450.6089">[inner list error]</text><g class="message" data-participant-1="PS" data-participant-2="PS"><line style="stroke:#181818;stroke-width:1;stroke-dasharray:2,2;" x1="375.2192" x2="416.2192" y1="1475.3359" y2="1475.3359"/><line style="stroke:#181818;stroke-width:1;stroke-dasharray:2,2;" x1="375.2192" x2="375.2192" y1="1475.3359" y2="1488.3359"/><line style="stroke:#181818;stroke-width:1;stroke-dasharray:2,2;" x1="375.2192" x2="415.2192" y1="1488.3359" y2="1488.3359"/><polygon fill="#181818" points="405.2192,1484.3359,415.2192,1488.3359,405.2192,1492.3359,409.2192,1488.3359" style="stroke:#181818;stroke-width:1;"/><text fill="#000000" font-family="sans-serif" font-size="13" lengthAdjust="spacing" textLength="206.2607" x="203.9585" y="1470.27">Unexpected(ValueCastingError)</text></g><g class="message" data-participant-1="PS" data-participant-2="PS"><line style="stroke:#181818;stroke-width:1;stroke-dasharray:2,2;" x1="375.2192" x2="416.2192" y1="1531.4688" y2="1531.4688"/><line style="stroke:#181818;stroke-width:1;stroke-dasharray:2,2;" x1="375.2192" x2="375.2192" y1="1531.4688" y2="1544.4688"/><line style="stroke:#181818;stroke-width:1;stroke-dasharray:2,2;" x1="375.2192" x2="415.2192" y1="1544.4688" y2="1544.4688"/><polygon fill="#181818" points="405.2192,1540.4688,415.2192,1544.4688,405.2192,1548.4688,409.2192,1544.4688" style="stroke:#181818;stroke-width:1;"/><text fill="#000000" font-family="sans-serif" font-size="13" lengthAdjust="spacing" textLength="253.5889" x="156.6304" y="1526.4028">TwoDimensionalArray&lt;PrimitiveType&gt;</text></g><line style="stroke:#000000;stroke-width:1;stroke-dasharray:2,2;" x1="144.6304" x2="786.5688" y1="1553.4688" y2="1553.4688"/><text fill="#000000" font-family="sans-serif" font-size="11" font-weight="bold" lengthAdjust="spacing" textLength="101.8843" x="149.6304" y="1563.6792">[outer list error]</text><g class="message" data-participant-1="PS" data-participant-2="PS"><line style="stroke:#181818;stroke-width:1;stroke-dasharray:2,2;" x1="375.2192" x2="416.2192" y1="1588.4063" y2="1588.4063"/><line style="stroke:#181818;stroke-width:1;stroke-dasharray:2,2;" x1="375.2192" x2="375.2192" y1="1588.4063" y2="1601.4063"/><line style="stroke:#181818;stroke-width:1;stroke-dasharray:2,2;" x1="375.2192" x2="415.2192" y1="1601.4063" y2="1601.4063"/><polygon fill="#181818" points="405.2192,1597.4063,415.2192,1601.4063,405.2192,1605.4063,409.2192,1601.4063" style="stroke:#181818;stroke-width:1;"/><text fill="#000000" font-family="sans-serif" font-size="13" lengthAdjust="spacing" textLength="206.2607" x="203.9585" y="1583.3403">Unexpected(ValueCastingError)</text></g><line style="stroke:#000000;stroke-width:1;stroke-dasharray:2,2;" x1="134.6304" x2="796.5688" y1="1617.4063" y2="1617.4063"/><text fill="#000000" font-family="sans-serif" font-size="11" font-weight="bold" lengthAdjust="spacing" textLength="70.8823" x="139.6304" y="1627.6167">[json error]</text><g class="message" data-participant-1="PS" data-participant-2="PS"><line style="stroke:#181818;stroke-width:1;stroke-dasharray:2,2;" x1="375.2192" x2="416.2192" y1="1652.3438" y2="1652.3438"/><line style="stroke:#181818;stroke-width:1;stroke-dasharray:2,2;" x1="375.2192" x2="375.2192" y1="1652.3438" y2="1665.3438"/><line style="stroke:#181818;stroke-width:1;stroke-dasharray:2,2;" x1="375.2192" x2="415.2192" y1="1665.3438" y2="1665.3438"/><polygon fill="#181818" points="405.2192,1661.3438,415.2192,1665.3438,405.2192,1669.3438,409.2192,1665.3438" style="stroke:#181818;stroke-width:1;"/><text fill="#000000" font-family="sans-serif" font-size="13" lengthAdjust="spacing" textLength="120.3198" x="289.8994" y="1647.2778">Unexpected(error)</text></g><g class="message" data-participant-1="PS" data-participant-2="UserApp"><polygon fill="#181818" points="145.6304,1704.4766,135.6304,1708.4766,145.6304,1712.4766,141.6304,1708.4766" style="stroke:#181818;stroke-width:1;"/><line style="stroke:#181818;stroke-width:1;stroke-dasharray:2,2;" x1="139.6304" x2="421.2192" y1="1708.4766" y2="1708.4766"/><text fill="#000000" font-family="sans-serif" font-size="13" lengthAdjust="spacing" textLength="70.478" x="243.1858" y="1703.4106">Result&lt;T&gt;</text></g><!--SRC=[pLNHZX8n57tlLzoiBv009ZxuC44IH30nQiWokw-cp5pOkfssjfrH4Z_UsmBZp01hT3TPIM3IwUczf-USKY-yH9XfjH7RfTMLoD72abjUe4UxGW_NwAt0YalcxeKoOGfM-Ar4bU4dT8vlSIh5LXMeF6JqWxQ1_AmzlkNP_TRgKkKpBRM55_FNYrUB1MCyypIySMYdnZ1Qu4Kc3ASwLqqALy0TB5UCMKNLG5TOBng4zoaMHdAQII6ZnrOJNvUm8IojA8GN5QOxWz0JoWzWhRKSm4PgJWFqsQXFmAcrV0TlW1ScIKnXawJ2m6tSgZ0XPFfTlnEqLIUqulBYkZzLWWcRMqkRDzpVER3eIwlWHk4FGt3CUsr78hRF5e6rK5imMWInjI8f0XCeYCQ6IxacgQ4I7CBySBBVvyjSbsjoEUFEZnYgFEh8s473W5kk887tw6lPfswSJdhcEFoYwDaFXeagA4sgS-b9SE7QAZEW3rKxN_E3qsggThrzjGDqF1pkiTVeIkd75ZVmbO19Gj19H8LUzIjmPPPHyE9CfzqiIk8FVL8TA7Max_MR2-lcxQpyR7WHuIWT0WORpgvkE8Txh-8YbREuCEeKm_BC-j0nBd54vkxH7uNpbmGvT6i0QrXe9-dDIQVBReG2gPuMvlRSSMXGwDA8gdLFpuazjKMHLjkd1xow3NBCw5ZGePh_zkteNLqrYF18zy_ySJnp5dH9VPua2x7IvKH8hGqWp-uEG9GOBeiMfiDDAFKGjx_asEGQAr_c-eGfVboQMwbka3xDzhzdl9lrI-DcvJCvxjwIBUgDRFn7nvA-nzkl6w1qmd9iNdI_0000]--></g></svg>