<svg xmlns="http://www.w3.org/2000/svg" xmlns:xlink="http://www.w3.org/1999/xlink" contentStyleType="text/css" data-diagram-type="SEQUENCE" height="1365px" preserveAspectRatio="none" style="width:1743px;height:1365px;background:#FFFFFF;" version="1.1" viewBox="0 0 1743 1365" width="1743px" zoomAndPan="magnify"><title>Synchronization between In-Memory Cache and Persistency before Connected to Proxy</title><defs/><g><text fill="#000000" font-family="sans-serif" font-size="14" font-weight="bold" lengthAdjust="spacing" textLength="689.3428" x="527.9873" y="27.9951">Synchronization between In-Memory Cache and Persistency before Connected to Proxy</text><g><title>ConfigProviderFactory</title><rect fill="#FFFFFF" height="1216.6875" style="stroke:#181818;stroke-width:1;" width="10" x="242.5229" y="104.7266"/></g><g><title>Persistency</title><rect fill="#FFFFFF" height="1111.125" style="stroke:#181818;stroke-width:1;" width="10" x="1107.1582" y="210.2891"/></g><rect fill="none" height="539.0625" style="stroke:#000000;stroke-width:1.5;" width="1308.3174" x="428" y="435.2188"/><rect fill="none" height="46.2656" style="stroke:#000000;stroke-width:1.5;" width="671.2827" x="1055.0347" y="552.75"/><rect fill="none" height="146.6641" style="stroke:#000000;stroke-width:1.5;" width="1219.6118" x="506.7056" y="785.4844"/><rect fill="none" height="160.4688" style="stroke:#000000;stroke-width:1.5;" width="711.6504" x="10" y="1152.9453"/><g><title>ClientApplication</title><rect fill="#000000" fill-opacity="0.00000" height="1256.8203" width="8" x="82.377" y="73.5938"/><line style="stroke:#181818;stroke-width:0.5;stroke-dasharray:5,5;" x1="86" x2="86" y1="73.5938" y2="1330.4141"/></g><g><title>ConfigProviderFactory</title><rect fill="#000000" fill-opacity="0.00000" height="1256.8203" width="8" x="243.5229" y="73.5938"/><line style="stroke:#181818;stroke-width:0.5;stroke-dasharray:5,5;" x1="246.7539" x2="246.7539" y1="73.5938" y2="1330.4141"/></g><g><title>ConfigProviderImpl</title><rect fill="#000000" fill-opacity="0.00000" height="1187.0391" width="8" x="586.5337" y="143.375"/><line style="stroke:#181818;stroke-width:0.5;stroke-dasharray:5,5;" x1="589.7056" x2="589.7056" y1="143.375" y2="1330.4141"/></g><g><title>Persistency</title><rect fill="#000000" fill-opacity="0.00000" height="1256.8203" width="8" x="1108.1582" y="73.5938"/><line style="stroke:#181818;stroke-width:0.5;stroke-dasharray:5,5;" x1="1112.0347" x2="1112.0347" y1="73.5938" y2="1330.4141"/></g><g><title>Filesystem</title><rect fill="#000000" fill-opacity="0.00000" height="1256.8203" width="8" x="1523.4004" y="73.5938"/><line style="stroke:#181818;stroke-width:0.5;stroke-dasharray:5,5;" x1="1526.8711" x2="1526.8711" y1="73.5938" y2="1330.4141"/></g><g><title>KeyValueStorage</title><rect fill="#000000" fill-opacity="0.00000" height="1256.8203" width="8" x="1645.1235" y="73.5938"/><line style="stroke:#181818;stroke-width:0.5;stroke-dasharray:5,5;" x1="1648.9297" x2="1648.9297" y1="73.5938" y2="1330.4141"/></g><g class="participant participant-head" data-participant="App"><rect fill="#E2E2F0" height="30.2969" rx="2.5" ry="2.5" style="stroke:#181818;stroke-width:0.5;" width="132.7539" x="20" y="42.2969"/><text fill="#000000" font-family="sans-serif" font-size="14" lengthAdjust="spacing" textLength="118.7539" x="27" y="62.292">ClientApplication</text></g><g class="participant participant-tail" data-participant="App"><rect fill="#E2E2F0" height="30.2969" rx="2.5" ry="2.5" style="stroke:#181818;stroke-width:0.5;" width="132.7539" x="20" y="1329.4141"/><text fill="#000000" font-family="sans-serif" font-size="14" lengthAdjust="spacing" textLength="118.7539" x="27" y="1349.4092">ClientApplication</text></g><g class="participant participant-head" data-participant="Factory"><rect fill="#E2E2F0" height="30.2969" rx="2.5" ry="2.5" style="stroke:#181818;stroke-width:0.5;" width="169.5381" x="162.7539" y="42.2969"/><text fill="#000000" font-family="sans-serif" font-size="14" lengthAdjust="spacing" textLength="155.5381" x="169.7539" y="62.292">ConfigProviderFactory</text></g><g class="participant participant-tail" data-participant="Factory"><rect fill="#E2E2F0" height="30.2969" rx="2.5" ry="2.5" style="stroke:#181818;stroke-width:0.5;" width="169.5381" x="162.7539" y="1329.4141"/><text fill="#000000" font-family="sans-serif" font-size="14" lengthAdjust="spacing" textLength="155.5381" x="169.7539" y="1349.4092">ConfigProviderFactory</text></g><g class="participant participant-tail" data-participant="CPImpl"><rect fill="#E2E2F0" height="30.2969" rx="2.5" ry="2.5" style="stroke:#181818;stroke-width:0.5;" width="147.6563" x="516.7056" y="1329.4141"/><text fill="#000000" font-family="sans-serif" font-size="14" lengthAdjust="spacing" textLength="133.6563" x="523.7056" y="1349.4092">ConfigProviderImpl</text></g><g class="participant participant-head" data-participant="Persist"><rect fill="#E2E2F0" height="30.2969" rx="2.5" ry="2.5" style="stroke:#181818;stroke-width:0.5;" width="94.2471" x="1065.0347" y="42.2969"/><text fill="#000000" font-family="sans-serif" font-size="14" lengthAdjust="spacing" textLength="80.2471" x="1072.0347" y="62.292">Persistency</text></g><g class="participant participant-tail" data-participant="Persist"><rect fill="#E2E2F0" height="30.2969" rx="2.5" ry="2.5" style="stroke:#181818;stroke-width:0.5;" width="94.2471" x="1065.0347" y="1329.4141"/><text fill="#000000" font-family="sans-serif" font-size="14" lengthAdjust="spacing" textLength="80.2471" x="1072.0347" y="1349.4092">Persistency</text></g><g class="participant participant-head" data-participant="FS"><rect fill="#E2E2F0" height="30.2969" rx="2.5" ry="2.5" style="stroke:#181818;stroke-width:0.5;" width="89.0586" x="1482.8711" y="42.2969"/><text fill="#000000" font-family="sans-serif" font-size="14" lengthAdjust="spacing" textLength="75.0586" x="1489.8711" y="62.292">Filesystem</text></g><g class="participant participant-tail" data-participant="FS"><rect fill="#E2E2F0" height="30.2969" rx="2.5" ry="2.5" style="stroke:#181818;stroke-width:0.5;" width="89.0586" x="1482.8711" y="1329.4141"/><text fill="#000000" font-family="sans-serif" font-size="14" lengthAdjust="spacing" textLength="75.0586" x="1489.8711" y="1349.4092">Filesystem</text></g><g class="participant participant-head" data-participant="KVS"><rect fill="#E2E2F0" height="30.2969" rx="2.5" ry="2.5" style="stroke:#181818;stroke-width:0.5;" width="134.3877" x="1581.9297" y="42.2969"/><text fill="#000000" font-family="sans-serif" font-size="14" lengthAdjust="spacing" textLength="120.3877" x="1588.9297" y="62.292">KeyValueStorage</text></g><g class="participant participant-tail" data-participant="KVS"><rect fill="#E2E2F0" height="30.2969" rx="2.5" ry="2.5" style="stroke:#181818;stroke-width:0.5;" width="134.3877" x="1581.9297" y="1329.4141"/><text fill="#000000" font-family="sans-serif" font-size="14" lengthAdjust="spacing" textLength="120.3877" x="1588.9297" y="1349.4092">KeyValueStorage</text></g><g><title>ConfigProviderFactory</title><rect fill="#FFFFFF" height="1216.6875" style="stroke:#181818;stroke-width:1;" width="10" x="242.5229" y="104.7266"/></g><g><title>Persistency</title><rect fill="#FFFFFF" height="1111.125" style="stroke:#181818;stroke-width:1;" width="10" x="1107.1582" y="210.2891"/></g><g class="message" data-participant-1="App" data-participant-2="Factory"><polygon fill="#181818" points="230.5229,100.7266,240.5229,104.7266,230.5229,108.7266,234.5229,104.7266" style="stroke:#181818;stroke-width:1;"/><line style="stroke:#181818;stroke-width:1;" x1="86.377" x2="236.5229" y1="104.7266" y2="104.7266"/><text fill="#000000" font-family="sans-serif" font-size="13" lengthAdjust="spacing" textLength="128.5527" x="93.377" y="99.6606">Create(persistency)</text></g><g class="message" data-participant-1="Factory" data-participant-2="CPImpl"><polygon fill="#181818" points="504.7056,129.8594,514.7056,133.8594,504.7056,137.8594,508.7056,133.8594" style="stroke:#181818;stroke-width:1;"/><line style="stroke:#181818;stroke-width:1;" x1="252.5229" x2="510.7056" y1="133.8594" y2="133.8594"/><text fill="#000000" font-family="sans-serif" font-size="13" lengthAdjust="spacing" textLength="240.1826" x="259.5229" y="128.7935">new ConfigProviderImpl(persistency)</text></g><rect fill="#E2E2F0" height="30.2969" rx="2.5" ry="2.5" style="stroke:#181818;stroke-width:0.5;" width="147.6563" x="516.7056" y="112.7266"/><text fill="#000000" font-family="sans-serif" font-size="14" lengthAdjust="spacing" textLength="133.6563" x="523.7056" y="132.7217">ConfigProviderImpl</text><path d="M521,159.0234 L521,184.0234 L659,184.0234 L659,169.0234 L649,159.0234 L521,159.0234" fill="#FEFFDD" style="stroke:#181818;stroke-width:0.5;"/><path d="M649,159.0234 L649,169.0234 L659,169.0234 L649,159.0234" fill="#FEFFDD" style="stroke:#181818;stroke-width:0.5;"/><text fill="#000000" font-family="sans-serif" font-size="13" lengthAdjust="spacing" textLength="117.4507" x="527" y="176.0903">Constructor starts</text><g class="message" data-participant-1="CPImpl" data-participant-2="Persist"><polygon fill="#181818" points="1095.1582,206.2891,1105.1582,210.2891,1095.1582,214.2891,1099.1582,210.2891" style="stroke:#181818;stroke-width:1;"/><line style="stroke:#181818;stroke-width:1;" x1="590.5337" x2="1101.1582" y1="210.2891" y2="210.2891"/><text fill="#000000" font-family="sans-serif" font-size="13" lengthAdjust="spacing" textLength="497.6245" x="597.5337" y="205.2231">ReadCachedParameterSets(parameter_sets_, memory_resource, filesystem)</text></g><path d="M1036,223.2891 L1036,248.2891 L1186,248.2891 L1186,233.2891 L1176,223.2891 L1036,223.2891" fill="#FEFFDD" style="stroke:#181818;stroke-width:0.5;"/><path d="M1176,223.2891 L1176,233.2891 L1186,233.2891 L1176,223.2891" fill="#FEFFDD" style="stroke:#181818;stroke-width:0.5;"/><text fill="#000000" font-family="sans-serif" font-size="13" lengthAdjust="spacing" textLength="129.4414" x="1042" y="240.356">Check flash counter</text><g class="message" data-participant-1="Persist" data-participant-2="FS"><polygon fill="#181818" points="1515.4004,270.5547,1525.4004,274.5547,1515.4004,278.5547,1519.4004,274.5547" style="stroke:#181818;stroke-width:1;"/><line style="stroke:#181818;stroke-width:1;" x1="1117.1582" x2="1521.4004" y1="274.5547" y2="274.5547"/><text fill="#000000" font-family="sans-serif" font-size="13" lengthAdjust="spacing" textLength="386.2422" x="1124.1582" y="269.4888">Open("/persistent/untrusted/ConfigProvider/flash_counter")</text></g><g class="message" data-participant-1="FS" data-participant-2="Persist"><polygon fill="#181818" points="1128.1582,299.6875,1118.1582,303.6875,1128.1582,307.6875,1124.1582,303.6875" style="stroke:#181818;stroke-width:1;"/><line style="stroke:#181818;stroke-width:1;stroke-dasharray:2,2;" x1="1122.1582" x2="1526.4004" y1="303.6875" y2="303.6875"/><text fill="#000000" font-family="sans-serif" font-size="13" lengthAdjust="spacing" textLength="68.2373" x="1134.1582" y="298.6216">file handle</text></g><g class="message" data-participant-1="Persist" data-participant-2="FS"><polygon fill="#181818" points="1515.4004,328.8203,1525.4004,332.8203,1515.4004,336.8203,1519.4004,332.8203" style="stroke:#181818;stroke-width:1;"/><line style="stroke:#181818;stroke-width:1;" x1="1117.1582" x2="1521.4004" y1="332.8203" y2="332.8203"/><text fill="#000000" font-family="sans-serif" font-size="13" lengthAdjust="spacing" textLength="85.5981" x="1124.1582" y="327.7544">Read 4 bytes</text></g><g class="message" data-participant-1="FS" data-participant-2="Persist"><polygon fill="#181818" points="1128.1582,357.9531,1118.1582,361.9531,1128.1582,365.9531,1124.1582,361.9531" style="stroke:#181818;stroke-width:1;"/><line style="stroke:#181818;stroke-width:1;stroke-dasharray:2,2;" x1="1122.1582" x2="1526.4004" y1="361.9531" y2="361.9531"/><text fill="#000000" font-family="sans-serif" font-size="13" lengthAdjust="spacing" textLength="127.6323" x="1134.1582" y="356.8872">flash_counter bytes</text></g><g class="message" data-participant-1="Persist" data-participant-2="KVS"><polygon fill="#181818" points="1637.1235,387.0859,1647.1235,391.0859,1637.1235,395.0859,1641.1235,391.0859" style="stroke:#181818;stroke-width:1;"/><line style="stroke:#181818;stroke-width:1;" x1="1117.1582" x2="1643.1235" y1="391.0859" y2="391.0859"/><text fill="#000000" font-family="sans-serif" font-size="13" lengthAdjust="spacing" textLength="245.1782" x="1124.1582" y="386.02">get&lt;Vector&lt;Byte&gt;&gt;("FlashCounter")</text></g><g class="message" data-participant-1="KVS" data-participant-2="Persist"><polygon fill="#181818" points="1128.1582,416.2188,1118.1582,420.2188,1128.1582,424.2188,1124.1582,420.2188" style="stroke:#181818;stroke-width:1;"/><line style="stroke:#181818;stroke-width:1;stroke-dasharray:2,2;" x1="1122.1582" x2="1648.1235" y1="420.2188" y2="420.2188"/><text fill="#000000" font-family="sans-serif" font-size="13" lengthAdjust="spacing" textLength="140.937" x="1134.1582" y="415.1528">cached_flash_counter</text></g><path d="M428,435.2188 L492.4429,435.2188 L492.4429,442.3516 L482.4429,452.3516 L428,452.3516 L428,435.2188" fill="#EEEEEE" style="stroke:#000000;stroke-width:1.5;"/><rect fill="none" height="539.0625" style="stroke:#000000;stroke-width:1.5;" width="1308.3174" x="428" y="435.2188"/><text fill="#000000" font-family="sans-serif" font-size="13" font-weight="bold" lengthAdjust="spacing" textLength="19.4429" x="443" y="448.2856">alt</text><text fill="#000000" font-family="sans-serif" font-size="11" font-weight="bold" lengthAdjust="spacing" textLength="154.6016" x="507.4429" y="447.4292">[Flash Counter Changed]</text><path d="M1005,457.3516 L1005,482.3516 L1218,482.3516 L1218,467.3516 L1208,457.3516 L1005,457.3516" fill="#FEFFDD" style="stroke:#181818;stroke-width:0.5;"/><path d="M1208,457.3516 L1208,467.3516 L1218,467.3516 L1208,457.3516" fill="#FEFFDD" style="stroke:#181818;stroke-width:0.5;"/><text fill="#000000" font-family="sans-serif" font-size="13" lengthAdjust="spacing" textLength="192.3657" x="1011" y="474.4185">Flash detected - invalidate all</text><g class="message" data-participant-1="Persist" data-participant-2="KVS"><polygon fill="#181818" points="1637.1235,504.6172,1647.1235,508.6172,1637.1235,512.6172,1641.1235,508.6172" style="stroke:#181818;stroke-width:1;"/><line style="stroke:#181818;stroke-width:1;" x1="1117.1582" x2="1643.1235" y1="508.6172" y2="508.6172"/><text fill="#000000" font-family="sans-serif" font-size="13" lengthAdjust="spacing" textLength="101.5879" x="1124.1582" y="503.5513">getAllKvsKeys()</text></g><g class="message" data-participant-1="KVS" data-participant-2="Persist"><polygon fill="#181818" points="1128.1582,533.75,1118.1582,537.75,1128.1582,541.75,1124.1582,537.75" style="stroke:#181818;stroke-width:1;"/><line style="stroke:#181818;stroke-width:1;stroke-dasharray:2,2;" x1="1122.1582" x2="1648.1235" y1="537.75" y2="537.75"/><text fill="#000000" font-family="sans-serif" font-size="13" lengthAdjust="spacing" textLength="49.3149" x="1134.1582" y="532.6841">all keys</text></g><path d="M1055.0347,552.75 L1131.6587,552.75 L1131.6587,559.8828 L1121.6587,569.8828 L1055.0347,569.8828 L1055.0347,552.75" fill="#EEEEEE" style="stroke:#000000;stroke-width:1.5;"/><rect fill="none" height="46.2656" style="stroke:#000000;stroke-width:1.5;" width="671.2827" x="1055.0347" y="552.75"/><text fill="#000000" font-family="sans-serif" font-size="13" font-weight="bold" lengthAdjust="spacing" textLength="31.624" x="1070.0347" y="565.8169">loop</text><text fill="#000000" font-family="sans-serif" font-size="11" font-weight="bold" lengthAdjust="spacing" textLength="89.3911" x="1146.6587" y="564.9604">[For each key]</text><g class="message" data-participant-1="Persist" data-participant-2="KVS"><polygon fill="#181818" points="1637.1235,587.0156,1647.1235,591.0156,1637.1235,595.0156,1641.1235,591.0156" style="stroke:#181818;stroke-width:1;"/><line style="stroke:#181818;stroke-width:1;" x1="1117.1582" x2="1643.1235" y1="591.0156" y2="591.0156"/><text fill="#000000" font-family="sans-serif" font-size="13" lengthAdjust="spacing" textLength="107.231" x="1124.1582" y="585.9497">removeKey(key)</text></g><g class="message" data-participant-1="Persist" data-participant-2="KVS"><polygon fill="#181818" points="1637.1235,623.1484,1647.1235,627.1484,1637.1235,631.1484,1641.1235,627.1484" style="stroke:#181818;stroke-width:1;"/><line style="stroke:#181818;stroke-width:1;" x1="1117.1582" x2="1643.1235" y1="627.1484" y2="627.1484"/><text fill="#000000" font-family="sans-serif" font-size="13" lengthAdjust="spacing" textLength="257.3086" x="1124.1582" y="622.0825">set("FlashCounter", new_flash_counter)</text></g><path d="M474,640.1484 L474,665.1484 L705,665.1484 L705,650.1484 L695,640.1484 L474,640.1484" fill="#FEFFDD" style="stroke:#181818;stroke-width:0.5;"/><path d="M695,640.1484 L695,650.1484 L705,650.1484 L695,640.1484" fill="#FEFFDD" style="stroke:#181818;stroke-width:0.5;"/><text fill="#000000" font-family="sans-serif" font-size="13" lengthAdjust="spacing" textLength="210.8374" x="480" y="657.2153">parameter_sets_ remains empty</text><line style="stroke:#000000;stroke-width:1;stroke-dasharray:2,2;" x1="428" x2="1736.3174" y1="671.2813" y2="671.2813"/><text fill="#000000" font-family="sans-serif" font-size="11" font-weight="bold" lengthAdjust="spacing" textLength="169.8125" x="433" y="681.4917">[Flash Counter Unchanged]</text><path d="M1008,690.0859 L1008,715.0859 L1214,715.0859 L1214,700.0859 L1204,690.0859 L1008,690.0859" fill="#FEFFDD" style="stroke:#181818;stroke-width:0.5;"/><path d="M1204,690.0859 L1204,700.0859 L1214,700.0859 L1204,690.0859" fill="#FEFFDD" style="stroke:#181818;stroke-width:0.5;"/><text fill="#000000" font-family="sans-serif" font-size="13" lengthAdjust="spacing" textLength="185.834" x="1014" y="707.1528">Load cached parameter sets</text><g class="message" data-participant-1="Persist" data-participant-2="KVS"><polygon fill="#181818" points="1637.1235,737.3516,1647.1235,741.3516,1637.1235,745.3516,1641.1235,741.3516" style="stroke:#181818;stroke-width:1;"/><line style="stroke:#181818;stroke-width:1;" x1="1117.1582" x2="1643.1235" y1="741.3516" y2="741.3516"/><text fill="#000000" font-family="sans-serif" font-size="13" lengthAdjust="spacing" textLength="101.5879" x="1124.1582" y="736.2856">getAllKvsKeys()</text></g><g class="message" data-participant-1="KVS" data-participant-2="Persist"><polygon fill="#181818" points="1128.1582,766.4844,1118.1582,770.4844,1128.1582,774.4844,1124.1582,770.4844" style="stroke:#181818;stroke-width:1;"/><line style="stroke:#181818;stroke-width:1;stroke-dasharray:2,2;" x1="1122.1582" x2="1648.1235" y1="770.4844" y2="770.4844"/><text fill="#000000" font-family="sans-serif" font-size="13" lengthAdjust="spacing" textLength="40.7964" x="1134.1582" y="765.4185">["CfgP</text><text fill="#000000" font-family="sans-serif" font-size="13" lengthAdjust="spacing" text-decoration="underline" textLength="80.209" x="1174.9546" y="765.4185">SetA", "CfgP</text><text fill="#000000" font-family="sans-serif" font-size="13" lengthAdjust="spacing" textLength="61.9785" x="1255.1636" y="765.4185">SetB", ...]</text></g><path d="M506.7056,785.4844 L583.3296,785.4844 L583.3296,792.6172 L573.3296,802.6172 L506.7056,802.6172 L506.7056,785.4844" fill="#EEEEEE" style="stroke:#000000;stroke-width:1.5;"/><rect fill="none" height="146.6641" style="stroke:#000000;stroke-width:1.5;" width="1219.6118" x="506.7056" y="785.4844"/><text fill="#000000" font-family="sans-serif" font-size="13" font-weight="bold" lengthAdjust="spacing" textLength="31.624" x="521.7056" y="798.5513">loop</text><text fill="#000000" font-family="sans-serif" font-size="11" font-weight="bold" lengthAdjust="spacing" textLength="150.2295" x="598.3296" y="797.6948">[For each "CfgP__*" key]</text><g class="message" data-participant-1="Persist" data-participant-2="KVS"><polygon fill="#181818" points="1637.1235,819.75,1647.1235,823.75,1637.1235,827.75,1641.1235,823.75" style="stroke:#181818;stroke-width:1;"/><line style="stroke:#181818;stroke-width:1;" x1="1117.1582" x2="1643.1235" y1="823.75" y2="823.75"/><text fill="#000000" font-family="sans-serif" font-size="13" lengthAdjust="spacing" textLength="113.8135" x="1124.1582" y="818.6841">get&lt;string&gt;(key)</text></g><g class="message" data-participant-1="KVS" data-participant-2="Persist"><polygon fill="#181818" points="1128.1582,848.8828,1118.1582,852.8828,1128.1582,856.8828,1124.1582,852.8828" style="stroke:#181818;stroke-width:1;"/><line style="stroke:#181818;stroke-width:1;stroke-dasharray:2,2;" x1="1122.1582" x2="1648.1235" y1="852.8828" y2="852.8828"/><text fill="#000000" font-family="sans-serif" font-size="13" lengthAdjust="spacing" textLength="73.4932" x="1134.1582" y="847.8169">JSON string</text></g><g class="message" data-participant-1="Persist" data-participant-2="Persist"><line style="stroke:#181818;stroke-width:1;" x1="1117.1582" x2="1159.1582" y1="882.0156" y2="882.0156"/><line style="stroke:#181818;stroke-width:1;" x1="1159.1582" x2="1159.1582" y1="882.0156" y2="895.0156"/><line style="stroke:#181818;stroke-width:1;" x1="1118.1582" x2="1159.1582" y1="895.0156" y2="895.0156"/><polygon fill="#181818" points="1128.1582,891.0156,1118.1582,895.0156,1128.1582,899.0156,1124.1582,895.0156" style="stroke:#181818;stroke-width:1;"/><text fill="#000000" font-family="sans-serif" font-size="13" lengthAdjust="spacing" textLength="229.1631" x="1124.1582" y="876.9497">Parse JSON + mark as kUnqualified</text></g><g class="message" data-participant-1="Persist" data-participant-2="CPImpl"><polygon fill="#181818" points="601.5337,920.1484,591.5337,924.1484,601.5337,928.1484,597.5337,924.1484" style="stroke:#181818;stroke-width:1;"/><line style="stroke:#181818;stroke-width:1;" x1="595.5337" x2="1106.1582" y1="924.1484" y2="924.1484"/><text fill="#000000" font-family="sans-serif" font-size="13" lengthAdjust="spacing" textLength="187.9985" x="607.5337" y="919.0825">Add to parameter_sets_ map</text></g><path d="M438,944.1484 L438,969.1484 L741,969.1484 L741,954.1484 L731,944.1484 L438,944.1484" fill="#FEFFDD" style="stroke:#181818;stroke-width:0.5;"/><path d="M731,944.1484 L731,954.1484 L741,954.1484 L731,944.1484" fill="#FEFFDD" style="stroke:#181818;stroke-width:0.5;"/><text fill="#000000" font-family="sans-serif" font-size="13" lengthAdjust="spacing" textLength="282.6865" x="444" y="961.2153">parameter_sets_ now contains cached data</text><g class="message" data-participant-1="CPImpl" data-participant-2="Factory"><polygon fill="#181818" points="263.5229,998.4141,253.5229,1002.4141,263.5229,1006.4141,259.5229,1002.4141" style="stroke:#181818;stroke-width:1;"/><line style="stroke:#181818;stroke-width:1;stroke-dasharray:2,2;" x1="257.5229" x2="589.5337" y1="1002.4141" y2="1002.4141"/><text fill="#000000" font-family="sans-serif" font-size="13" lengthAdjust="spacing" textLength="154.9526" x="269.5229" y="997.3481">ConfigProvider instance</text></g><g class="message" data-participant-1="Factory" data-participant-2="App"><polygon fill="#181818" points="97.377,1027.5469,87.377,1031.5469,97.377,1035.5469,93.377,1031.5469" style="stroke:#181818;stroke-width:1;"/><line style="stroke:#181818;stroke-width:1;stroke-dasharray:2,2;" x1="91.377" x2="241.5229" y1="1031.5469" y2="1031.5469"/><text fill="#000000" font-family="sans-serif" font-size="13" lengthAdjust="spacing" textLength="95.748" x="103.377" y="1026.481">ConfigProvider</text></g><path d="M18,1044.5469 L18,1069.5469 L657,1069.5469 L657,1054.5469 L647,1044.5469 L18,1044.5469" fill="#FEFFDD" style="stroke:#181818;stroke-width:0.5;"/><path d="M647,1044.5469 L647,1054.5469 L657,1054.5469 L647,1044.5469" fill="#FEFFDD" style="stroke:#181818;stroke-width:0.5;"/><text fill="#000000" font-family="sans-serif" font-size="13" lengthAdjust="spacing" textLength="159.6182" x="253.3718" y="1061.6138">Before proxy connection</text><g class="message" data-participant-1="App" data-participant-2="CPImpl"><polygon fill="#181818" points="578.5337,1091.8125,588.5337,1095.8125,578.5337,1099.8125,582.5337,1095.8125" style="stroke:#181818;stroke-width:1;"/><line style="stroke:#181818;stroke-width:1;" x1="86.377" x2="584.5337" y1="1095.8125" y2="1095.8125"/><text fill="#000000" font-family="sans-serif" font-size="13" lengthAdjust="spacing" textLength="165.0771" x="93.377" y="1090.7466">GetParameterSet("SetA")</text></g><g class="message" data-participant-1="CPImpl" data-participant-2="CPImpl"><line style="stroke:#181818;stroke-width:1;" x1="590.5337" x2="632.5337" y1="1124.9453" y2="1124.9453"/><line style="stroke:#181818;stroke-width:1;" x1="632.5337" x2="632.5337" y1="1124.9453" y2="1137.9453"/><line style="stroke:#181818;stroke-width:1;" x1="591.5337" x2="632.5337" y1="1137.9453" y2="1137.9453"/><polygon fill="#181818" points="601.5337,1133.9453,591.5337,1137.9453,601.5337,1141.9453,597.5337,1137.9453" style="stroke:#181818;stroke-width:1;"/><text fill="#000000" font-family="sans-serif" font-size="13" lengthAdjust="spacing" textLength="190.3662" x="597.5337" y="1119.8794">Search parameter_sets_ map</text></g><path d="M10,1152.9453 L74.4429,1152.9453 L74.4429,1160.0781 L64.4429,1170.0781 L10,1170.0781 L10,1152.9453" fill="#EEEEEE" style="stroke:#000000;stroke-width:1.5;"/><rect fill="none" height="160.4688" style="stroke:#000000;stroke-width:1.5;" width="711.6504" x="10" y="1152.9453"/><text fill="#000000" font-family="sans-serif" font-size="13" font-weight="bold" lengthAdjust="spacing" textLength="19.4429" x="25" y="1166.0122">alt</text><text fill="#000000" font-family="sans-serif" font-size="11" font-weight="bold" lengthAdjust="spacing" textLength="69.4268" x="89.4429" y="1165.1558">[Cache Hit]</text><path d="M468,1175.0781 L468,1200.0781 L711,1200.0781 L711,1185.0781 L701,1175.0781 L468,1175.0781" fill="#FEFFDD" style="stroke:#181818;stroke-width:0.5;"/><path d="M701,1175.0781 L701,1185.0781 L711,1185.0781 L701,1175.0781" fill="#FEFFDD" style="stroke:#181818;stroke-width:0.5;"/><text fill="#000000" font-family="sans-serif" font-size="13" lengthAdjust="spacing" textLength="222.6504" x="474" y="1192.145">Found in cache (from persistency)</text><g class="message" data-participant-1="CPImpl" data-participant-2="App"><polygon fill="#181818" points="97.377,1222.3438,87.377,1226.3438,97.377,1230.3438,93.377,1226.3438" style="stroke:#181818;stroke-width:1;"/><line style="stroke:#181818;stroke-width:1;stroke-dasharray:2,2;" x1="91.377" x2="589.5337" y1="1226.3438" y2="1226.3438"/><text fill="#000000" font-family="sans-serif" font-size="13" lengthAdjust="spacing" textLength="276.7959" x="103.377" y="1221.2778">shared_ptr&lt;ParameterSet&gt; (kUnqualified)</text></g><line style="stroke:#000000;stroke-width:1;stroke-dasharray:2,2;" x1="10" x2="721.6504" y1="1235.3438" y2="1235.3438"/><text fill="#000000" font-family="sans-serif" font-size="11" font-weight="bold" lengthAdjust="spacing" textLength="79.0034" x="15" y="1245.5542">[Cache Miss]</text><path d="M515,1254.1484 L515,1279.1484 L664,1279.1484 L664,1264.1484 L654,1254.1484 L515,1254.1484" fill="#FEFFDD" style="stroke:#181818;stroke-width:0.5;"/><path d="M654,1254.1484 L654,1264.1484 L664,1264.1484 L654,1254.1484" fill="#FEFFDD" style="stroke:#181818;stroke-width:0.5;"/><text fill="#000000" font-family="sans-serif" font-size="13" lengthAdjust="spacing" textLength="128.2544" x="521" y="1271.2153">Proxy not ready yet</text><g class="message" data-participant-1="CPImpl" data-participant-2="App"><polygon fill="#181818" points="97.377,1301.4141,87.377,1305.4141,97.377,1309.4141,93.377,1305.4141" style="stroke:#181818;stroke-width:1;"/><line style="stroke:#181818;stroke-width:1;stroke-dasharray:2,2;" x1="91.377" x2="589.5337" y1="1305.4141" y2="1305.4141"/><text fill="#000000" font-family="sans-serif" font-size="13" lengthAdjust="spacing" textLength="148.4844" x="103.377" y="1300.3481">Error: kProxyNotReady</text></g><!--SRC=[dLN1Rjim3BtxAmYVd3PfBZiPHO0qMBQkQnVCQ2_34AWsamYH9KzIqdbVFqgs4zjrEs0vHTRZq-CZHLbk1K9IodIdbUH_cELAmZFQ5qG9jt9oZxdI9InOkaDWCeCLQiEDHPcMXDieZR1GKc9gCGEhOANLxp882gOjJtd1f8Lm8JXAEoyAmLD_GWZC0ArxC2KtV4i4HvwXNhBKqj4UMlz_3twR5y9Z5oltjmjjYVQOUjq5BRb0Kn8ghyvCkjjtM3unSS24bB0jUipTKn84b0TCPer6kBoCOQ6HMOoAyx6ZeDadQ2KHBYvYaFW2hnFfHWPIMGHrH5r7nYx4M7rmZ60ioJH1KBCIVvsUK_8TMUQBbwsOPZbQr0bQ4nNDQcrekHv3xWkzrcZKGQSuXit9Zew2cfiax33TmqOmiuDK7IHn1VMcjoE9uLk1CWgdfsJib63wG7-pQJVfgUTPrpmXkPN0v9n9xDN0ZXfGOFyKbo9yWEVIedaTr-QjCMq2gc0CMxJNJ-ZClBuXn6mMXKiNjpZ98LYND_MUhZlqGS241Hy9TIYvnEGMim3eDs1Y1Swe4Fx-J83B8nCye-u19eGF6r0x5-BkQAWZJJJoc5VwA1ZsjEztXL85BAbLa5Ixp_xh4BUcBZWY4KU4ggXHPeCog6zwDerTDtSj6VKIR_gtrtxkNCQb0SmBMmOe3FPyVAG9zQwJNnLrGLMLCxiJQVxVn1_XOhDThTTqO-QKtNbrGwkhgwkVmO2zDUeYVDTert9qWxdSpivM3uhuadnxW0ewn7R2qVqcrppw4dAczsv0xH_bhmCrr8RNplMYcthCCp-y-sN9MT7fWNyNKgeNcWRI-chMvQ1kPe6ZE8seyxYCUzEFBW3DCvdYULuIc4Pi7zYUIRGzFYcwgHwbmhr3JefxckZ9QSPq0_k4jZqHez0NUTIQeWqoGQQfhaFUkFjUFOsVkNt3eILrS4PfLMv0jD4gXyvyTt4jPtooPiSqpPV2wkksp1b4xPAEggjIIRZdnhoXmJ_AxZjTD9QLKA8TFFMZrah7iFVu1sNTQ2rzwVu2]--></g></svg>