<svg xmlns="http://www.w3.org/2000/svg" xmlns:xlink="http://www.w3.org/1999/xlink" contentStyleType="text/css" data-diagram-type="SEQUENCE" height="1273px" preserveAspectRatio="none" style="width:1586px;height:1273px;background:#FFFFFF;" version="1.1" viewBox="0 0 1586 1273" width="1586px" zoomAndPan="magnify"><title>Runtime Updates After Proxy is Connected to ConfigDaemon</title><defs/><g><text fill="#000000" font-family="sans-serif" font-size="14" font-weight="bold" lengthAdjust="spacing" textLength="479.5205" x="549.5989" y="27.9951">Runtime Updates After Proxy is Connected to ConfigDaemon</text><rect fill="none" height="1052.7266" style="stroke:#000000;stroke-width:1.5;" width="1559.7183" x="10" y="168.8594"/><rect fill="none" height="862.9297" style="stroke:#000000;stroke-width:1.5;" width="1539.7183" x="20" y="351.6563"/><rect fill="none" height="296.6719" style="stroke:#000000;stroke-width:1.5;" width="505.2061" x="992" y="636.8516"/><rect fill="none" height="131.3359" style="stroke:#000000;stroke-width:1.5;" width="477.2061" x="1010" y="745.25"/><rect fill="none" height="81.3984" style="stroke:#000000;stroke-width:1.5;" width="817.3955" x="732.3228" y="1126.1875"/><g><title>PollingThread</title><rect fill="#000000" fill-opacity="0.00000" height="1164.9922" width="8" x="80.8481" y="73.5938"/><line style="stroke:#181818;stroke-width:0.5;stroke-dasharray:5,5;" x1="84" x2="84" y1="73.5938" y2="1238.5859"/></g><g><title>InternalConfigProviderProxy</title><rect fill="#000000" fill-opacity="0.00000" height="1164.9922" width="8" x="394.0093" y="73.5938"/><line style="stroke:#181818;stroke-width:0.5;stroke-dasharray:5,5;" x1="397.6846" x2="397.6846" y1="73.5938" y2="1238.5859"/></g><g><title>ARA..COM</title><rect fill="#000000" fill-opacity="0.00000" height="1164.9922" width="8" x="685.728" y="73.5938"/><line style="stroke:#181818;stroke-width:0.5;stroke-dasharray:5,5;" x1="689.1333" x2="689.1333" y1="73.5938" y2="1238.5859"/></g><g><title>ConfigProviderImpl</title><rect fill="#000000" fill-opacity="0.00000" height="1164.9922" width="8" x="812.1509" y="73.5938"/><line style="stroke:#181818;stroke-width:0.5;stroke-dasharray:5,5;" x1="815.3228" x2="815.3228" y1="73.5938" y2="1238.5859"/></g><g><title>Persistency</title><rect fill="#000000" fill-opacity="0.00000" height="1164.9922" width="8" x="1120.5386" y="73.5938"/><line style="stroke:#181818;stroke-width:0.5;stroke-dasharray:5,5;" x1="1124.415" x2="1124.415" y1="73.5938" y2="1238.5859"/></g><g><title>KVS</title><rect fill="#000000" fill-opacity="0.00000" height="1164.9922" width="8" x="1332.4141" y="73.5938"/><line style="stroke:#181818;stroke-width:0.5;stroke-dasharray:5,5;" x1="1335.5918" x2="1335.5918" y1="73.5938" y2="1238.5859"/></g><g><title>ClientApplication</title><rect fill="#000000" fill-opacity="0.00000" height="1164.9922" width="8" x="1429.6133" y="73.5938"/><line style="stroke:#181818;stroke-width:0.5;stroke-dasharray:5,5;" x1="1433.2363" x2="1433.2363" y1="73.5938" y2="1238.5859"/></g><g class="participant participant-head" data-participant="PollingThread"><rect fill="#E2E2F0" height="30.2969" rx="2.5" ry="2.5" style="stroke:#181818;stroke-width:0.5;" width="109.6963" x="30" y="42.2969"/><text fill="#000000" font-family="sans-serif" font-size="14" lengthAdjust="spacing" textLength="95.6963" x="37" y="62.292">PollingThread</text></g><g class="participant participant-tail" data-participant="PollingThread"><rect fill="#E2E2F0" height="30.2969" rx="2.5" ry="2.5" style="stroke:#181818;stroke-width:0.5;" width="109.6963" x="30" y="1237.5859"/><text fill="#000000" font-family="sans-serif" font-size="14" lengthAdjust="spacing" textLength="95.6963" x="37" y="1257.5811">PollingThread</text></g><g class="participant participant-head" data-participant="ICP"><rect fill="#E2E2F0" height="30.2969" rx="2.5" ry="2.5" style="stroke:#181818;stroke-width:0.5;" width="210.6494" x="292.6846" y="42.2969"/><text fill="#000000" font-family="sans-serif" font-size="14" lengthAdjust="spacing" textLength="196.6494" x="299.6846" y="62.292">InternalConfigProviderProxy</text></g><g class="participant participant-tail" data-participant="ICP"><rect fill="#E2E2F0" height="30.2969" rx="2.5" ry="2.5" style="stroke:#181818;stroke-width:0.5;" width="210.6494" x="292.6846" y="1237.5859"/><text fill="#000000" font-family="sans-serif" font-size="14" lengthAdjust="spacing" textLength="196.6494" x="299.6846" y="1257.5811">InternalConfigProviderProxy</text></g><g class="participant participant-head" data-participant="CD"><rect fill="#E2E2F0" height="30.2969" rx="2.5" ry="2.5" style="stroke:#181818;stroke-width:0.5;" width="85.1895" x="647.1333" y="42.2969"/><text fill="#000000" font-family="sans-serif" font-size="14" lengthAdjust="spacing" textLength="71.1895" x="654.1333" y="62.292">ARA::COM</text></g><g class="participant participant-tail" data-participant="CD"><rect fill="#E2E2F0" height="30.2969" rx="2.5" ry="2.5" style="stroke:#181818;stroke-width:0.5;" width="85.1895" x="647.1333" y="1237.5859"/><text fill="#000000" font-family="sans-serif" font-size="14" lengthAdjust="spacing" textLength="71.1895" x="654.1333" y="1257.5811">ARA::COM</text></g><g class="participant participant-head" data-participant="CPImpl"><rect fill="#E2E2F0" height="30.2969" rx="2.5" ry="2.5" style="stroke:#181818;stroke-width:0.5;" width="147.6563" x="742.3228" y="42.2969"/><text fill="#000000" font-family="sans-serif" font-size="14" lengthAdjust="spacing" textLength="133.6563" x="749.3228" y="62.292">ConfigProviderImpl</text></g><g class="participant participant-tail" data-participant="CPImpl"><rect fill="#E2E2F0" height="30.2969" rx="2.5" ry="2.5" style="stroke:#181818;stroke-width:0.5;" width="147.6563" x="742.3228" y="1237.5859"/><text fill="#000000" font-family="sans-serif" font-size="14" lengthAdjust="spacing" textLength="133.6563" x="749.3228" y="1257.5811">ConfigProviderImpl</text></g><g class="participant participant-head" data-participant="Persist"><rect fill="#E2E2F0" height="30.2969" rx="2.5" ry="2.5" style="stroke:#181818;stroke-width:0.5;" width="94.2471" x="1077.415" y="42.2969"/><text fill="#000000" font-family="sans-serif" font-size="14" lengthAdjust="spacing" textLength="80.2471" x="1084.415" y="62.292">Persistency</text></g><g class="participant participant-tail" data-participant="Persist"><rect fill="#E2E2F0" height="30.2969" rx="2.5" ry="2.5" style="stroke:#181818;stroke-width:0.5;" width="94.2471" x="1077.415" y="1237.5859"/><text fill="#000000" font-family="sans-serif" font-size="14" lengthAdjust="spacing" textLength="80.2471" x="1084.415" y="1257.5811">Persistency</text></g><g class="participant participant-head" data-participant="KVS"><rect fill="#E2E2F0" height="30.2969" rx="2.5" ry="2.5" style="stroke:#181818;stroke-width:0.5;" width="41.6445" x="1315.5918" y="42.2969"/><text fill="#000000" font-family="sans-serif" font-size="14" lengthAdjust="spacing" textLength="27.6445" x="1322.5918" y="62.292">KVS</text></g><g class="participant participant-tail" data-participant="KVS"><rect fill="#E2E2F0" height="30.2969" rx="2.5" ry="2.5" style="stroke:#181818;stroke-width:0.5;" width="41.6445" x="1315.5918" y="1237.5859"/><text fill="#000000" font-family="sans-serif" font-size="14" lengthAdjust="spacing" textLength="27.6445" x="1322.5918" y="1257.5811">KVS</text></g><g class="participant participant-head" data-participant="App"><rect fill="#E2E2F0" height="30.2969" rx="2.5" ry="2.5" style="stroke:#181818;stroke-width:0.5;" width="132.7539" x="1367.2363" y="42.2969"/><text fill="#000000" font-family="sans-serif" font-size="14" lengthAdjust="spacing" textLength="118.7539" x="1374.2363" y="62.292">ClientApplication</text></g><g class="participant participant-tail" data-participant="App"><rect fill="#E2E2F0" height="30.2969" rx="2.5" ry="2.5" style="stroke:#181818;stroke-width:0.5;" width="132.7539" x="1367.2363" y="1237.5859"/><text fill="#000000" font-family="sans-serif" font-size="14" lengthAdjust="spacing" textLength="118.7539" x="1374.2363" y="1257.5811">ClientApplication</text></g><path d="M7,88.5938 L7,113.5938 L475,113.5938 L475,98.5938 L465,88.5938 L7,88.5938" fill="#FEFFDD" style="stroke:#181818;stroke-width:0.5;"/><path d="M465,88.5938 L465,98.5938 L475,98.5938 L465,88.5938" fill="#FEFFDD" style="stroke:#181818;stroke-width:0.5;"/><text fill="#000000" font-family="sans-serif" font-size="13" lengthAdjust="spacing" textLength="332.2109" x="70.5615" y="105.6606">Polling thread running (interval: 5 seconds default)</text><rect fill="#EEEEEE" height="3" style="stroke:#EEEEEE;stroke-width:1;" width="1579.7183" x="0" y="139.293"/><line style="stroke:#000000;stroke-width:1;" x1="0" x2="1579.7183" y1="139.293" y2="139.293"/><line style="stroke:#000000;stroke-width:1;" x1="0" x2="1579.7183" y1="142.293" y2="142.293"/><rect fill="#EEEEEE" height="23.1328" style="stroke:#000000;stroke-width:2;" width="211.3613" x="684.1785" y="128.7266"/><text fill="#000000" font-family="sans-serif" font-size="13" font-weight="bold" lengthAdjust="spacing" textLength="192.8354" x="690.1785" y="144.7935">Periodic Update Detection</text><path d="M10,168.8594 L86.624,168.8594 L86.624,175.9922 L76.624,185.9922 L10,185.9922 L10,168.8594" fill="#EEEEEE" style="stroke:#000000;stroke-width:1.5;"/><rect fill="none" height="1052.7266" style="stroke:#000000;stroke-width:1.5;" width="1559.7183" x="10" y="168.8594"/><text fill="#000000" font-family="sans-serif" font-size="13" font-weight="bold" lengthAdjust="spacing" textLength="31.624" x="25" y="181.9263">loop</text><text fill="#000000" font-family="sans-serif" font-size="11" font-weight="bold" lengthAdjust="spacing" textLength="181.6235" x="101.624" y="181.0698">[Every polling_cycle_interval]</text><g class="message" data-participant-1="PollingThread" data-participant-2="PollingThread"><line style="stroke:#181818;stroke-width:1;" x1="84.8481" x2="126.8481" y1="207.125" y2="207.125"/><line style="stroke:#181818;stroke-width:1;" x1="126.8481" x2="126.8481" y1="207.125" y2="220.125"/><line style="stroke:#181818;stroke-width:1;" x1="85.8481" x2="126.8481" y1="220.125" y2="220.125"/><polygon fill="#181818" points="95.8481,216.125,85.8481,220.125,95.8481,224.125,91.8481,220.125" style="stroke:#181818;stroke-width:1;"/><text fill="#000000" font-family="sans-serif" font-size="13" lengthAdjust="spacing" textLength="249.812" x="91.8481" y="202.0591">Wake up (timer or on-demand trigger)</text></g><g class="message" data-participant-1="PollingThread" data-participant-2="ICP"><polygon fill="#181818" points="386.0093,245.2578,396.0093,249.2578,386.0093,253.2578,390.0093,249.2578" style="stroke:#181818;stroke-width:1;"/><line style="stroke:#181818;stroke-width:1;" x1="84.8481" x2="392.0093" y1="249.2578" y2="249.2578"/><text fill="#000000" font-family="sans-serif" font-size="13" lengthAdjust="spacing" textLength="289.1611" x="91.8481" y="244.1919">GetNewSamples(LastUpdatedParameterSet)</text></g><g class="message" data-participant-1="ICP" data-participant-2="CD"><polygon fill="#181818" points="677.728,274.3906,687.728,278.3906,677.728,282.3906,681.728,278.3906" style="stroke:#181818;stroke-width:1;"/><line style="stroke:#181818;stroke-width:1;" x1="398.0093" x2="683.728" y1="278.3906" y2="278.3906"/><text fill="#000000" font-family="sans-serif" font-size="13" lengthAdjust="spacing" textLength="168.9746" x="405.0093" y="273.3247">ara::com GetNewSamples</text></g><g class="message" data-participant-1="CD" data-participant-2="ICP"><polygon fill="#181818" points="409.0093,303.5234,399.0093,307.5234,409.0093,311.5234,405.0093,307.5234" style="stroke:#181818;stroke-width:1;"/><line style="stroke:#181818;stroke-width:1;stroke-dasharray:2,2;" x1="403.0093" x2="688.728" y1="307.5234" y2="307.5234"/><text fill="#000000" font-family="sans-serif" font-size="13" lengthAdjust="spacing" textLength="102.832" x="415.0093" y="302.4575">["SetA", "SetB"]</text></g><g class="message" data-participant-1="ICP" data-participant-2="PollingThread"><polygon fill="#181818" points="95.8481,332.6563,85.8481,336.6563,95.8481,340.6563,91.8481,336.6563" style="stroke:#181818;stroke-width:1;"/><line style="stroke:#181818;stroke-width:1;stroke-dasharray:2,2;" x1="89.8481" x2="397.0093" y1="336.6563" y2="336.6563"/><text fill="#000000" font-family="sans-serif" font-size="13" lengthAdjust="spacing" textLength="199.8687" x="101.8481" y="331.5903">Updated parameter set names</text></g><path d="M20,351.6563 L96.624,351.6563 L96.624,358.7891 L86.624,368.7891 L20,368.7891 L20,351.6563" fill="#EEEEEE" style="stroke:#000000;stroke-width:1.5;"/><rect fill="none" height="862.9297" style="stroke:#000000;stroke-width:1.5;" width="1539.7183" x="20" y="351.6563"/><text fill="#000000" font-family="sans-serif" font-size="13" font-weight="bold" lengthAdjust="spacing" textLength="31.624" x="35" y="364.7231">loop</text><text fill="#000000" font-family="sans-serif" font-size="11" font-weight="bold" lengthAdjust="spacing" textLength="180.1411" x="111.624" y="363.8667">[For each updated set name]</text><g class="message" data-participant-1="PollingThread" data-participant-2="CPImpl"><polygon fill="#181818" points="804.1509,385.9219,814.1509,389.9219,804.1509,393.9219,808.1509,389.9219" style="stroke:#181818;stroke-width:1;"/><line style="stroke:#181818;stroke-width:1;" x1="84.8481" x2="810.1509" y1="389.9219" y2="389.9219"/><text fill="#000000" font-family="sans-serif" font-size="13" lengthAdjust="spacing" textLength="348.0229" x="91.8481" y="384.856">LastUpdatedParameterSetReceiveHandler(set_name)</text></g><rect fill="#EEEEEE" height="3" style="stroke:#EEEEEE;stroke-width:1;" width="1579.7183" x="0" y="418.4883"/><line style="stroke:#000000;stroke-width:1;" x1="0" x2="1579.7183" y1="418.4883" y2="418.4883"/><line style="stroke:#000000;stroke-width:1;" x1="0" x2="1579.7183" y1="421.4883" y2="421.4883"/><rect fill="#EEEEEE" height="23.1328" style="stroke:#000000;stroke-width:2;" width="289.4058" x="645.1563" y="407.9219"/><text fill="#000000" font-family="sans-serif" font-size="13" font-weight="bold" lengthAdjust="spacing" textLength="270.8799" x="651.1563" y="423.9888">Step 1: Fetch Updated ParameterSet</text><g class="message" data-participant-1="CPImpl" data-participant-2="ICP"><polygon fill="#181818" points="409.0093,458.1875,399.0093,462.1875,409.0093,466.1875,405.0093,462.1875" style="stroke:#181818;stroke-width:1;"/><line style="stroke:#181818;stroke-width:1;" x1="403.0093" x2="815.1509" y1="462.1875" y2="462.1875"/><text fill="#000000" font-family="sans-serif" font-size="13" lengthAdjust="spacing" textLength="245.0386" x="415.0093" y="457.1216">GetParameterSet(set_name, timeout)</text></g><g class="message" data-participant-1="ICP" data-participant-2="CD"><polygon fill="#181818" points="677.728,487.3203,687.728,491.3203,677.728,495.3203,681.728,491.3203" style="stroke:#181818;stroke-width:1;"/><line style="stroke:#181818;stroke-width:1;" x1="398.0093" x2="683.728" y1="491.3203" y2="491.3203"/><text fill="#000000" font-family="sans-serif" font-size="13" lengthAdjust="spacing" textLength="174.6685" x="405.0093" y="486.2544">ara::com GetParameterSet</text></g><g class="message" data-participant-1="CD" data-participant-2="ICP"><polygon fill="#181818" points="409.0093,516.4531,399.0093,520.4531,409.0093,524.4531,405.0093,520.4531" style="stroke:#181818;stroke-width:1;"/><line style="stroke:#181818;stroke-width:1;stroke-dasharray:2,2;" x1="403.0093" x2="688.728" y1="520.4531" y2="520.4531"/><text fill="#000000" font-family="sans-serif" font-size="13" lengthAdjust="spacing" textLength="267.7188" x="415.0093" y="515.3872">Updated ParameterSet (JSON + qualifier)</text></g><g class="message" data-participant-1="ICP" data-participant-2="CPImpl"><polygon fill="#181818" points="804.1509,545.5859,814.1509,549.5859,804.1509,553.5859,808.1509,549.5859" style="stroke:#181818;stroke-width:1;"/><line style="stroke:#181818;stroke-width:1;stroke-dasharray:2,2;" x1="398.0093" x2="810.1509" y1="549.5859" y2="549.5859"/><text fill="#000000" font-family="sans-serif" font-size="13" lengthAdjust="spacing" textLength="89.5654" x="405.0093" y="544.52">ParameterSet</text></g><rect fill="#EEEEEE" height="3" style="stroke:#EEEEEE;stroke-width:1;" width="1579.7183" x="0" y="578.1523"/><line style="stroke:#000000;stroke-width:1;" x1="0" x2="1579.7183" y1="578.1523" y2="578.1523"/><line style="stroke:#000000;stroke-width:1;" x1="0" x2="1579.7183" y1="581.1523" y2="581.1523"/><rect fill="#EEEEEE" height="23.1328" style="stroke:#000000;stroke-width:2;" width="225.1104" x="677.304" y="567.5859"/><text fill="#000000" font-family="sans-serif" font-size="13" font-weight="bold" lengthAdjust="spacing" textLength="206.5845" x="683.304" y="583.6528">Step 2: Write to Persistency</text><g class="message" data-participant-1="CPImpl" data-participant-2="Persist"><polygon fill="#181818" points="1112.5386,617.8516,1122.5386,621.8516,1112.5386,625.8516,1116.5386,621.8516" style="stroke:#181818;stroke-width:1;"/><line style="stroke:#181818;stroke-width:1;" x1="816.1509" x2="1118.5386" y1="621.8516" y2="621.8516"/><text fill="#000000" font-family="sans-serif" font-size="13" lengthAdjust="spacing" textLength="284.3877" x="823.1509" y="616.7856">CacheParameterSet(param_set, sync=true)</text></g><path d="M992,636.8516 L1056.4429,636.8516 L1056.4429,643.9844 L1046.4429,653.9844 L992,653.9844 L992,636.8516" fill="#EEEEEE" style="stroke:#000000;stroke-width:1.5;"/><rect fill="none" height="296.6719" style="stroke:#000000;stroke-width:1.5;" width="505.2061" x="992" y="636.8516"/><text fill="#000000" font-family="sans-serif" font-size="13" font-weight="bold" lengthAdjust="spacing" textLength="19.4429" x="1007" y="649.9185">alt</text><text fill="#000000" font-family="sans-serif" font-size="11" font-weight="bold" lengthAdjust="spacing" textLength="177.4233" x="1071.4429" y="649.062">[ParameterSet is kQualified]</text><g class="message" data-participant-1="Persist" data-participant-2="Persist"><line style="stroke:#181818;stroke-width:1;" x1="1124.5386" x2="1166.5386" y1="675.1172" y2="675.1172"/><line style="stroke:#181818;stroke-width:1;" x1="1166.5386" x2="1166.5386" y1="675.1172" y2="688.1172"/><line style="stroke:#181818;stroke-width:1;" x1="1125.5386" x2="1166.5386" y1="688.1172" y2="688.1172"/><polygon fill="#181818" points="1135.5386,684.1172,1125.5386,688.1172,1135.5386,692.1172,1131.5386,688.1172" style="stroke:#181818;stroke-width:1;"/><text fill="#000000" font-family="sans-serif" font-size="13" lengthAdjust="spacing" textLength="185.4277" x="1131.5386" y="670.0513">NeedToPersist() returns true</text></g><g class="message" data-participant-1="Persist" data-participant-2="Persist"><line style="stroke:#181818;stroke-width:1;" x1="1124.5386" x2="1166.5386" y1="717.25" y2="717.25"/><line style="stroke:#181818;stroke-width:1;" x1="1166.5386" x2="1166.5386" y1="717.25" y2="730.25"/><line style="stroke:#181818;stroke-width:1;" x1="1125.5386" x2="1166.5386" y1="730.25" y2="730.25"/><polygon fill="#181818" points="1135.5386,726.25,1125.5386,730.25,1135.5386,734.25,1131.5386,730.25" style="stroke:#181818;stroke-width:1;"/><text fill="#000000" font-family="sans-serif" font-size="13" lengthAdjust="spacing" textLength="197.8755" x="1131.5386" y="712.1841">ContainsSameContent() check</text></g><path d="M1010,745.25 L1074.4429,745.25 L1074.4429,752.3828 L1064.4429,762.3828 L1010,762.3828 L1010,745.25" fill="#EEEEEE" style="stroke:#000000;stroke-width:1.5;"/><rect fill="none" height="131.3359" style="stroke:#000000;stroke-width:1.5;" width="477.2061" x="1010" y="745.25"/><text fill="#000000" font-family="sans-serif" font-size="13" font-weight="bold" lengthAdjust="spacing" textLength="19.4429" x="1025" y="758.3169">alt</text><text fill="#000000" font-family="sans-serif" font-size="11" font-weight="bold" lengthAdjust="spacing" textLength="115.9673" x="1089.4429" y="757.4604">[Content changed]</text><g class="message" data-participant-1="Persist" data-participant-2="KVS"><polygon fill="#181818" points="1324.4141,779.5156,1334.4141,783.5156,1324.4141,787.5156,1328.4141,783.5156" style="stroke:#181818;stroke-width:1;"/><line style="stroke:#181818;stroke-width:1;" x1="1124.5386" x2="1330.4141" y1="783.5156" y2="783.5156"/><text fill="#000000" font-family="sans-serif" font-size="13" lengthAdjust="spacing" textLength="184.7231" x="1131.5386" y="778.4497">set("CfgP__SetName", JSON)</text></g><path d="M1195,796.5156 L1195,821.5156 L1477,821.5156 L1477,806.5156 L1467,796.5156 L1195,796.5156" fill="#FEFFDD" style="stroke:#181818;stroke-width:0.5;"/><path d="M1467,796.5156 L1467,806.5156 L1477,806.5156 L1467,796.5156" fill="#FEFFDD" style="stroke:#181818;stroke-width:0.5;"/><text fill="#000000" font-family="sans-serif" font-size="13" lengthAdjust="spacing" textLength="261.2061" x="1201" y="813.5825">Immediate sync (sync_to_storage=true)</text><line style="stroke:#000000;stroke-width:1;stroke-dasharray:2,2;" x1="1010" x2="1487.2061" y1="827.6484" y2="827.6484"/><text fill="#000000" font-family="sans-serif" font-size="11" font-weight="bold" lengthAdjust="spacing" textLength="131.6294" x="1015" y="837.8589">[Content unchanged]</text><path d="M1020,846.4531 L1020,871.4531 L1227,871.4531 L1227,856.4531 L1217,846.4531 L1020,846.4531" fill="#FEFFDD" style="stroke:#181818;stroke-width:0.5;"/><path d="M1217,846.4531 L1217,856.4531 L1227,856.4531 L1217,846.4531" fill="#FEFFDD" style="stroke:#181818;stroke-width:0.5;"/><text fill="#000000" font-family="sans-serif" font-size="13" lengthAdjust="spacing" textLength="186.856" x="1026" y="863.52">Skip write - content identical</text><line style="stroke:#000000;stroke-width:1;stroke-dasharray:2,2;" x1="992" x2="1497.2061" y1="884.5859" y2="884.5859"/><text fill="#000000" font-family="sans-serif" font-size="11" font-weight="bold" lengthAdjust="spacing" textLength="187.752" x="997" y="894.7964">[ParameterSet not kQualified]</text><path d="M1002,903.3906 L1002,928.3906 L1246,928.3906 L1246,913.3906 L1236,903.3906 L1002,903.3906" fill="#FEFFDD" style="stroke:#181818;stroke-width:0.5;"/><path d="M1236,903.3906 L1236,913.3906 L1246,913.3906 L1236,903.3906" fill="#FEFFDD" style="stroke:#181818;stroke-width:0.5;"/><text fill="#000000" font-family="sans-serif" font-size="13" lengthAdjust="spacing" textLength="223.355" x="1008" y="920.4575">Skip - only qualified sets persisted</text><rect fill="#EEEEEE" height="3" style="stroke:#EEEEEE;stroke-width:1;" width="1579.7183" x="0" y="961.0898"/><line style="stroke:#000000;stroke-width:1;" x1="0" x2="1579.7183" y1="961.0898" y2="961.0898"/><line style="stroke:#000000;stroke-width:1;" x1="0" x2="1579.7183" y1="964.0898" y2="964.0898"/><rect fill="#EEEEEE" height="23.1328" style="stroke:#000000;stroke-width:2;" width="260.2383" x="659.74" y="950.5234"/><text fill="#000000" font-family="sans-serif" font-size="13" font-weight="bold" lengthAdjust="spacing" textLength="241.7124" x="665.74" y="966.5903">Step 3: Update In-Memory Cache</text><g class="message" data-participant-1="CPImpl" data-participant-2="CPImpl"><line style="stroke:#181818;stroke-width:1;" x1="816.1509" x2="858.1509" y1="1004.7891" y2="1004.7891"/><line style="stroke:#181818;stroke-width:1;" x1="858.1509" x2="858.1509" y1="1004.7891" y2="1017.7891"/><line style="stroke:#181818;stroke-width:1;" x1="817.1509" x2="858.1509" y1="1017.7891" y2="1017.7891"/><polygon fill="#181818" points="827.1509,1013.7891,817.1509,1017.7891,827.1509,1021.7891,823.1509,1017.7891" style="stroke:#181818;stroke-width:1;"/><text fill="#000000" font-family="sans-serif" font-size="13" lengthAdjust="spacing" textLength="232.8638" x="823.1509" y="999.7231">Update parameter_sets_[set_name]</text></g><path d="M708,1030.7891 L708,1070.7891 L923,1070.7891 L923,1040.7891 L913,1030.7891 L708,1030.7891" fill="#FEFFDD" style="stroke:#181818;stroke-width:0.5;"/><path d="M913,1030.7891 L913,1040.7891 L923,1040.7891 L913,1030.7891" fill="#FEFFDD" style="stroke:#181818;stroke-width:0.5;"/><text fill="#000000" font-family="sans-serif" font-size="13" lengthAdjust="spacing" textLength="194.6001" x="714" y="1047.856">Atomically replace shared_ptr</text><text fill="#000000" font-family="sans-serif" font-size="13" lengthAdjust="spacing" textLength="127.6831" x="714" y="1062.9888">Thread-safe update</text><rect fill="#EEEEEE" height="3" style="stroke:#EEEEEE;stroke-width:1;" width="1579.7183" x="0" y="1096.6211"/><line style="stroke:#000000;stroke-width:1;" x1="0" x2="1579.7183" y1="1096.6211" y2="1096.6211"/><line style="stroke:#000000;stroke-width:1;" x1="0" x2="1579.7183" y1="1099.6211" y2="1099.6211"/><rect fill="#EEEEEE" height="23.1328" style="stroke:#000000;stroke-width:2;" width="281.4966" x="649.1108" y="1086.0547"/><text fill="#000000" font-family="sans-serif" font-size="13" font-weight="bold" lengthAdjust="spacing" textLength="262.9707" x="655.1108" y="1102.1216">Step 4: Notify Application Callbacks</text><path d="M732.3228,1126.1875 L796.7656,1126.1875 L796.7656,1133.3203 L786.7656,1143.3203 L732.3228,1143.3203 L732.3228,1126.1875" fill="#EEEEEE" style="stroke:#000000;stroke-width:1.5;"/><rect fill="none" height="81.3984" style="stroke:#000000;stroke-width:1.5;" width="817.3955" x="732.3228" y="1126.1875"/><text fill="#000000" font-family="sans-serif" font-size="13" font-weight="bold" lengthAdjust="spacing" textLength="19.4429" x="747.3228" y="1139.2544">alt</text><text fill="#000000" font-family="sans-serif" font-size="11" font-weight="bold" lengthAdjust="spacing" textLength="240.9795" x="811.7656" y="1138.3979">[Client registered callback for this set]</text><g class="message" data-participant-1="CPImpl" data-participant-2="App"><polygon fill="#181818" points="1421.6133,1160.4531,1431.6133,1164.4531,1421.6133,1168.4531,1425.6133,1164.4531" style="stroke:#181818;stroke-width:1;"/><line style="stroke:#181818;stroke-width:1;" x1="816.1509" x2="1427.6133" y1="1164.4531" y2="1164.4531"/><text fill="#000000" font-family="sans-serif" font-size="13" lengthAdjust="spacing" textLength="296.8037" x="823.1509" y="1159.3872">OnChangedParameterSet callback(set_name)</text></g><path d="M1327,1177.4531 L1327,1202.4531 L1539,1202.4531 L1539,1187.4531 L1529,1177.4531 L1327,1177.4531" fill="#FEFFDD" style="stroke:#181818;stroke-width:0.5;"/><path d="M1529,1177.4531 L1529,1187.4531 L1539,1187.4531 L1529,1177.4531" fill="#FEFFDD" style="stroke:#181818;stroke-width:0.5;"/><text fill="#000000" font-family="sans-serif" font-size="13" lengthAdjust="spacing" textLength="191.7183" x="1333" y="1194.52">Application processes update</text><!--SRC=[XLPDSzem4BtxL-nmWYaS-dNn39sXfcdfHq93sXxIZ4UL5z0WIwua9-NVToNRn8BGCW5Rrkw-jxjFwpZX9C9rhPme4RvL1NDeORPsQ61fz9yz20kPLWgvmmASzekrsCmPbbebISMC4rnKJ3aOBBMKGcrkjWPPCG1c8NeI6oyKOIWcctY4TIyAD04pk2woPUmmkvwbQNRr9UncytWpZh8eAzcOBVtj4KiqLbY7YZT0xJes-lHz5JRfUWGa1IetgoefE7D2gs16woHHsY7eUr-vVjfZdqhQFGCN7eAfbVBBeV1rk6SoXTTWaMjLM2XmpMhfHaaodNf-GXU2jzs1EJfg1Y73T9eaKkiAtX7e7ge68UTxBZ7luYP0duWGJDx43rBumNO8TGL3BmC3clxKfC2IAUgv4PiDcj7JWK9kxz5TuiEAKQtH3ZypwngknP8PLX9ViqBN121xxvRDKw2zDEMwZDs3LJQ7IHVyTa3Eiy4O_FNjuEunp6aUBInK7IwLr86YUvi4lr2k2yeF6TzInervPnHCdaop4L8APtAxHexY7ZzGlIIQ8SNBVRnHSeX8ZLmvhE1v2XVe2BkZsWyJEjfvD93z6lTD3nXZy3tJTLlVVzIux_w8qglqavI67rTNb_0CVjTCYhNeXD1lGbUS2E0aynSaCoD8m3H4UcVmJCwjHGePDGgZp4DpSyf_37Ql-DIPkbzf9bsS0KsmtTUMVN4m2srkG2AyIyJYHhVBuGWCkjee2nxblyuqXXmJofAMqT_JgA0Gb03V9P6p9zaQq3PJcoDcHm0qXbAlqk4WMs-MUKvfNH847GhVdT69w-Ce2fwBiiH2-E7X2mP3_vixdLkd3TjWMy5-09GM3mHhTOvYR-Hr9LZjH0KFeT4Ju6q46ihqXk7jD3g0gCU80J1g6yK-rxTpi1CQMt9_a6eus1QgLcmzC08-qUVBxW30Gas-qEkDHceGtnc5TgfldGuZnolJvhVT-RnBJbbthZEdIryLucomaenJWxRCO95NplnKpVYPMBR6TbITidv5YjLEhFVGUoSHRob_CRwp4VSWkl3-8hYDBmb10MzjOKrZqMtfjDZUV8Xp9emKhbJMo25gLnUcD_oURbc8qITR6StHMlg_eqtoM1_-whz_0G00]--></g></svg>