<svg xmlns="http://www.w3.org/2000/svg" xmlns:xlink="http://www.w3.org/1999/xlink" contentStyleType="text/css" data-diagram-type="SEQUENCE" height="1343px" preserveAspectRatio="none" style="width:1705px;height:1343px;background:#FFFFFF;" version="1.1" viewBox="0 0 1705 1343" width="1705px" zoomAndPan="magnify"><title>Initial Synchronization When Proxy is Connected to ConfigDaemon</title><defs/><g><text fill="#000000" font-family="sans-serif" font-size="14" font-weight="bold" lengthAdjust="spacing" textLength="525.8203" x="585.728" y="27.9951">Initial Synchronization When Proxy is Connected to ConfigDaemon</text><rect fill="none" height="175.7969" style="stroke:#000000;stroke-width:1.5;" width="892.2944" x="355.8687" y="407.9219"/><rect fill="none" height="356.9375" style="stroke:#000000;stroke-width:1.5;" width="1315.4175" x="355.8687" y="640.8516"/><rect fill="none" height="296.6719" style="stroke:#000000;stroke-width:1.5;" width="498.2861" x="1163" y="694.1172"/><rect fill="none" height="131.3359" style="stroke:#000000;stroke-width:1.5;" width="413.123" x="1238.1631" y="802.5156"/><g><title>ProxyThread</title><rect fill="#000000" fill-opacity="0.00000" height="1234.3906" width="8" x="60.2969" y="73.5938"/><line style="stroke:#181818;stroke-width:0.5;stroke-dasharray:5,5;" x1="64" x2="64" y1="73.5938" y2="1307.9844"/></g><g><title>ConfigProviderImpl</title><rect fill="#000000" fill-opacity="0.00000" height="1234.3906" width="8" x="435.6968" y="73.5938"/><line style="stroke:#181818;stroke-width:0.5;stroke-dasharray:5,5;" x1="438.8687" x2="438.8687" y1="73.5938" y2="1307.9844"/></g><g><title>InternalConfigProvider</title><rect fill="#000000" fill-opacity="0.00000" height="1234.3906" width="8" x="878.2231" y="73.5938"/><line style="stroke:#181818;stroke-width:0.5;stroke-dasharray:5,5;" x1="881.5654" x2="881.5654" y1="73.5938" y2="1307.9844"/></g><g><title>ARA..COM</title><rect fill="#000000" fill-opacity="0.00000" height="1234.3906" width="8" x="1191.5684" y="73.5938"/><line style="stroke:#181818;stroke-width:0.5;stroke-dasharray:5,5;" x1="1194.9736" x2="1194.9736" y1="73.5938" y2="1307.9844"/></g><g><title>Persistency</title><rect fill="#000000" fill-opacity="0.00000" height="1234.3906" width="8" x="1291.2866" y="73.5938"/><line style="stroke:#181818;stroke-width:0.5;stroke-dasharray:5,5;" x1="1295.1631" x2="1295.1631" y1="73.5938" y2="1307.9844"/></g><g><title>KVS</title><rect fill="#000000" fill-opacity="0.00000" height="1234.3906" width="8" x="1536.7183" y="73.5938"/><line style="stroke:#181818;stroke-width:0.5;stroke-dasharray:5,5;" x1="1539.896" x2="1539.896" y1="73.5938" y2="1307.9844"/></g><g class="participant participant-head" data-participant="ProxyThread"><rect fill="#E2E2F0" height="30.2969" rx="2.5" ry="2.5" style="stroke:#181818;stroke-width:0.5;" width="102.5938" x="13" y="42.2969"/><text fill="#000000" font-family="sans-serif" font-size="14" lengthAdjust="spacing" textLength="88.5938" x="20" y="62.292">ProxyThread</text></g><g class="participant participant-tail" data-participant="ProxyThread"><rect fill="#E2E2F0" height="30.2969" rx="2.5" ry="2.5" style="stroke:#181818;stroke-width:0.5;" width="102.5938" x="13" y="1306.9844"/><text fill="#000000" font-family="sans-serif" font-size="14" lengthAdjust="spacing" textLength="88.5938" x="20" y="1326.9795">ProxyThread</text></g><g class="participant participant-head" data-participant="CPImpl"><rect fill="#E2E2F0" height="30.2969" rx="2.5" ry="2.5" style="stroke:#181818;stroke-width:0.5;" width="147.6563" x="365.8687" y="42.2969"/><text fill="#000000" font-family="sans-serif" font-size="14" lengthAdjust="spacing" textLength="133.6563" x="372.8687" y="62.292">ConfigProviderImpl</text></g><g class="participant participant-tail" data-participant="CPImpl"><rect fill="#E2E2F0" height="30.2969" rx="2.5" ry="2.5" style="stroke:#181818;stroke-width:0.5;" width="147.6563" x="365.8687" y="1306.9844"/><text fill="#000000" font-family="sans-serif" font-size="14" lengthAdjust="spacing" textLength="133.6563" x="372.8687" y="1326.9795">ConfigProviderImpl</text></g><g class="participant participant-head" data-participant="ICP"><rect fill="#E2E2F0" height="30.2969" rx="2.5" ry="2.5" style="stroke:#181818;stroke-width:0.5;" width="171.3154" x="796.5654" y="42.2969"/><text fill="#000000" font-family="sans-serif" font-size="14" lengthAdjust="spacing" textLength="157.3154" x="803.5654" y="62.292">InternalConfigProvider</text></g><g class="participant participant-tail" data-participant="ICP"><rect fill="#E2E2F0" height="30.2969" rx="2.5" ry="2.5" style="stroke:#181818;stroke-width:0.5;" width="171.3154" x="796.5654" y="1306.9844"/><text fill="#000000" font-family="sans-serif" font-size="14" lengthAdjust="spacing" textLength="157.3154" x="803.5654" y="1326.9795">InternalConfigProvider</text></g><g class="participant participant-head" data-participant="CD"><rect fill="#E2E2F0" height="30.2969" rx="2.5" ry="2.5" style="stroke:#181818;stroke-width:0.5;" width="85.1895" x="1152.9736" y="42.2969"/><text fill="#000000" font-family="sans-serif" font-size="14" lengthAdjust="spacing" textLength="71.1895" x="1159.9736" y="62.292">ARA::COM</text></g><g class="participant participant-tail" data-participant="CD"><rect fill="#E2E2F0" height="30.2969" rx="2.5" ry="2.5" style="stroke:#181818;stroke-width:0.5;" width="85.1895" x="1152.9736" y="1306.9844"/><text fill="#000000" font-family="sans-serif" font-size="14" lengthAdjust="spacing" textLength="71.1895" x="1159.9736" y="1326.9795">ARA::COM</text></g><g class="participant participant-head" data-participant="Persist"><rect fill="#E2E2F0" height="30.2969" rx="2.5" ry="2.5" style="stroke:#181818;stroke-width:0.5;" width="94.2471" x="1248.1631" y="42.2969"/><text fill="#000000" font-family="sans-serif" font-size="14" lengthAdjust="spacing" textLength="80.2471" x="1255.1631" y="62.292">Persistency</text></g><g class="participant participant-tail" data-participant="Persist"><rect fill="#E2E2F0" height="30.2969" rx="2.5" ry="2.5" style="stroke:#181818;stroke-width:0.5;" width="94.2471" x="1248.1631" y="1306.9844"/><text fill="#000000" font-family="sans-serif" font-size="14" lengthAdjust="spacing" textLength="80.2471" x="1255.1631" y="1326.9795">Persistency</text></g><g class="participant participant-head" data-participant="KVS"><rect fill="#E2E2F0" height="30.2969" rx="2.5" ry="2.5" style="stroke:#181818;stroke-width:0.5;" width="41.6445" x="1519.896" y="42.2969"/><text fill="#000000" font-family="sans-serif" font-size="14" lengthAdjust="spacing" textLength="27.6445" x="1526.896" y="62.292">KVS</text></g><g class="participant participant-tail" data-participant="KVS"><rect fill="#E2E2F0" height="30.2969" rx="2.5" ry="2.5" style="stroke:#181818;stroke-width:0.5;" width="41.6445" x="1519.896" y="1306.9844"/><text fill="#000000" font-family="sans-serif" font-size="14" lengthAdjust="spacing" textLength="27.6445" x="1526.896" y="1326.9795">KVS</text></g><path d="M5,88.5938 L5,113.5938 L500,113.5938 L500,98.5938 L490,88.5938 L5,88.5938" fill="#FEFFDD" style="stroke:#181818;stroke-width:0.5;"/><path d="M490,88.5938 L490,98.5938 L500,98.5938 L490,88.5938" fill="#FEFFDD" style="stroke:#181818;stroke-width:0.5;"/><text fill="#000000" font-family="sans-serif" font-size="13" lengthAdjust="spacing" textLength="190.9883" x="152.7683" y="105.6606">Proxy connection established</text><g class="message" data-participant-1="ProxyThread" data-participant-2="CPImpl"><polygon fill="#181818" points="427.6968,135.8594,437.6968,139.8594,427.6968,143.8594,431.6968,139.8594" style="stroke:#181818;stroke-width:1;"/><line style="stroke:#181818;stroke-width:1;" x1="64.2969" x2="433.6968" y1="139.8594" y2="139.8594"/><text fill="#000000" font-family="sans-serif" font-size="13" lengthAdjust="spacing" textLength="351.3999" x="71.2969" y="134.7935">SetupInternalConfigProvider(internal_config_provider)</text></g><rect fill="#EEEEEE" height="3" style="stroke:#EEEEEE;stroke-width:1;" width="1698.2764" x="0" y="168.4258"/><line style="stroke:#000000;stroke-width:1;" x1="0" x2="1698.2764" y1="168.4258" y2="168.4258"/><line style="stroke:#000000;stroke-width:1;" x1="0" x2="1698.2764" y1="171.4258" y2="171.4258"/><rect fill="#EEEEEE" height="23.1328" style="stroke:#000000;stroke-width:2;" width="232.7847" x="732.7458" y="157.8594"/><text fill="#000000" font-family="sans-serif" font-size="13" font-weight="bold" lengthAdjust="spacing" textLength="214.2588" x="738.7458" y="173.9263">Step 1: Subscribe to Updates</text><g class="message" data-participant-1="CPImpl" data-participant-2="ICP"><polygon fill="#181818" points="870.2231,208.125,880.2231,212.125,870.2231,216.125,874.2231,212.125" style="stroke:#181818;stroke-width:1;"/><line style="stroke:#181818;stroke-width:1;" x1="439.6968" x2="876.2231" y1="212.125" y2="212.125"/><text fill="#000000" font-family="sans-serif" font-size="13" lengthAdjust="spacing" textLength="320.106" x="446.6968" y="207.0591">TrySubscribeToLastUpdatedParameterSetEvent()</text></g><g class="message" data-participant-1="ICP" data-participant-2="CD"><polygon fill="#181818" points="1183.5684,237.2578,1193.5684,241.2578,1183.5684,245.2578,1187.5684,241.2578" style="stroke:#181818;stroke-width:1;"/><line style="stroke:#181818;stroke-width:1;" x1="882.2231" x2="1189.5684" y1="241.2578" y2="241.2578"/><text fill="#000000" font-family="sans-serif" font-size="13" lengthAdjust="spacing" textLength="289.3452" x="889.2231" y="236.1919">Subscribe to LastUpdatedParameterSet field</text></g><g class="message" data-participant-1="CD" data-participant-2="ICP"><polygon fill="#181818" points="893.2231,266.3906,883.2231,270.3906,893.2231,274.3906,889.2231,270.3906" style="stroke:#181818;stroke-width:1;"/><line style="stroke:#181818;stroke-width:1;stroke-dasharray:2,2;" x1="887.2231" x2="1194.5684" y1="270.3906" y2="270.3906"/><text fill="#000000" font-family="sans-serif" font-size="13" lengthAdjust="spacing" textLength="150.6934" x="899.2231" y="265.3247">Subscription confirmed</text></g><g class="message" data-participant-1="ICP" data-participant-2="CPImpl"><polygon fill="#181818" points="450.6968,295.5234,440.6968,299.5234,450.6968,303.5234,446.6968,299.5234" style="stroke:#181818;stroke-width:1;"/><line style="stroke:#181818;stroke-width:1;stroke-dasharray:2,2;" x1="444.6968" x2="881.2231" y1="299.5234" y2="299.5234"/><text fill="#000000" font-family="sans-serif" font-size="13" lengthAdjust="spacing" textLength="152.1851" x="456.6968" y="294.4575">Subscription successful</text></g><rect fill="#EEEEEE" height="3" style="stroke:#EEEEEE;stroke-width:1;" width="1698.2764" x="0" y="328.0898"/><line style="stroke:#000000;stroke-width:1;" x1="0" x2="1698.2764" y1="328.0898" y2="328.0898"/><line style="stroke:#000000;stroke-width:1;" x1="0" x2="1698.2764" y1="331.0898" y2="331.0898"/><rect fill="#EEEEEE" height="23.1328" style="stroke:#000000;stroke-width:2;" width="367.8438" x="665.2163" y="317.5234"/><text fill="#000000" font-family="sans-serif" font-size="13" font-weight="bold" lengthAdjust="spacing" textLength="349.3179" x="671.2163" y="333.5903">Step 2: Fetch Initial Values from ConfigDaemon</text><path d="M256,355.6563 L256,395.6563 L622,395.6563 L622,365.6563 L612,355.6563 L256,355.6563" fill="#FEFFDD" style="stroke:#181818;stroke-width:0.5;"/><path d="M612,355.6563 L612,365.6563 L622,365.6563 L612,355.6563" fill="#FEFFDD" style="stroke:#181818;stroke-width:0.5;"/><text fill="#000000" font-family="sans-serif" font-size="13" lengthAdjust="spacing" textLength="345.0459" x="262" y="372.7231">Fetch all cached parameter sets from ConfigDaemon</text><text fill="#000000" font-family="sans-serif" font-size="13" lengthAdjust="spacing" textLength="171.4248" x="262" y="387.856">to detect content changes</text><path d="M355.8687,407.9219 L432.4927,407.9219 L432.4927,415.0547 L422.4927,425.0547 L355.8687,425.0547 L355.8687,407.9219" fill="#EEEEEE" style="stroke:#000000;stroke-width:1.5;"/><rect fill="none" height="175.7969" style="stroke:#000000;stroke-width:1.5;" width="892.2944" x="355.8687" y="407.9219"/><text fill="#000000" font-family="sans-serif" font-size="13" font-weight="bold" lengthAdjust="spacing" textLength="31.624" x="370.8687" y="420.9888">loop</text><text fill="#000000" font-family="sans-serif" font-size="11" font-weight="bold" lengthAdjust="spacing" textLength="248.7729" x="447.4927" y="420.1323">[For each parameter set name in cache]</text><g class="message" data-participant-1="CPImpl" data-participant-2="ICP"><polygon fill="#181818" points="870.2231,442.1875,880.2231,446.1875,870.2231,450.1875,874.2231,446.1875" style="stroke:#181818;stroke-width:1;"/><line style="stroke:#181818;stroke-width:1;" x1="439.6968" x2="876.2231" y1="446.1875" y2="446.1875"/><text fill="#000000" font-family="sans-serif" font-size="13" lengthAdjust="spacing" textLength="245.0386" x="446.6968" y="441.1216">GetParameterSet(set_name, timeout)</text></g><g class="message" data-participant-1="ICP" data-participant-2="CD"><polygon fill="#181818" points="1183.5684,471.3203,1193.5684,475.3203,1183.5684,479.3203,1187.5684,475.3203" style="stroke:#181818;stroke-width:1;"/><line style="stroke:#181818;stroke-width:1;" x1="882.2231" x2="1189.5684" y1="475.3203" y2="475.3203"/><text fill="#000000" font-family="sans-serif" font-size="13" lengthAdjust="spacing" textLength="174.6685" x="889.2231" y="470.2544">ara::com GetParameterSet</text></g><g class="message" data-participant-1="CD" data-participant-2="ICP"><polygon fill="#181818" points="893.2231,500.4531,883.2231,504.4531,893.2231,508.4531,889.2231,504.4531" style="stroke:#181818;stroke-width:1;"/><line style="stroke:#181818;stroke-width:1;stroke-dasharray:2,2;" x1="887.2231" x2="1194.5684" y1="504.4531" y2="504.4531"/><text fill="#000000" font-family="sans-serif" font-size="13" lengthAdjust="spacing" textLength="208.2539" x="899.2231" y="499.3872">ParameterSet (JSON + qualifier)</text></g><g class="message" data-participant-1="ICP" data-participant-2="CPImpl"><polygon fill="#181818" points="450.6968,529.5859,440.6968,533.5859,450.6968,537.5859,446.6968,533.5859" style="stroke:#181818;stroke-width:1;"/><line style="stroke:#181818;stroke-width:1;stroke-dasharray:2,2;" x1="444.6968" x2="881.2231" y1="533.5859" y2="533.5859"/><text fill="#000000" font-family="sans-serif" font-size="13" lengthAdjust="spacing" textLength="225.9004" x="456.6968" y="528.52">ParameterSet with proper qualifier</text></g><g class="message" data-participant-1="CPImpl" data-participant-2="CPImpl"><line style="stroke:#181818;stroke-width:1;" x1="439.6968" x2="481.6968" y1="562.7188" y2="562.7188"/><line style="stroke:#181818;stroke-width:1;" x1="481.6968" x2="481.6968" y1="562.7188" y2="575.7188"/><line style="stroke:#181818;stroke-width:1;" x1="440.6968" x2="481.6968" y1="575.7188" y2="575.7188"/><polygon fill="#181818" points="450.6968,571.7188,440.6968,575.7188,450.6968,579.7188,446.6968,575.7188" style="stroke:#181818;stroke-width:1;"/><text fill="#000000" font-family="sans-serif" font-size="13" lengthAdjust="spacing" textLength="242.0552" x="446.6968" y="557.6528">Add to updated_parameter_sets map</text></g><rect fill="#EEEEEE" height="3" style="stroke:#EEEEEE;stroke-width:1;" width="1698.2764" x="0" y="611.2852"/><line style="stroke:#000000;stroke-width:1;" x1="0" x2="1698.2764" y1="611.2852" y2="611.2852"/><line style="stroke:#000000;stroke-width:1;" x1="0" x2="1698.2764" y1="614.2852" y2="614.2852"/><rect fill="#EEEEEE" height="23.1328" style="stroke:#000000;stroke-width:2;" width="384.189" x="657.0437" y="600.7188"/><text fill="#000000" font-family="sans-serif" font-size="13" font-weight="bold" lengthAdjust="spacing" textLength="365.6631" x="663.0437" y="616.7856">Step 3: Write Updated Values to Persistent Cache</text><path d="M355.8687,640.8516 L432.4927,640.8516 L432.4927,647.9844 L422.4927,657.9844 L355.8687,657.9844 L355.8687,640.8516" fill="#EEEEEE" style="stroke:#000000;stroke-width:1.5;"/><rect fill="none" height="356.9375" style="stroke:#000000;stroke-width:1.5;" width="1315.4175" x="355.8687" y="640.8516"/><text fill="#000000" font-family="sans-serif" font-size="13" font-weight="bold" lengthAdjust="spacing" textLength="31.624" x="370.8687" y="653.9185">loop</text><text fill="#000000" font-family="sans-serif" font-size="11" font-weight="bold" lengthAdjust="spacing" textLength="208.9087" x="447.4927" y="653.062">[For each updated ParameterSet]</text><g class="message" data-participant-1="CPImpl" data-participant-2="Persist"><polygon fill="#181818" points="1283.2866,675.1172,1293.2866,679.1172,1283.2866,683.1172,1287.2866,679.1172" style="stroke:#181818;stroke-width:1;"/><line style="stroke:#181818;stroke-width:1;" x1="439.6968" x2="1289.2866" y1="679.1172" y2="679.1172"/><text fill="#000000" font-family="sans-serif" font-size="13" lengthAdjust="spacing" textLength="288.6343" x="446.6968" y="674.0513">CacheParameterSet(param_set, sync=false)</text></g><path d="M1163,694.1172 L1227.4429,694.1172 L1227.4429,701.25 L1217.4429,711.25 L1163,711.25 L1163,694.1172" fill="#EEEEEE" style="stroke:#000000;stroke-width:1.5;"/><rect fill="none" height="296.6719" style="stroke:#000000;stroke-width:1.5;" width="498.2861" x="1163" y="694.1172"/><text fill="#000000" font-family="sans-serif" font-size="13" font-weight="bold" lengthAdjust="spacing" textLength="19.4429" x="1178" y="707.1841">alt</text><text fill="#000000" font-family="sans-serif" font-size="11" font-weight="bold" lengthAdjust="spacing" textLength="177.4233" x="1242.4429" y="706.3276">[ParameterSet is kQualified]</text><g class="message" data-participant-1="Persist" data-participant-2="Persist"><line style="stroke:#181818;stroke-width:1;" x1="1295.2866" x2="1337.2866" y1="732.3828" y2="732.3828"/><line style="stroke:#181818;stroke-width:1;" x1="1337.2866" x2="1337.2866" y1="732.3828" y2="745.3828"/><line style="stroke:#181818;stroke-width:1;" x1="1296.2866" x2="1337.2866" y1="745.3828" y2="745.3828"/><polygon fill="#181818" points="1306.2866,741.3828,1296.2866,745.3828,1306.2866,749.3828,1302.2866,745.3828" style="stroke:#181818;stroke-width:1;"/><text fill="#000000" font-family="sans-serif" font-size="13" lengthAdjust="spacing" textLength="185.4277" x="1302.2866" y="727.3169">NeedToPersist() returns true</text></g><g class="message" data-participant-1="Persist" data-participant-2="Persist"><line style="stroke:#181818;stroke-width:1;" x1="1295.2866" x2="1337.2866" y1="774.5156" y2="774.5156"/><line style="stroke:#181818;stroke-width:1;" x1="1337.2866" x2="1337.2866" y1="774.5156" y2="787.5156"/><line style="stroke:#181818;stroke-width:1;" x1="1296.2866" x2="1337.2866" y1="787.5156" y2="787.5156"/><polygon fill="#181818" points="1306.2866,783.5156,1296.2866,787.5156,1306.2866,791.5156,1302.2866,787.5156" style="stroke:#181818;stroke-width:1;"/><text fill="#000000" font-family="sans-serif" font-size="13" lengthAdjust="spacing" textLength="197.8755" x="1302.2866" y="769.4497">ContainsSameContent() check</text></g><path d="M1238.1631,802.5156 L1302.606,802.5156 L1302.606,809.6484 L1292.606,819.6484 L1238.1631,819.6484 L1238.1631,802.5156" fill="#EEEEEE" style="stroke:#000000;stroke-width:1.5;"/><rect fill="none" height="131.3359" style="stroke:#000000;stroke-width:1.5;" width="413.123" x="1238.1631" y="802.5156"/><text fill="#000000" font-family="sans-serif" font-size="13" font-weight="bold" lengthAdjust="spacing" textLength="19.4429" x="1253.1631" y="815.5825">alt</text><text fill="#000000" font-family="sans-serif" font-size="11" font-weight="bold" lengthAdjust="spacing" textLength="115.9673" x="1317.606" y="814.7261">[Content changed]</text><g class="message" data-participant-1="Persist" data-participant-2="KVS"><polygon fill="#181818" points="1528.7183,836.7813,1538.7183,840.7813,1528.7183,844.7813,1532.7183,840.7813" style="stroke:#181818;stroke-width:1;"/><line style="stroke:#181818;stroke-width:1;" x1="1295.2866" x2="1534.7183" y1="840.7813" y2="840.7813"/><text fill="#000000" font-family="sans-serif" font-size="13" lengthAdjust="spacing" textLength="221.4316" x="1302.2866" y="835.7153">setValue("CfgP__SetName", JSON)</text></g><path d="M1440,853.7813 L1440,878.7813 L1641,878.7813 L1641,863.7813 L1631,853.7813 L1440,853.7813" fill="#FEFFDD" style="stroke:#181818;stroke-width:0.5;"/><path d="M1631,853.7813 L1631,863.7813 L1641,863.7813 L1631,853.7813" fill="#FEFFDD" style="stroke:#181818;stroke-width:0.5;"/><text fill="#000000" font-family="sans-serif" font-size="13" lengthAdjust="spacing" textLength="180.2861" x="1446" y="870.8481">Deferred write (sync=false)</text><line style="stroke:#000000;stroke-width:1;stroke-dasharray:2,2;" x1="1238.1631" x2="1651.2861" y1="884.9141" y2="884.9141"/><text fill="#000000" font-family="sans-serif" font-size="11" font-weight="bold" lengthAdjust="spacing" textLength="131.6294" x="1243.1631" y="895.1245">[Content unchanged]</text><path d="M1252,903.7188 L1252,928.7188 L1337,928.7188 L1337,913.7188 L1327,903.7188 L1252,903.7188" fill="#FEFFDD" style="stroke:#181818;stroke-width:0.5;"/><path d="M1327,903.7188 L1327,913.7188 L1337,913.7188 L1327,903.7188" fill="#FEFFDD" style="stroke:#181818;stroke-width:0.5;"/><text fill="#000000" font-family="sans-serif" font-size="13" lengthAdjust="spacing" textLength="64.4604" x="1258" y="920.7856">Skip write</text><line style="stroke:#000000;stroke-width:1;stroke-dasharray:2,2;" x1="1163" x2="1661.2861" y1="941.8516" y2="941.8516"/><text fill="#000000" font-family="sans-serif" font-size="11" font-weight="bold" lengthAdjust="spacing" textLength="187.752" x="1168" y="952.062">[ParameterSet not kQualified]</text><path d="M1173,960.6563 L1173,985.6563 L1417,985.6563 L1417,970.6563 L1407,960.6563 L1173,960.6563" fill="#FEFFDD" style="stroke:#181818;stroke-width:0.5;"/><path d="M1407,960.6563 L1407,970.6563 L1417,970.6563 L1407,960.6563" fill="#FEFFDD" style="stroke:#181818;stroke-width:0.5;"/><text fill="#000000" font-family="sans-serif" font-size="13" lengthAdjust="spacing" textLength="223.355" x="1179" y="977.7231">Skip - only qualified sets persisted</text><g class="message" data-participant-1="CPImpl" data-participant-2="Persist"><polygon fill="#181818" points="1283.2866,1021.9219,1293.2866,1025.9219,1283.2866,1029.9219,1287.2866,1025.9219" style="stroke:#181818;stroke-width:1;"/><line style="stroke:#181818;stroke-width:1;" x1="439.6968" x2="1289.2866" y1="1025.9219" y2="1025.9219"/><text fill="#000000" font-family="sans-serif" font-size="13" lengthAdjust="spacing" textLength="108.2339" x="446.6968" y="1020.856">SyncToStorage()</text></g><g class="message" data-participant-1="Persist" data-participant-2="KVS"><polygon fill="#181818" points="1528.7183,1051.0547,1538.7183,1055.0547,1528.7183,1059.0547,1532.7183,1055.0547" style="stroke:#181818;stroke-width:1;"/><line style="stroke:#181818;stroke-width:1;" x1="1295.2866" x2="1534.7183" y1="1055.0547" y2="1055.0547"/><text fill="#000000" font-family="sans-serif" font-size="13" lengthAdjust="spacing" textLength="106.7549" x="1302.2866" y="1049.9888">syncToStorage()</text></g><path d="M1387,1068.0547 L1387,1093.0547 L1693,1093.0547 L1693,1078.0547 L1683,1068.0547 L1387,1068.0547" fill="#FEFFDD" style="stroke:#181818;stroke-width:0.5;"/><path d="M1683,1068.0547 L1683,1078.0547 L1693,1078.0547 L1683,1068.0547" fill="#FEFFDD" style="stroke:#181818;stroke-width:0.5;"/><text fill="#000000" font-family="sans-serif" font-size="13" lengthAdjust="spacing" textLength="285.2764" x="1393" y="1085.1216">Flush all deferred writes to physical storage</text><rect fill="#EEEEEE" height="3" style="stroke:#EEEEEE;stroke-width:1;" width="1698.2764" x="0" y="1118.7539"/><line style="stroke:#000000;stroke-width:1;" x1="0" x2="1698.2764" y1="1118.7539" y2="1118.7539"/><line style="stroke:#000000;stroke-width:1;" x1="0" x2="1698.2764" y1="1121.7539" y2="1121.7539"/><rect fill="#EEEEEE" height="23.1328" style="stroke:#000000;stroke-width:2;" width="223.3647" x="737.4558" y="1108.1875"/><text fill="#000000" font-family="sans-serif" font-size="13" font-weight="bold" lengthAdjust="spacing" textLength="204.8389" x="743.4558" y="1124.2544">Step 4: Start Polling Thread</text><g class="message" data-participant-1="CPImpl" data-participant-2="ICP"><polygon fill="#181818" points="870.2231,1158.4531,880.2231,1162.4531,870.2231,1166.4531,874.2231,1162.4531" style="stroke:#181818;stroke-width:1;"/><line style="stroke:#181818;stroke-width:1;" x1="439.6968" x2="876.2231" y1="1162.4531" y2="1162.4531"/><text fill="#000000" font-family="sans-serif" font-size="13" lengthAdjust="spacing" textLength="418.5264" x="446.6968" y="1157.3872">StartParameterSetUpdatePollingRoutine(max_samples, interval)</text></g><path d="M784,1175.4531 L784,1215.4531 L979,1215.4531 L979,1185.4531 L969,1175.4531 L784,1175.4531" fill="#FEFFDD" style="stroke:#181818;stroke-width:0.5;"/><path d="M969,1175.4531 L969,1185.4531 L979,1185.4531 L969,1175.4531" fill="#FEFFDD" style="stroke:#181818;stroke-width:0.5;"/><text fill="#000000" font-family="sans-serif" font-size="13" lengthAdjust="spacing" textLength="140.8101" x="790" y="1192.52">Polling thread started</text><text fill="#000000" font-family="sans-serif" font-size="13" lengthAdjust="spacing" textLength="174.9858" x="790" y="1207.6528">Ready for runtime updates</text><g class="message" data-participant-1="CPImpl" data-participant-2="CPImpl"><line style="stroke:#181818;stroke-width:1;" x1="439.6968" x2="481.6968" y1="1241.8516" y2="1241.8516"/><line style="stroke:#181818;stroke-width:1;" x1="481.6968" x2="481.6968" y1="1241.8516" y2="1254.8516"/><line style="stroke:#181818;stroke-width:1;" x1="440.6968" x2="481.6968" y1="1254.8516" y2="1254.8516"/><polygon fill="#181818" points="450.6968,1250.8516,440.6968,1254.8516,450.6968,1258.8516,446.6968,1254.8516" style="stroke:#181818;stroke-width:1;"/><text fill="#000000" font-family="sans-serif" font-size="13" lengthAdjust="spacing" textLength="227.9697" x="446.6968" y="1236.7856">Notify internal_config_provider_cv_</text></g><path d="M311,1267.8516 L311,1292.8516 L567,1292.8516 L567,1277.8516 L557,1267.8516 L311,1267.8516" fill="#FEFFDD" style="stroke:#181818;stroke-width:0.5;"/><path d="M557,1267.8516 L557,1277.8516 L567,1277.8516 L557,1267.8516" fill="#FEFFDD" style="stroke:#181818;stroke-width:0.5;"/><text fill="#000000" font-family="sans-serif" font-size="13" lengthAdjust="spacing" textLength="235.3711" x="317" y="1284.9185">Signal WaitUntilConnected() waiters</text><!--SRC=[VLPDRziu4BthLmnogOrr3jtjIO0N2EnDaTqszKPkSoaWCDB89aAJAaavzVxw7NvOfcov0WnBrhmtCsyUILjk1SA3v9Op0SL1Lbkj9F-FMQuaF6zHmaghdmVW1XPAIgmirc2LUsZuPibmfsIMjKnRNl6MIGit7h3UQcJr3J03oVCmC73GwpslKJ_iMk7Z5ojtEmnza1QrP688yU4FYzKmzkxfBiyNNpu7ikLPSQWDDnPbTGZ5XUTXq3_V2l-IlhDCAekWzgZJHcQnoZpAKmLjd6XeB7iHt6onpX84tFxPOmgqNJlUqeJ7dylA_rwsySKqo-PpA2osy9uOkXTJQVw2RXPVsvfPD32VPrb8uPAHBZcizQ4FNQjFpDWGNA-OPZkaL5JBNtkKTZBD2E6hN9xnNu51mr7KsM89jyTq4TPw8Nm3UaSoUEAq_pJCT5M5nZITE7NuUmxtQAjjxynlJ7JKOQFLRc0zt_DfGiS40So4W8fLD0XeZtM3GJl2yrrIdpK5LDRLJVwWxosJ6pJPEpY9EaWGYqir2NNU4ptfcGcbMhXN6f2g6DO0akw1or1W1dITZUuZsfHvGg3IWMPW-GvLPwSUbGoDelEyeixEe84z6TDWYfE_Yo-Fy1lyw9ZWD5ATy2OT3p1lt58_MhNKJ8_BFEuToMwTjbx3cZSDQdVd9O_Js3kLOhIxBWVey8nBKr3Eo3MPWgPreoMDZmbphjaHULVx_QaBVYrxqKi_-1rhOruaYhxCJePXrxyigdZbBTpIYyWE4h7kCIZhp7rw4_-HmxFc51RNpj74L5s_2v5IJX9lup6VUOAhFbkh4v7dcOotVM7560QNBkahYCnvA73WH4_kY6TWwCIO-t5Cm_ZTy0TMeOFZzTzeaI2LkoBx8D4ZgTbtb4pRwcYMQy1nir3LrMkFIqsPpdg4btRzt2rHh_7aPj5iLcL9hJmI_SqCt7AP3h0dftZe4idocjHzyzEVf1eT8RzmtoLhtwWte6Sz4Sc0yeG3uGa_flmrsbjGKXpwrLo7ZRAD_ef9ZXOViOdxxx1MXLMQRP0slmj1pzwVYNOlEXDsx7eWdrykxVPWU4N7W0dmqnhxG8aj7TsmKa9mkO5us8uSXJukLIWiomXyeWsLIvpisC_ICCAXcO4_YscpIgiD6sZCPaCsuwYn_YwVwEa03IqptKctJSULPj9gZclxKLdU7E3QWLzM-tBaQ2luXeBXcN7xbLA8_byPMVwDVYJPi_y1]--></g></svg>